<svg width="23" height="23" viewBox="0 0 23 23" fill="none" xmlns="http://www.w3.org/2000/svg">
<g clip-path="url(#clip0_882_68)">
<rect width="21.6336" height="21.6336" transform="translate(0.649414 0.464355)" fill="white"/>
<path d="M19.8315 17.0717C19.518 17.796 19.1469 18.4628 18.7169 19.0757C18.1308 19.9114 17.6509 20.4898 17.281 20.8111C16.7077 21.3383 16.0934 21.6083 15.4357 21.6237C14.9634 21.6237 14.394 21.4893 13.7311 21.2167C13.066 20.9454 12.4548 20.8111 11.8959 20.8111C11.3098 20.8111 10.6812 20.9454 10.0088 21.2167C9.33546 21.4893 8.79298 21.6314 8.37822 21.6454C7.74744 21.6723 7.11871 21.3946 6.49114 20.8111C6.09058 20.4617 5.58957 19.8628 4.98938 19.0143C4.34542 18.1083 3.816 17.0576 3.40124 15.8598C2.95705 14.566 2.73438 13.3131 2.73438 12.1002C2.73438 10.7108 3.0346 9.51249 3.63594 8.50829C4.10854 7.70168 4.73727 7.0654 5.52418 6.5983C6.31108 6.1312 7.16133 5.89317 8.07697 5.87794C8.57799 5.87794 9.235 6.03292 10.0515 6.33749C10.8656 6.64309 11.3884 6.79807 11.6176 6.79807C11.7889 6.79807 12.3697 6.61686 13.3542 6.25559C14.2852 5.92056 15.0709 5.78184 15.7146 5.83648C17.4589 5.97725 18.7693 6.66485 19.6408 7.90362C18.0808 8.84882 17.3092 10.1727 17.3245 11.871C17.3386 13.1939 17.8185 14.2947 18.7617 15.1687C19.1891 15.5744 19.6664 15.8879 20.1975 16.1106C20.0823 16.4446 19.9608 16.7646 19.8315 17.0717V17.0717ZM15.8311 1.3298C15.8311 2.36665 15.4523 3.33475 14.6973 4.23081C13.7861 5.29605 12.684 5.9116 11.4888 5.81447C11.4736 5.69008 11.4648 5.55916 11.4648 5.42159C11.4648 4.42622 11.8981 3.36098 12.6676 2.49C13.0518 2.04901 13.5404 1.68233 14.1329 1.38982C14.7241 1.10168 15.2834 0.942327 15.8093 0.915039C15.8247 1.05365 15.8311 1.19227 15.8311 1.32979V1.3298Z" fill="#3C3F43"/>
</g>
<defs>
<clipPath id="clip0_882_68">
<rect width="21.6336" height="21.6336" fill="white" transform="translate(0.649414 0.464355)"/>
</clipPath>
</defs>
</svg>
