<svg width="37" height="37" viewBox="0 0 37 37" fill="currentColor" xmlns="http://www.w3.org/2000/svg">
<path d="M29.6996 5.24622H26.0395V3.83776C26.0395 3.61363 25.9505 3.39868 25.7921 3.24019C25.6337 3.08171 25.4189 2.99268 25.1949 2.99268C24.9709 2.99268 24.756 3.08171 24.5976 3.24019C24.4392 3.39868 24.3502 3.61363 24.3502 3.83776V5.24622H12.5253V3.83776C12.5253 3.61363 12.4363 3.39868 12.2779 3.24019C12.1195 3.08171 11.9047 2.99268 11.6806 2.99268C11.4566 2.99268 11.2418 3.08171 11.0834 3.24019C10.925 3.39868 10.836 3.61363 10.836 3.83776V5.24622H7.1759C6.65321 5.24622 6.15192 5.45397 5.78232 5.82377C5.41272 6.19356 5.20508 6.69511 5.20508 7.21808V29.7536C5.20508 30.2765 5.41272 30.7781 5.78232 31.1479C6.15192 31.5177 6.65321 31.7254 7.1759 31.7254H29.6996C30.2223 31.7254 30.7236 31.5177 31.0932 31.1479C31.4628 30.7781 31.6704 30.2765 31.6704 29.7536V7.21808C31.6704 6.69511 31.4628 6.19356 31.0932 5.82377C30.7236 5.45397 30.2223 5.24622 29.6996 5.24622ZM7.1759 6.93638H10.836V8.34485C10.836 8.56898 10.925 8.78393 11.0834 8.94241C11.2418 9.1009 11.4566 9.18993 11.6806 9.18993C11.9047 9.18993 12.1195 9.1009 12.2779 8.94241C12.4363 8.78393 12.5253 8.56898 12.5253 8.34485V6.93638H24.3502V8.34485C24.3502 8.56898 24.4392 8.78393 24.5976 8.94241C24.756 9.1009 24.9709 9.18993 25.1949 9.18993C25.4189 9.18993 25.6337 9.1009 25.7921 8.94241C25.9505 8.78393 26.0395 8.56898 26.0395 8.34485V6.93638H29.6996C29.7743 6.93638 29.8459 6.96606 29.8987 7.01889C29.9515 7.07172 29.9812 7.14337 29.9812 7.21808V12.0069H6.89436V7.21808C6.89436 7.14337 6.92402 7.07172 6.97682 7.01889C7.02962 6.96606 7.10123 6.93638 7.1759 6.93638ZM29.6996 30.0352H7.1759C7.10123 30.0352 7.02962 30.0056 6.97682 29.9527C6.92402 29.8999 6.89436 29.8283 6.89436 29.7536V13.697H29.9812V29.7536C29.9812 29.8283 29.9515 29.8999 29.8987 29.9527C29.8459 30.0056 29.7743 30.0352 29.6996 30.0352ZM24.1025 17.8886C24.2606 18.0471 24.3495 18.2619 24.3495 18.4858C24.3495 18.7098 24.2606 18.9246 24.1025 19.083L17.3454 25.8436C17.187 26.0019 16.9723 26.0908 16.7485 26.0908C16.5247 26.0908 16.31 26.0019 16.1516 25.8436L12.773 22.4633C12.6238 22.3031 12.5426 22.0912 12.5465 21.8723C12.5503 21.6534 12.639 21.4445 12.7937 21.2897C12.9485 21.1348 13.1573 21.0461 13.3761 21.0423C13.5949 21.0384 13.8067 21.1197 13.9668 21.2689L16.7485 24.0507L22.9087 17.8886C23.0671 17.7304 23.2818 17.6415 23.5056 17.6415C23.7294 17.6415 23.9441 17.7304 24.1025 17.8886Z" fill="currentColor"/>
</svg>
