<svg width="36" height="36" viewBox="0 0 36 36" fill="none" xmlns="http://www.w3.org/2000/svg">
<path d="M32.625 29.25C32.625 29.5484 32.5065 29.8345 32.2955 30.0455C32.0845 30.2565 31.7984 30.375 31.5 30.375H4.5C4.20163 30.375 3.91548 30.2565 3.7045 30.0455C3.49353 29.8345 3.375 29.5484 3.375 29.25V6.75C3.375 6.45163 3.49353 6.16548 3.7045 5.95451C3.91548 5.74353 4.20163 5.625 4.5 5.625C4.79837 5.625 5.08452 5.74353 5.29549 5.95451C5.50647 6.16548 5.625 6.45163 5.625 6.75V20.0208L12.7589 13.7812C12.953 13.6113 13.1997 13.5133 13.4575 13.5035C13.7153 13.4938 13.9686 13.573 14.175 13.7278L22.4452 19.9308L30.7589 12.6562C30.8679 12.5483 30.9978 12.4639 31.1407 12.408C31.2835 12.3522 31.4363 12.3261 31.5896 12.3315C31.7429 12.3368 31.8934 12.3734 32.0321 12.4391C32.1707 12.5048 32.2944 12.5981 32.3956 12.7134C32.4968 12.8286 32.5734 12.9633 32.6207 13.1092C32.6679 13.2552 32.6848 13.4092 32.6703 13.5619C32.6559 13.7146 32.6103 13.8627 32.5365 13.9972C32.4627 14.1316 32.3622 14.2496 32.2411 14.3438L23.2411 22.2188C23.047 22.3887 22.8003 22.4867 22.5425 22.4965C22.2847 22.5062 22.0314 22.427 21.825 22.2722L13.5548 16.072L5.625 23.0105V28.125H31.5C31.7984 28.125 32.0845 28.2435 32.2955 28.4545C32.5065 28.6655 32.625 28.9516 32.625 29.25Z" fill="#3C3F43"/>
</svg>
