<svg width="32" height="33" viewBox="0 0 32 33" fill="none" xmlns="http://www.w3.org/2000/svg">
<path d="M28.7077 23.7259C29.4189 22.3165 29.7771 20.7554 29.7517 19.1769C29.7263 17.5984 29.3179 16.0497 28.5617 14.6639C27.8056 13.2781 26.7242 12.0966 25.4106 11.221C24.0969 10.3454 22.5903 9.80189 21.0202 9.63718C20.5218 8.42374 19.7836 7.32336 18.8499 6.40193C17.9161 5.4805 16.8061 4.75697 15.5861 4.27467C14.3662 3.79237 13.0614 3.56121 11.75 3.59504C10.4387 3.62887 9.14758 3.92698 7.95412 4.47154C6.76066 5.01609 5.68936 5.79589 4.80438 6.76423C3.91939 7.73257 3.23891 8.86954 2.80369 10.1071C2.36847 11.3446 2.18746 12.6572 2.27149 13.9664C2.35552 15.2755 2.70287 16.5542 3.29274 17.7259L2.30899 21.1722C2.2357 21.4293 2.23245 21.7013 2.29959 21.9601C2.36673 22.2189 2.50182 22.455 2.69086 22.6441C2.87991 22.8331 3.11604 22.9682 3.37483 23.0353C3.63361 23.1025 3.90563 23.0992 4.16274 23.0259L7.60899 22.0422C8.66278 22.5717 9.80364 22.9062 10.9765 23.0297C11.4867 24.2739 12.2485 25.3993 13.2143 26.3351C14.1801 27.2708 15.3289 27.9969 16.5886 28.4676C17.8483 28.9382 19.1917 29.1434 20.5345 29.0702C21.8773 28.997 23.1904 28.647 24.3915 28.0422L27.8377 29.0259C28.0948 29.0992 28.3669 29.1025 28.6257 29.0353C28.8844 28.9682 29.1206 28.8331 29.3096 28.6441C29.4987 28.455 29.6337 28.2189 29.7009 27.9601C29.768 27.7013 29.7648 27.4293 29.6915 27.1722L28.7077 23.7259ZM7.69149 20.4884C7.62172 20.4881 7.55226 20.4978 7.48524 20.5172L3.75024 21.5847L4.81649 17.8509C4.87094 17.6613 4.84849 17.4579 4.75399 17.2847C3.8057 15.5421 3.51709 13.5162 3.94105 11.5782C4.36501 9.64011 5.47314 7.91973 7.06238 6.73227C8.65163 5.54481 10.6156 4.9698 12.5943 5.11259C14.573 5.25539 16.434 6.10643 17.8363 7.50977C19.2386 8.91312 20.0882 10.7748 20.2295 12.7536C20.3708 14.7324 19.7943 16.6959 18.6056 18.2843C17.417 19.8726 15.6958 20.9795 13.7574 21.4019C11.819 21.8244 9.79333 21.5343 8.05149 20.5847C7.9413 20.5233 7.8176 20.4902 7.69149 20.4884ZM27.1827 23.8497L28.2502 27.5847L24.5165 26.5184C24.3269 26.464 24.1234 26.4864 23.9502 26.5809C22.9803 27.1097 21.9141 27.4382 20.8148 27.5471C19.7154 27.656 18.6055 27.543 17.5506 27.2149C16.4958 26.8867 15.5176 26.35 14.6741 25.6367C13.8307 24.9233 13.139 24.0479 12.6402 23.0622C14.0427 22.9709 15.4087 22.5773 16.6446 21.9082C17.8805 21.2392 18.957 20.3106 19.8002 19.1862C20.6433 18.0618 21.2332 16.7683 21.5292 15.3945C21.8253 14.0206 21.8205 12.599 21.5152 11.2272C22.7955 11.4656 24.0011 12.0036 25.0334 12.7974C26.0658 13.5911 26.8956 14.6179 27.455 15.7939C28.0144 16.9698 28.2875 18.2615 28.2519 19.5632C28.2163 20.865 27.873 22.1398 27.2502 23.2834C27.1541 23.4559 27.1298 23.6594 27.1827 23.8497Z" fill="#3C3F43"/>
</svg>
