<svg width="22" height="29" viewBox="0 0 20 20" fill="none" xmlns="http://www.w3.org/2000/svg">
<path fill-rule="evenodd" clip-rule="evenodd" d="M16.9637 15.086V13.3876C16.9637 12.967 17.1308 12.5637 17.4282 12.2663L18.6292 11.0652C19.2484 10.446 19.2484 9.4419 18.6292 8.82266L17.4282 7.62163C17.1308 7.32423 16.9637 6.9209 16.9637 6.50032V4.80066C16.9637 3.92487 16.2537 3.2149 15.3779 3.2149H13.6783C13.2577 3.2149 12.8544 3.04782 12.557 2.75044L11.356 1.54941C10.7367 0.930144 9.73261 0.930144 9.11337 1.54941L7.91234 2.75044C7.61493 3.04782 7.21159 3.2149 6.79103 3.2149H5.09137C4.67058 3.2149 4.26704 3.38215 3.96962 3.67981C3.6722 3.97747 3.50528 4.38114 3.50561 4.80193V6.50032C3.50561 6.9209 3.33853 7.32423 3.04115 7.62163L1.84012 8.82266C1.22085 9.4419 1.22085 10.446 1.84012 11.0652L3.04115 12.2663C3.33853 12.5637 3.50561 12.967 3.50561 13.3876V15.086C3.50561 15.9617 4.21559 16.6717 5.09137 16.6717H6.79103C7.21159 16.6717 7.61493 16.8388 7.91234 17.1362L9.11337 18.3372C9.73261 18.9565 10.7367 18.9565 11.356 18.3372L12.557 17.1362C12.8544 16.8388 13.2577 16.6717 13.6783 16.6717H15.3767C15.7975 16.6721 16.2011 16.5052 16.4987 16.2076C16.7964 15.9102 16.9637 15.5068 16.9637 15.086Z" stroke="#969696" stroke-width="1.5" stroke-linecap="round" stroke-linejoin="round"/>
<path fill-rule="evenodd" clip-rule="evenodd" d="M6.79456 8.22413C6.4467 7.87635 6.34263 7.35324 6.53087 6.89876C6.71911 6.44428 7.16257 6.14795 7.65449 6.14795C8.14642 6.14795 8.58987 6.44428 8.77819 6.89876C8.96638 7.35324 8.86235 7.87635 8.51445 8.22413C8.03948 8.6991 7.26951 8.6991 6.79456 8.22413Z" stroke="#969696" stroke-width="1.5" stroke-linecap="round" stroke-linejoin="round"/>
<path fill-rule="evenodd" clip-rule="evenodd" d="M11.9545 13.3837C11.6066 13.0358 11.5026 12.5127 11.6908 12.0582C11.8791 11.6036 12.3225 11.3074 12.8145 11.3074C13.3064 11.3074 13.7498 11.6036 13.938 12.0582C14.1263 12.5127 14.0222 13.0358 13.6744 13.3837C13.1994 13.8585 12.4295 13.8585 11.9545 13.3837Z" stroke="#969696" stroke-width="1.5" stroke-linecap="round"/>
<path d="M13.6745 6.50293L6.79358 13.3851" stroke="#969696" stroke-width="1.5" stroke-linecap="round"/>
</svg>
