<svg width="47" height="47" viewBox="0 0 47 47" fill="none" xmlns="http://www.w3.org/2000/svg">
<path d="M26.7912 16.6894C26.9227 15.784 25.8257 15.6106 24.9066 16.6446C24.1608 17.4769 23.6416 18.4951 23.4396 19.9132C23.4396 19.9132 26.3548 19.6908 26.7912 16.6894ZM39.5698 23.7959C39.5616 23.7956 39.5549 23.7944 39.5467 23.7941L39.547 23.7947C39.5546 23.795 39.5622 23.7956 39.5698 23.7959ZM34.3025 11.9135C34.4297 9.31199 33.8844 10.3704 33.7529 10.6251C33.6236 10.8877 32.466 13.659 32.0457 17.5618C32.0457 17.5618 33.979 15.7883 34.3025 11.9135ZM36.4868 22.5418L36.485 22.5434C36.2565 22.1666 36.1536 21.7786 36.1731 21.6183C36.1104 21.0726 36.656 19.3317 36.9123 18.7495C34.9428 21.7799 33.1406 22.9393 32.1748 22.9393C31.2077 22.9393 30.2719 22.1353 30.2418 20.394C30.2899 19.7674 30.366 19.1677 30.4539 18.5816C28.3259 22.1015 25.4678 22.9715 24.5348 22.9393C23.7004 22.9149 21.957 22.3614 21.957 20.4911C21.957 16.8144 25.3105 15.348 26.2742 15.3397C27.1184 15.3276 28.2114 15.7156 28.08 16.8789C27.7611 19.5861 23.4396 20.5553 23.4396 20.5553C23.4396 21.5857 24.0841 22.2969 25.0497 22.2284C27.1914 22.1018 29.5151 19.3974 30.6456 17.472C31.6456 12.3904 33.9312 9.09653 34.5587 8.46357C35.3003 7.73231 35.4963 8.46357 35.4336 9.82109C35.1406 15.2348 31.886 18.5231 31.886 18.5231C31.8193 18.9114 31.1468 22.0988 32.7243 22.0339C34.3025 21.9737 36.939 17.78 37.1995 17.4285C37.3973 17.1699 37.6216 16.5278 37.7509 16.1072C37.8821 15.6912 38.04 15.655 38.04 15.655C38.04 15.655 38.557 15.4974 39.0077 15.4612C39.4621 15.4286 39.1365 15.9818 39.1365 15.9818C39.1365 15.9818 37.9174 19.6959 37.6134 20.6454C37.1396 21.1852 36.7239 22.016 36.4868 22.5418ZM38.5248 12.6892C38.6216 12.4674 38.7832 12.2048 38.7832 12.2048C38.7832 12.2048 38.9085 12.0149 39.1693 12.1439C39.4255 12.2696 40.0074 12.6287 40.0074 12.6287C40.0074 12.6287 40.1328 12.7863 40.1023 13.0775C40.074 13.3681 40.0074 13.7844 39.6842 13.7844C39.361 13.7844 38.9447 13.5942 38.5875 13.3036C38.2317 13.0127 38.4274 12.9117 38.5248 12.6892ZM46.9332 21.9451C43.3234 23.8985 39.5689 23.7959 39.5689 23.7959C39.3029 23.7862 39.0592 23.7658 38.8352 23.7369L38.8358 23.7353H38.8352V23.7274C38.9667 23.4286 39.1069 23.148 39.1897 23.1088L40.1279 23.0929L40.1261 23.0926C42.0359 23.0896 45.3097 22.0339 46.8811 21.2601C45.747 9.38928 35.7501 0.104492 23.5811 0.104492C17.2377 0.104492 11.4878 2.63209 7.27221 6.72992C7.72259 6.66297 8.19457 6.62189 8.70429 6.63315C10.9854 6.63315 13.0559 7.3927 14.1995 7.90973C14.4983 8.03115 14.7932 8.16443 15.0902 8.30989C15.9347 7.14226 17.074 6.16877 18.6357 5.69618C19.0359 5.56259 19.4741 5.46156 19.9631 5.40526C20.1065 5.39309 20.2379 5.49807 20.2519 5.64384C20.2662 5.78899 20.1609 5.91437 20.0216 5.93445C19.9631 5.93445 19.9166 5.94267 19.8661 5.95058C19.3305 6.0437 17.4678 6.53638 16.2378 8.94864C17.1224 9.51009 17.9729 10.2088 18.7146 11.0855C20.1226 12.625 21.4981 14.8833 21.3487 17.3515C21.0416 22.3331 16.1425 22.988 15.3976 22.988C14.6943 22.988 13.0054 22.7938 10.3387 21.5455C10.193 21.7071 10.088 21.8647 9.97113 21.9816C8.60144 23.3796 7.52266 23.5695 6.59299 23.7067C6.58873 23.7073 6.58478 23.7073 6.58021 23.708C6.85379 23.2055 7.21287 22.9609 7.41189 22.8583C7.39972 22.8629 7.38694 22.8665 7.37477 22.8711C8.61361 22.4265 9.49854 21.2948 9.49854 21.2948C9.32661 21.2342 8.89023 21.1292 8.72468 21.0805C8.20127 20.9716 7.70829 20.9031 7.24361 20.8827C5.58908 20.891 4.47591 21.7272 4.02371 22.1152C4.12535 22.2418 4.28176 22.3641 4.47196 22.4767C4.46922 22.4749 4.46618 22.4734 4.46344 22.4718C4.33776 22.6983 4.27051 22.8632 4.27051 22.8632C4.20782 22.9977 4.14604 23.1891 4.10618 23.3224C3.42026 23.0488 2.83386 22.6882 2.49425 22.3818C2.31623 22.2442 2.18538 22.0263 2.40539 21.7634C2.62754 21.5051 4.85782 19.2103 9.91027 20.628C10.2252 20.3335 10.5104 19.7391 10.9811 18.7456C5.4634 17.5588 3.24498 15.2981 2.46869 13.3961C0.998873 16.4581 0.174805 19.8892 0.174805 23.5129C0.174805 33.3031 6.18492 41.6878 14.7159 45.1822C15.232 44.2053 16.2953 42.6007 18.0618 41.0712C17.557 40.6346 16.9529 40.0491 16.5929 39.5561C15.5631 38.1499 15.6094 36.0654 17.9991 35.0797C21.4902 33.6373 24.4742 34.8898 27.0115 36.1506C28.636 36.9582 30.4782 37.8754 33.2861 38.4934C38.184 39.5607 41.5688 37.6109 43.1695 36.3328C45.5851 32.6501 46.9913 28.2461 46.9913 23.5129C46.9913 22.9852 46.9676 22.4639 46.9332 21.9451ZM26.165 39.8348C26.1954 39.5521 25.9142 39.3382 25.7465 39.2247C24.9992 38.7643 23.155 38.5382 21.1387 39.8227C20.5489 40.1945 19.9993 40.5862 19.4905 40.986C20.6783 41.5761 22.4031 41.7782 24.5247 41.0308C25.6781 40.6346 26.1266 40.1501 26.165 39.8348ZM12.7693 18.2891C16.2113 18.5679 16.5567 16.6328 16.5789 16.5436C16.9629 15.1173 16.4517 14.0066 14.872 12.8955C14.2741 14.7378 13.6073 16.6525 12.7693 18.2891ZM11.2641 18.1233C11.7468 17.0162 12.2398 15.6629 12.6418 14.2451C12.8438 13.5218 13.072 12.6977 13.3608 11.8493C11.8338 11.1664 10.1306 10.9604 9.31656 10.9604C7.69003 10.9604 6.20317 11.5423 6.18735 11.5544C6.05802 11.6107 5.90038 11.5544 5.84165 11.4208C5.7811 11.2879 5.8377 11.1342 5.96916 11.0694C6.0358 11.0453 7.57531 10.3503 9.31656 10.3503C10.2134 10.3503 11.975 10.5079 13.5854 11.227C13.89 10.4191 14.2601 9.61082 14.7287 8.85552C13.89 8.3951 13.0197 8.03115 12.1488 7.77674C11.2398 7.54242 10.4358 7.42101 9.85397 7.36075C8.42068 7.25394 7.08872 7.4703 6.03702 8.02567C5.24582 8.92125 4.52369 9.878 3.87581 10.8877C3.80248 11.2374 3.76079 11.6113 3.76079 12.0149C3.76079 16.8062 10.5247 18.0064 11.2641 18.1233ZM33.1105 39.3136C30.1955 38.6794 28.2218 37.6934 26.6354 36.9019C24.2095 35.6938 21.9427 34.7726 19.2194 36.0857C17.7307 36.8091 17.2901 37.9922 17.7608 39.2369C17.9307 39.6815 18.2599 40.1297 18.7343 40.5095C19.3369 40.0247 19.9875 39.5521 20.6822 39.1075C22.8821 37.7098 25.6519 37.7299 26.7648 38.4289C27.339 38.7844 27.6317 39.2974 27.5712 39.8431C27.5082 40.3802 27.591 41.3095 25.8823 41.9032C23.3915 42.7681 20.1971 42.4327 18.7608 41.5761C17.0354 43.0514 15.8467 44.5206 15.2317 45.3864C17.8251 46.3769 20.6393 46.9213 23.5811 46.9213C31.1961 46.9213 37.9603 43.2851 42.2355 37.6554C40.3342 38.9599 37.2756 40.2195 33.1105 39.3136ZM16.0156 9.42488C15.9046 9.6875 15.8014 9.9626 15.7043 10.2611C15.5105 10.8591 15.3145 11.4975 15.1124 12.1439C16.9569 13.4448 17.6358 14.9925 17.179 16.6732C17.179 16.6894 16.5247 19.2991 12.4315 18.9072C11.9507 19.7556 11.5265 20.4019 10.9227 21.0081C11.266 21.1694 11.8356 21.4083 12.4117 21.5817C13.7975 21.9131 15.6438 22.1675 17.4964 21.1092C20.5285 19.3837 21.9609 13.8934 16.0092 9.47388L16.0418 9.44527L16.0156 9.42488Z" fill="#0071BC"/>
</svg>
