<svg width="20" height="18" viewBox="0 0 20 18" fill="none" xmlns="http://www.w3.org/2000/svg">
<path d="M6.06116 6.2087L4.43262 8.25561L6.41014 11.6902L10.0938 10.3372L11.7999 5.93115L6.06116 6.2087Z" fill="#E69329"/>
<path d="M5.71194 15.9576C7.3823 15.9576 8.73639 14.746 8.73639 13.2515C8.73639 11.757 7.3823 10.5454 5.71194 10.5454C4.04159 10.5454 2.6875 11.757 2.6875 13.2515C2.6875 14.746 4.04159 15.9576 5.71194 15.9576Z" fill="#06B0BA"/>
<path d="M5.7124 10.1284C3.77365 10.1284 2.22266 11.5162 2.22266 13.2508C2.22266 14.9855 3.77365 16.3732 5.7124 16.3732C7.65115 16.3732 9.20214 14.9855 9.20214 13.2508C9.20214 11.5162 7.65115 10.1284 5.7124 10.1284ZM5.7124 15.6794C4.20018 15.6794 2.99815 14.6039 2.99815 13.2508C2.99815 11.8978 4.20018 10.8223 5.7124 10.8223C7.22462 10.8223 8.42664 11.8978 8.42664 13.2508C8.42664 14.6039 7.22462 15.6794 5.7124 15.6794Z" fill="#00676D"/>
<path d="M5.32422 12.2104H6.09972V14.9859H5.32422V12.2104Z" fill="#00676D"/>
<path d="M4.89805 13.2507C5.2858 13.9099 6.13885 14.1874 6.87557 13.8405L13.2734 10.8916C13.6612 10.7181 13.9326 10.4752 14.1265 10.2324C14.7857 9.12221 16.2979 6.52021 17.306 4.26514L10.249 7.28346L8.38779 9.78138L5.7511 11.0303C4.74295 11.4814 4.43275 12.4875 4.89805 13.2507Z" fill="#FFB74D"/>
<path d="M11.606 1.80225L5.20811 3.98793C4.93668 4.05731 4.62649 4.33486 4.35506 4.57771L2.18366 7.17972C1.79592 7.70012 1.71837 8.35929 1.98979 8.94908C2.14489 9.29601 2.64896 10.1287 3.19181 11.0654C3.81221 10.4756 4.70404 10.1287 5.71218 10.1287C5.86728 10.1287 6.06116 10.1287 6.21626 10.1633L5.40198 8.70622L7.18563 7.2838H10.2876C10.2876 7.2838 16.2977 6.52054 17.3447 4.26547L11.606 1.80225Z" fill="#FFB74D"/>
<path d="M6.95312 13.2508C6.44904 13.459 5.86742 13.2508 5.67355 12.7998C5.4409 12.3488 5.67355 11.8284 6.17762 11.6549C6.64292 11.4467 7.41842 13.0426 6.95312 13.2508Z" fill="#FFCDD2"/>
</svg>
