<svg width="33" height="34" viewBox="0 0 33 34" fill="none" xmlns="http://www.w3.org/2000/svg">
<path d="M16.538 3.86816C13.952 3.86816 11.4241 4.63501 9.27387 6.07172C7.12368 7.50843 5.44781 9.55049 4.45818 11.9397C3.46856 14.3288 3.20962 16.9578 3.71413 19.4941C4.21864 22.0305 5.46392 24.3602 7.29251 26.1888C9.1211 28.0174 11.4509 29.2627 13.9872 29.7672C16.5235 30.2717 19.1525 30.0128 21.5417 29.0231C23.9308 28.0335 25.9729 26.3576 27.4096 24.2074C28.8463 22.0573 29.6132 19.5293 29.6132 16.9433C29.6095 13.4767 28.2308 10.1531 25.7795 7.70182C23.3282 5.25055 20.0046 3.87182 16.538 3.86816ZM17.5438 27.9603V19.9606H20.5611C20.8279 19.9606 21.0837 19.8547 21.2723 19.666C21.461 19.4774 21.5669 19.2216 21.5669 18.9549C21.5669 18.6881 21.461 18.4323 21.2723 18.2437C21.0837 18.055 20.8279 17.9491 20.5611 17.9491H17.5438V14.9317C17.5438 14.3982 17.7557 13.8866 18.133 13.5093C18.5102 13.1321 19.0219 12.9202 19.5554 12.9202H21.5669C21.8337 12.9202 22.0895 12.8142 22.2781 12.6256C22.4667 12.437 22.5727 12.1811 22.5727 11.9144C22.5727 11.6476 22.4667 11.3918 22.2781 11.2032C22.0895 11.0146 21.8337 10.9086 21.5669 10.9086H19.5554C18.4884 10.9086 17.4651 11.3325 16.7106 12.087C15.9561 12.8414 15.5322 13.8647 15.5322 14.9317V17.9491H12.5149C12.2482 17.9491 11.9923 18.055 11.8037 18.2437C11.6151 18.4323 11.5091 18.6881 11.5091 18.9549C11.5091 19.2216 11.6151 19.4774 11.8037 19.666C11.9923 19.8547 12.2482 19.9606 12.5149 19.9606H15.5322V27.9603C12.6969 27.7015 10.0706 26.3596 8.19941 24.2138C6.32825 22.0679 5.35637 19.2833 5.48591 16.4392C5.61546 13.595 6.83647 10.9103 8.89495 8.94346C10.9534 6.9766 13.6909 5.87902 16.538 5.87902C19.3851 5.87902 22.1226 6.9766 24.1811 8.94346C26.2396 10.9103 27.4606 13.595 27.5901 16.4392C27.7197 19.2833 26.7478 22.0679 24.8766 24.2138C23.0055 26.3596 20.3791 27.7015 17.5438 27.9603Z" fill="#3C3F43"/>
</svg>
