<svg width="23" height="23" viewBox="0 0 23 23" fill="none" xmlns="http://www.w3.org/2000/svg">
<g clip-path="url(#clip0_882_15596)">
<rect width="21.6336" height="21.6336" transform="translate(0.978516 0.78125)" fill="white"/>
<path d="M22.1619 11.6612C22.1619 5.93616 17.5208 1.29511 11.7958 1.29511C6.07074 1.29511 1.42969 5.93616 1.42969 11.6612C1.42969 16.8352 5.22042 21.1237 10.1761 21.9014V14.6577H7.54406V11.6612H10.1761V9.37742C10.1761 6.77942 11.7237 5.34436 14.0915 5.34436C15.2256 5.34436 16.4119 5.54683 16.4119 5.54683V8.09786H15.1048C13.8171 8.09786 13.4155 8.89692 13.4155 9.71669V11.6612H16.2905L15.8309 14.6577H13.4155V21.9014C18.3711 21.1237 22.1619 16.8352 22.1619 11.6612Z" fill="#1877F2"/>
</g>
<defs>
<clipPath id="clip0_882_15596">
<rect width="21.6336" height="21.6336" fill="white" transform="translate(0.978516 0.78125)"/>
</clipPath>
</defs>
</svg>
