<svg width="22" height="23" viewBox="0 0 22 23" fill="none" xmlns="http://www.w3.org/2000/svg">
<rect width="21.6336" height="21.6336" transform="translate(0.197266 0.622559)" fill="white"/>
<path fill-rule="evenodd" clip-rule="evenodd" d="M20.9661 11.675C20.9661 10.94 20.9001 10.2332 20.7776 9.55469H11.0146V13.5645H16.5935C16.3532 14.8602 15.6228 15.9581 14.525 16.6932V19.2941H17.8751C19.8353 17.4895 20.9661 14.832 20.9661 11.675Z" fill="#4285F4"/>
<path fill-rule="evenodd" clip-rule="evenodd" d="M11.0135 21.8052C13.8124 21.8052 16.1589 20.877 17.874 19.2938L14.5239 16.6929C13.5956 17.3148 12.4082 17.6823 11.0135 17.6823C8.31362 17.6823 6.02837 15.8589 5.21322 13.4087H1.75V16.0945C3.45569 19.4823 6.96132 21.8052 11.0135 21.8052Z" fill="#34A853"/>
<path fill-rule="evenodd" clip-rule="evenodd" d="M5.21423 13.4091C5.00691 12.7871 4.88911 12.1227 4.88911 11.4395C4.88911 10.7563 5.00691 10.0919 5.21423 9.46994V6.78418H1.75101C1.04895 8.1836 0.648438 9.76679 0.648438 11.4395C0.648438 13.1122 1.04895 14.6954 1.75101 16.0948L5.21423 13.4091Z" fill="#FBBC05"/>
<path fill-rule="evenodd" clip-rule="evenodd" d="M11.0135 5.19612C12.5354 5.19612 13.9019 5.71914 14.9762 6.74632L17.9494 3.77314C16.1542 2.10043 13.8077 1.07324 11.0135 1.07324C6.96132 1.07324 3.45569 3.39619 1.75 6.78402L5.21322 9.46978C6.02837 7.01961 8.31362 5.19612 11.0135 5.19612Z" fill="#EA4335"/>
</svg>
