<svg width="32" height="31" viewBox="0 0 32 31" fill="none" xmlns="http://www.w3.org/2000/svg">
<path d="M9.18161 22.5908C12.0059 22.5908 14.2954 20.3013 14.2954 17.477C14.2954 14.6528 12.0059 12.3633 9.18161 12.3633C6.35737 12.3633 4.06787 14.6528 4.06787 17.477C4.06787 20.3013 6.35737 22.5908 9.18161 22.5908Z" stroke="#3C3F43" stroke-width="2" stroke-linecap="round" stroke-linejoin="round"/>
<path d="M22.8178 11.2275C25.6421 11.2275 27.9316 8.93798 27.9316 6.11374C27.9316 3.2895 25.6421 1 22.8178 1C19.9936 1 17.7041 3.2895 17.7041 6.11374C17.7041 8.93798 19.9936 11.2275 22.8178 11.2275Z" stroke="#3C3F43" stroke-width="2" stroke-linecap="round" stroke-linejoin="round"/>
<path d="M15.4316 18.0459C15.4316 15.7731 17.1361 11.2275 22.8181 11.2275C28.5 11.2275 30.2046 15.7731 30.2046 18.0459M1.79492 29.4097C1.79492 27.137 3.4995 22.5914 9.18144 22.5914C14.8634 22.5914 16.5679 27.137 16.5679 29.4097" stroke="#3C3F43" stroke-width="2" stroke-linecap="round" stroke-linejoin="round"/>
</svg>
