<svg width="37" height="37" viewBox="0 0 37 37" fill="none" xmlns="http://www.w3.org/2000/svg">
<path d="M32.6697 20.5495C32.2841 20.2523 31.835 20.0484 31.3576 19.9536C30.8802 19.8588 30.3874 19.8757 29.9176 20.003L29.3094 20.1438C32.3712 17.2959 33.9197 14.4733 33.9197 11.7254C33.9197 8.15354 31.0494 5.24646 27.5202 5.24646C26.5249 5.24022 25.5418 5.46609 24.6489 5.90616C23.7561 6.34622 22.978 6.98838 22.3763 7.78171C21.7747 6.98838 20.9966 6.34622 20.1037 5.90616C19.2109 5.46609 18.2278 5.24022 17.2325 5.24646C13.7033 5.24646 10.8329 8.15354 10.8329 11.7254C10.8329 13.3282 11.3439 14.8931 12.4223 16.5649C11.5384 16.7013 10.7214 17.1174 10.0911 17.7522L6.82372 21.0213H2.66809C2.1454 21.0213 1.64411 21.229 1.27451 21.5988C0.904905 21.9686 0.697266 22.4702 0.697266 22.9932V28.627C0.697266 29.15 0.904905 29.6515 1.27451 30.0213C1.64411 30.3911 2.1454 30.5989 2.66809 30.5989H17.3085C17.3778 30.5989 17.4468 30.5904 17.514 30.5735L26.5235 28.32C26.5662 28.3087 26.608 28.2945 26.6488 28.2777L32.1136 25.9509L32.1601 25.9298C32.6433 25.6884 33.0571 25.3279 33.3625 24.8822C33.6679 24.4366 33.855 23.9204 33.9059 23.3825C33.9569 22.8445 33.8702 22.3025 33.6539 21.8073C33.4376 21.3122 33.0989 20.8803 32.6697 20.5523V20.5495ZM17.2325 6.93662C18.1614 6.92422 19.0729 7.18941 19.8503 7.69826C20.6277 8.20711 21.2357 8.93646 21.5965 9.793C21.6601 9.94799 21.7683 10.0806 21.9075 10.1739C22.0466 10.2672 22.2103 10.317 22.3777 10.317C22.5452 10.317 22.7089 10.2672 22.848 10.1739C22.9871 10.0806 23.0954 9.94799 23.159 9.793C23.5198 8.93646 24.1278 8.20711 24.9052 7.69826C25.6826 7.18941 26.5941 6.92422 27.523 6.93662C30.0738 6.93662 32.2305 9.12961 32.2305 11.7254C32.2305 14.5762 29.9528 17.7818 25.6423 20.9861L23.549 21.4678C23.7577 20.9136 23.8291 20.317 23.7568 19.7292C23.6846 19.1414 23.4709 18.5799 23.1341 18.0928C22.7974 17.6058 22.3476 17.2077 21.8233 16.9328C21.299 16.6578 20.7159 16.5142 20.124 16.5142H14.4466C13.136 14.7776 12.5222 13.248 12.5222 11.7254C12.5222 9.12961 14.6789 6.93662 17.2325 6.93662ZM2.38654 28.627V22.9932C2.38654 22.9184 2.41621 22.8468 2.46901 22.794C2.52181 22.7411 2.59342 22.7115 2.66809 22.7115H6.32819V28.9087H2.66809C2.59342 28.9087 2.52181 28.879 2.46901 28.8262C2.41621 28.7734 2.38654 28.7017 2.38654 28.627ZM31.4252 24.4016L26.0477 26.6932L17.2043 28.9087H8.01747V22.2171L11.2848 18.9466C11.5196 18.7105 11.7989 18.5233 12.1065 18.3959C12.4141 18.2684 12.7439 18.2034 13.0769 18.2044H20.124C20.6467 18.2044 21.1479 18.4121 21.5175 18.7819C21.8872 19.1517 22.0948 19.6532 22.0948 20.1762C22.0948 20.6992 21.8872 21.2007 21.5175 21.5705C21.1479 21.9403 20.6467 22.1481 20.124 22.1481H16.1823C15.9583 22.1481 15.7435 22.2371 15.5851 22.3956C15.4267 22.5541 15.3377 22.769 15.3377 22.9932C15.3377 23.2173 15.4267 23.4322 15.5851 23.5907C15.7435 23.7492 15.9583 23.8382 16.1823 23.8382H20.6871C20.7505 23.8383 20.8138 23.8312 20.8757 23.8171L30.3075 21.6467L30.3413 21.6382C30.6963 21.5414 31.0745 21.5792 31.4033 21.7444C31.7322 21.9096 31.9884 22.1905 32.1228 22.5332C32.2572 22.8759 32.2604 23.2562 32.1316 23.6011C32.0029 23.9459 31.7513 24.231 31.4252 24.4016Z" fill="currentColor"/>
</svg>
