<svg width="32" height="33" viewBox="0 0 32 33" fill="none" xmlns="http://www.w3.org/2000/svg">
<path opacity="0.2" d="M27.1698 17.0048L15.9998 28.3348L4.82985 17.0048C3.65759 15.8326 2.99902 14.2426 2.99902 12.5848C2.99902 10.927 3.65759 9.33707 4.82985 8.16481C6.0021 6.99255 7.59203 6.33398 9.24985 6.33398C10.9077 6.33398 12.4976 6.99255 13.6698 8.16481L15.9998 10.3348L18.3298 8.16481C18.9103 7.58437 19.5994 7.12393 20.3578 6.8098C21.1161 6.49567 21.929 6.33398 22.7498 6.33398C23.5707 6.33398 24.3835 6.49567 25.1419 6.8098C25.9003 7.12393 26.5894 7.58437 27.1698 8.16481C27.7503 8.74525 28.2107 9.43434 28.5249 10.1927C28.839 10.9511 29.0007 11.7639 29.0007 12.5848C29.0007 13.4057 28.839 14.2185 28.5249 14.9769C28.2107 15.7353 27.7503 16.4244 27.1698 17.0048Z" fill="#06B0BA"/>
<path d="M27.8748 7.45998C26.5162 6.1048 24.6763 5.34271 22.7574 5.34037C20.8385 5.33803 18.9967 6.09562 17.6348 7.44748L15.9998 8.96623L14.3636 7.44248C13.002 6.08474 11.1569 5.32348 9.23404 5.32618C7.3112 5.32887 5.46819 6.0953 4.11045 7.45686C2.75271 8.81841 1.99145 10.6636 1.99415 12.5864C1.99684 14.5092 2.76327 16.3522 4.12483 17.71L15.2936 29.0425C15.3866 29.137 15.4975 29.212 15.6199 29.2632C15.7422 29.3144 15.8735 29.3408 16.0061 29.3408C16.1387 29.3408 16.27 29.3144 16.3923 29.2632C16.5146 29.212 16.6255 29.137 16.7186 29.0425L27.8748 17.71C29.2335 16.3505 29.9968 14.5071 29.9968 12.585C29.9968 10.6629 29.2335 8.8195 27.8748 7.45998ZM26.4561 16.305L15.9998 26.91L5.53733 16.295C4.55271 15.3104 3.99956 13.9749 3.99956 12.5825C3.99956 11.19 4.55271 9.8546 5.53733 8.86998C6.52194 7.88537 7.85737 7.33222 9.24983 7.33222C10.6423 7.33222 11.9777 7.88537 12.9623 8.86998L12.9873 8.89498L15.3186 11.0637C15.5036 11.2359 15.747 11.3317 15.9998 11.3317C16.2526 11.3317 16.496 11.2359 16.6811 11.0637L19.0123 8.89498L19.0373 8.86998C20.0226 7.88603 21.3584 7.33378 22.7509 7.33472C24.1433 7.33565 25.4784 7.8897 26.4623 8.87498C27.4463 9.86026 27.9985 11.1961 27.9976 12.5885C27.9967 13.981 27.4426 15.316 26.4573 16.3L26.4561 16.305Z" fill="#06B0BA"/>
</svg>
