<svg width="33" height="34" viewBox="0 0 33 34" fill="none" xmlns="http://www.w3.org/2000/svg">
<path d="M16.7236 10.9086C15.53 10.9086 14.3633 11.2625 13.3709 11.9256C12.3785 12.5887 11.605 13.5312 11.1483 14.6339C10.6915 15.7366 10.572 16.95 10.8048 18.1206C11.0377 19.2912 11.6124 20.3665 12.4564 21.2105C13.3004 22.0544 14.3756 22.6292 15.5463 22.862C16.7169 23.0949 17.9302 22.9754 19.0329 22.5186C20.1356 22.0619 21.0781 21.2884 21.7412 20.296C22.4043 19.3036 22.7582 18.1368 22.7582 16.9433C22.7566 15.3433 22.1202 13.8093 20.9889 12.678C19.8575 11.5466 18.3236 10.9103 16.7236 10.9086ZM16.7236 20.9664C15.9279 20.9664 15.15 20.7305 14.4884 20.2884C13.8268 19.8463 13.3112 19.218 13.0067 18.4829C12.7022 17.7477 12.6225 16.9388 12.7778 16.1584C12.933 15.378 13.3162 14.6612 13.8788 14.0985C14.4414 13.5359 15.1583 13.1527 15.9387 12.9975C16.7191 12.8422 17.528 12.9219 18.2631 13.2264C18.9983 13.5309 19.6266 14.0466 20.0687 14.7082C20.5107 15.3698 20.7467 16.1476 20.7467 16.9433C20.7467 18.0103 20.3228 19.0336 19.5683 19.7881C18.8139 20.5425 17.7906 20.9664 16.7236 20.9664ZM22.7582 3.86816H10.6889C8.82226 3.87016 7.03265 4.61256 5.71274 5.93247C4.39284 7.25238 3.65043 9.04199 3.64844 10.9086V22.978C3.65043 24.8446 4.39284 26.6342 5.71274 27.9541C7.03265 29.274 8.82226 30.0164 10.6889 30.0184H22.7582C24.6249 30.0164 26.4145 29.274 27.7344 27.9541C29.0543 26.6342 29.7967 24.8446 29.7987 22.978V10.9086C29.7967 9.04199 29.0543 7.25238 27.7344 5.93247C26.4145 4.61256 24.6249 3.87016 22.7582 3.86816ZM27.7871 22.978C27.7871 24.3117 27.2573 25.5908 26.3142 26.5339C25.3711 27.477 24.092 28.0069 22.7582 28.0069H10.6889C9.35515 28.0069 8.07603 27.477 7.13293 26.5339C6.18982 25.5908 5.66 24.3117 5.66 22.978V10.9086C5.66 9.57487 6.18982 8.29575 7.13293 7.35265C8.07603 6.40955 9.35515 5.87972 10.6889 5.87972H22.7582C24.092 5.87972 25.3711 6.40955 26.3142 7.35265C27.2573 8.29575 27.7871 9.57487 27.7871 10.9086V22.978ZM24.7698 10.4057C24.7698 10.7041 24.6813 10.9958 24.5155 11.2439C24.3498 11.492 24.1141 11.6854 23.8385 11.7996C23.5628 11.9137 23.2595 11.9436 22.9668 11.8854C22.6742 11.8272 22.4053 11.6835 22.1943 11.4725C21.9834 11.2615 21.8397 10.9927 21.7815 10.7001C21.7232 10.4074 21.7531 10.1041 21.8673 9.82839C21.9815 9.55271 22.1749 9.31709 22.423 9.15132C22.6711 8.98554 22.9627 8.89706 23.2611 8.89706C23.6613 8.89706 24.045 9.05601 24.3279 9.33894C24.6109 9.62187 24.7698 10.0056 24.7698 10.4057Z" fill="#3C3F43"/>
</svg>
