<svg width="33" height="34" viewBox="0 0 33 34" fill="none" xmlns="http://www.w3.org/2000/svg">
<path d="M27.9707 3.86816H5.84359C5.31009 3.86816 4.79844 4.0801 4.4212 4.45734C4.04396 4.83458 3.83203 5.34622 3.83203 5.87972V28.0069C3.83203 28.5404 4.04396 29.052 4.4212 29.4292C4.79844 29.8065 5.31009 30.0184 5.84359 30.0184H27.9707C28.5042 30.0184 29.0159 29.8065 29.3931 29.4292C29.7704 29.052 29.9823 28.5404 29.9823 28.0069V5.87972C29.9823 5.34622 29.7704 4.83458 29.3931 4.45734C29.0159 4.0801 28.5042 3.86816 27.9707 3.86816ZM27.9707 28.0069H5.84359V5.87972H27.9707V28.0069ZM12.884 14.9317V22.978C12.884 23.2447 12.7781 23.5005 12.5895 23.6892C12.4008 23.8778 12.145 23.9837 11.8783 23.9837C11.6115 23.9837 11.3557 23.8778 11.1671 23.6892C10.9785 23.5005 10.8725 23.2447 10.8725 22.978V14.9317C10.8725 14.665 10.9785 14.4092 11.1671 14.2205C11.3557 14.0319 11.6115 13.926 11.8783 13.926C12.145 13.926 12.4008 14.0319 12.5895 14.2205C12.7781 14.4092 12.884 14.665 12.884 14.9317ZM23.9476 18.452V22.978C23.9476 23.2447 23.8416 23.5005 23.653 23.6892C23.4644 23.8778 23.2086 23.9837 22.9418 23.9837C22.6751 23.9837 22.4193 23.8778 22.2306 23.6892C22.042 23.5005 21.9361 23.2447 21.9361 22.978V18.452C21.9361 17.7851 21.6711 17.1455 21.1996 16.674C20.728 16.2024 20.0885 15.9375 19.4216 15.9375C18.7547 15.9375 18.1152 16.2024 17.6436 16.674C17.1721 17.1455 16.9072 17.7851 16.9072 18.452V22.978C16.9072 23.2447 16.8012 23.5005 16.6126 23.6892C16.424 23.8778 16.1681 23.9837 15.9014 23.9837C15.6346 23.9837 15.3788 23.8778 15.1902 23.6892C15.0016 23.5005 14.8956 23.2447 14.8956 22.978V14.9317C14.8968 14.6854 14.9885 14.448 15.1531 14.2648C15.3177 14.0815 15.5439 13.965 15.7887 13.9374C16.0335 13.9098 16.2799 13.973 16.4812 14.115C16.6825 14.2571 16.8247 14.4681 16.8808 14.7079C17.5612 14.2464 18.3544 13.9789 19.1754 13.9342C19.9963 13.8894 20.814 14.0692 21.5405 14.4541C22.267 14.839 22.8749 15.4145 23.299 16.1189C23.7231 16.8232 23.9473 17.6298 23.9476 18.452ZM13.3869 11.4115C13.3869 11.7099 13.2985 12.0016 13.1327 12.2497C12.9669 12.4978 12.7313 12.6911 12.4556 12.8053C12.1799 12.9195 11.8766 12.9494 11.5839 12.8912C11.2913 12.833 11.0225 12.6893 10.8115 12.4783C10.6005 12.2673 10.4568 11.9985 10.3986 11.7058C10.3404 11.4132 10.3702 11.1098 10.4844 10.8342C10.5986 10.5585 10.792 10.3229 11.0401 10.1571C11.2882 9.99132 11.5799 9.90284 11.8783 9.90284C12.2784 9.90284 12.6621 10.0618 12.9451 10.3447C13.228 10.6276 13.3869 11.0114 13.3869 11.4115Z" fill="#3C3F43"/>
</svg>
