<svg width="28" height="28" viewBox="0 0 28 28" fill="none" xmlns="http://www.w3.org/2000/svg">
<path d="M26.4801 6.71415V13.0789C26.4801 14.6639 25.956 15.9993 25.02 16.9228C24.0965 17.8588 22.7611 18.3829 21.1761 18.3829V20.6418C21.1761 21.4904 20.2277 22.0021 19.5288 21.5279L18.3182 20.7292C18.4305 20.3423 18.4805 19.918 18.4805 19.4687V14.3893C18.4805 11.8434 16.7832 10.1461 14.2373 10.1461H5.76335C5.58863 10.1461 5.4264 10.1586 5.26416 10.1711V6.71415C5.26416 3.53175 7.38576 1.41016 10.5682 1.41016H21.1761C24.3585 1.41016 26.4801 3.53175 26.4801 6.71415Z" stroke="#3C3F43" stroke-width="2" stroke-miterlimit="10" stroke-linecap="round" stroke-linejoin="round"/>
<path d="M18.4803 14.3897V19.469C18.4803 19.9183 18.4304 20.3426 18.3181 20.7295C17.8563 22.5641 16.3338 23.7122 14.2371 23.7122H10.8426L7.07361 26.2207C6.51201 26.6076 5.7632 26.1957 5.7632 25.5218V23.7122C4.49024 23.7122 3.42946 23.2879 2.69314 22.5516C1.94434 21.8028 1.52002 20.742 1.52002 19.469V14.3897C1.52002 12.0185 2.99266 10.3836 5.26401 10.1715C5.42625 10.159 5.58848 10.1465 5.7632 10.1465H14.2371C16.783 10.1465 18.4803 11.8438 18.4803 14.3897Z" stroke="#3C3F43" stroke-width="2" stroke-miterlimit="10" stroke-linecap="round" stroke-linejoin="round"/>
</svg>
