<?xml version="1.0" encoding="utf-8"?>
<!-- Generator: Adobe Illustrator 26.0.1, SVG Export Plug-In . SVG Version: 6.00 Build 0)  -->
<svg version="1.1" id="Layer_1" xmlns="http://www.w3.org/2000/svg" xmlns:xlink="http://www.w3.org/1999/xlink" x="0px" y="0px"
	 viewBox="0 0 27 23" style="enable-background:new 0 0 27 23;" xml:space="preserve">
<style type="text/css">
	.st0{fill:#969696;stroke:#969696;stroke-width:0.25;stroke-miterlimit:10;}
</style>
<path class="st0" d="M0.8,8.5c0.1-0.4,0.3-0.7,0.6-0.9c0.3-0.2,0.7-0.4,1.1-0.4c0.4,0,0.8,0.1,1.1,0.3c0.3,0.2,0.5,0.5,0.7,0.9
	c0.3,1,0.6,2,0.9,2.9c0,0.1,0.1,0.2,0.1,0.3c0.8-0.3,1.5,0,2.2,0.5c1.1,0.9,2.1,1.8,3.2,2.6c0.5,0.4,0.8,0.9,1,1.5
	c0.4,1.4,0.8,2.9,1.2,4.3c0,0.1,0,0.1,0,0.2c0,0.1,0,0.1-0.1,0.2c0,0.1-0.1,0.1-0.1,0.2c-0.1,0-0.1,0.1-0.2,0.1c-0.1,0-0.1,0-0.2,0
	c-0.1,0-0.1,0-0.2-0.1c-0.1,0-0.1-0.1-0.1-0.2s-0.1-0.1-0.1-0.2c-0.3-1.2-0.6-2.4-1-3.6c-0.1-0.2-0.2-0.5-0.2-0.7
	c-0.1-0.3-0.3-0.6-0.6-0.9c-1.1-0.9-2.3-1.9-3.4-2.8c-0.1-0.1-0.3-0.2-0.5-0.2c-0.2-0.1-0.4,0-0.6,0.1c-0.2,0.1-0.3,0.3-0.4,0.5
	c0,0.1,0,0.2,0.1,0.3c0.1,0.1,0.2,0.2,0.3,0.3c0.9,0.9,1.9,1.9,2.8,2.8c0.1,0.1,0.1,0.1,0.2,0.2c0,0.1,0.1,0.2,0,0.3
	c0,0.1-0.1,0.2-0.1,0.3c-0.1,0.1-0.1,0.1-0.2,0.2c-0.1,0-0.2,0-0.3,0c-0.1,0-0.2-0.1-0.3-0.2c-0.8-0.8-1.6-1.6-2.4-2.4
	c-0.2-0.2-0.4-0.4-0.6-0.7c-0.5-0.5-0.6-1.1-0.3-1.8c0-0.1,0-0.2,0-0.2C4,11.2,3.6,10,3.3,8.9C3.1,8.3,2.7,8.1,2.2,8.3
	C2,8.3,1.9,8.4,1.9,8.5C1.8,8.6,1.8,8.8,1.8,8.9c0.3,1.4,0.6,2.8,1,4.2c0.2,0.8,0.6,1.5,1.2,2c1.6,1.6,3.1,3.2,4.7,4.8
	c0.3,0.3,0.4,0.6,0.4,1c0,0.3,0,0.5,0,0.8c0,0.1,0,0.1,0,0.2C9,21.9,9,22,9,22.1c0,0.1-0.1,0.1-0.2,0.1c-0.1,0-0.1,0-0.2,0
	c-0.1,0-0.1,0-0.2,0c-0.1,0-0.1-0.1-0.2-0.1c0-0.1-0.1-0.1-0.1-0.2c0-0.1,0-0.1,0-0.2c0.1-0.6-0.2-1-0.6-1.4c-1.5-1.5-2.9-3-4.3-4.4
	C2.4,15,1.9,14,1.7,12.9c-0.3-1.2-0.5-2.4-0.8-3.6c0-0.1-0.1-0.2-0.1-0.3V8.5z"/>
<path class="st0" d="M21.6,11.7c0.3-0.8,0.5-1.6,0.7-2.4c0.1-0.3,0.2-0.6,0.3-0.9c0.4-1.1,1.6-1.5,2.6-1c0.3,0.2,0.5,0.4,0.7,0.7
	c0.1,0.3,0.2,0.7,0.1,1c-0.3,1.3-0.6,2.7-0.9,4c-0.2,0.9-0.7,1.8-1.3,2.5c-1.6,1.6-3.2,3.3-4.8,4.9c-0.1,0.1-0.2,0.2-0.2,0.3
	c0,0.1-0.1,0.2-0.1,0.3c0,0.2,0,0.3,0,0.5c0,0.1,0,0.1,0,0.2c0,0.1-0.1,0.1-0.1,0.2c0,0-0.1,0.1-0.2,0.1c-0.1,0-0.1,0-0.2,0
	c-0.1,0-0.1,0-0.2,0s-0.1-0.1-0.2-0.1c0,0-0.1-0.1-0.1-0.2c0-0.1,0-0.1,0-0.2c0-0.3,0-0.6,0-0.9c0-0.3,0.1-0.6,0.4-0.8
	c1.6-1.6,3.1-3.2,4.7-4.8c0.7-0.7,1.1-1.5,1.4-2.4c0.3-1.2,0.5-2.3,0.8-3.5c0-0.1,0-0.2,0.1-0.3c0.1-0.4,0-0.6-0.2-0.7
	c-0.1-0.1-0.3-0.1-0.5-0.1c-0.2,0-0.3,0.1-0.4,0.2c-0.1,0.1-0.3,0.3-0.3,0.5c-0.4,1.2-0.7,2.3-1.1,3.5c0,0.1,0,0.2,0,0.3
	c0.3,0.6,0.2,1.2-0.3,1.7c-0.3,0.4-0.7,0.7-1.1,1.1l-2,2c-0.1,0.1-0.2,0.1-0.3,0.2c-0.1,0-0.2,0-0.3,0c-0.1,0-0.2-0.1-0.2-0.2
	c-0.1-0.1-0.1-0.2-0.1-0.3c0-0.2,0.1-0.3,0.2-0.5c0.9-0.9,1.8-1.8,2.7-2.8l0.2-0.2c0.3-0.3,0.3-0.5,0.2-0.7c-0.3-0.4-0.6-0.5-1-0.4
	c-0.1,0-0.3,0.1-0.4,0.2c-1.1,0.9-2.3,1.9-3.4,2.8c-0.3,0.3-0.5,0.6-0.6,1c-0.4,1.4-0.8,2.7-1.1,4.1c0,0.1,0,0.1,0,0.2
	c0,0.1,0,0.1-0.1,0.2c0,0.1-0.1,0.1-0.1,0.1c-0.1,0-0.1,0.1-0.2,0.1c-0.1,0-0.1,0-0.2,0c-0.1,0-0.1,0-0.2-0.1
	c-0.1,0-0.1-0.1-0.1-0.2s-0.1-0.1-0.1-0.2c0-0.1,0-0.1,0-0.2c0.1-0.4,0.2-0.8,0.3-1.2c0.3-1.1,0.6-2.1,0.9-3.1
	c0.2-0.6,0.5-1.1,1-1.5c1.1-0.9,2.2-1.9,3.4-2.8c0.3-0.2,0.6-0.4,0.9-0.4C20.9,11.6,21.3,11.6,21.6,11.7z"/>
<path class="st0" d="M13.4,2.3c0.4-0.5,0.9-0.9,1.4-1.1c0.6-0.3,1.2-0.4,1.8-0.3c1.8,0.1,3.5,1.3,3.9,3c0.4,1.4,0,2.8-1,3.8
	c-1.9,1.9-3.8,3.8-5.7,5.8c-0.3,0.3-0.6,0.3-0.8,0c-1.9-1.9-3.8-3.8-5.6-5.7C5.9,6.2,5.8,3.8,7.1,2.3c1.4-1.6,3.9-1.9,5.6-0.7
	C12.9,1.8,13.2,2,13.4,2.3z M13.4,12.3c0.2-0.2,0.3-0.3,0.4-0.5c1-1,2-1.9,3-2.9c0.9-0.8,1.7-1.7,2.3-2.7c0.8-1.2,0.4-2.7-0.5-3.6
	c-1.2-1.1-3.1-1.3-4.3,0.1C14.2,3,14,3.1,13.8,3.3c-0.3,0.3-0.5,0.3-0.8,0c-0.2-0.1-0.3-0.3-0.5-0.5c-0.3-0.4-0.7-0.7-1.2-0.9
	c-0.5-0.2-1-0.2-1.5-0.2C8.6,2,7.8,2.7,7.4,3.9C7,5,7.2,6.1,8,7c1.7,1.7,3.5,3.5,5.2,5.2C13.3,12.2,13.3,12.3,13.4,12.3L13.4,12.3z"
	/>
</svg>
