<svg width="30" height="31" viewBox="0 0 30 31" fill="none" xmlns="http://www.w3.org/2000/svg">
<path d="M25.3125 0.410156H4.6875C3.4443 0.410156 2.25201 0.904017 1.37294 1.78309C0.49386 2.66217 0 3.85445 0 5.09766V20.0977C0 21.3409 0.49386 22.5331 1.37294 23.4122C2.25201 24.2913 3.4443 24.7852 4.6875 24.7852H5.625V29.4727C5.62503 29.6582 5.6801 29.8395 5.78323 29.9937C5.88637 30.1479 6.03293 30.268 6.20438 30.3389C6.31777 30.3864 6.43956 30.4107 6.5625 30.4102C6.6857 30.4104 6.80773 30.3863 6.92162 30.3393C7.03551 30.2924 7.13903 30.2234 7.22625 30.1364L12.5756 24.7852H25.3125C26.5557 24.7852 27.748 24.2913 28.6271 23.4122C29.5061 22.5331 30 21.3409 30 20.0977V5.09766C30 3.85445 29.5061 2.66217 28.6271 1.78309C27.748 0.904017 26.5557 0.410156 25.3125 0.410156ZM28.125 20.0977C28.125 20.8436 27.8287 21.559 27.3012 22.0864C26.7738 22.6138 26.0584 22.9102 25.3125 22.9102H12.1875C12.0643 22.9099 11.9423 22.934 11.8284 22.981C11.7145 23.028 11.611 23.0969 11.5238 23.1839L7.5 27.2095V23.8477C7.5 23.599 7.40123 23.3606 7.22542 23.1847C7.0496 23.0089 6.81114 22.9102 6.5625 22.9102H4.6875C3.94158 22.9102 3.22621 22.6138 2.69876 22.0864C2.17132 21.559 1.875 20.8436 1.875 20.0977V5.09766C1.875 4.35174 2.17132 3.63637 2.69876 3.10892C3.22621 2.58147 3.94158 2.28516 4.6875 2.28516H25.3125C26.0584 2.28516 26.7738 2.58147 27.3012 3.10892C27.8287 3.63637 28.125 4.35174 28.125 5.09766V20.0977ZM24.3038 12.9558C24.2557 13.0697 24.1863 13.1735 24.0994 13.2614L20.3494 17.0114C20.1737 17.1867 19.9357 17.2851 19.6875 17.2852C19.5643 17.2854 19.4423 17.2613 19.3284 17.2143C19.2145 17.1674 19.111 17.0984 19.0238 17.0114C18.9364 16.9243 18.8672 16.8209 18.8199 16.707C18.7727 16.5931 18.7483 16.471 18.7483 16.3477C18.7483 16.2243 18.7727 16.1022 18.8199 15.9883C18.8672 15.8745 18.9364 15.771 19.0238 15.6839L21.1744 13.5352H12.1875C11.4416 13.5352 10.7262 13.8315 10.1988 14.3589C9.67132 14.8864 9.375 15.6017 9.375 16.3477C9.375 16.5963 9.27623 16.8348 9.10042 17.0106C8.9246 17.1864 8.68614 17.2852 8.4375 17.2852C8.18886 17.2852 7.9504 17.1864 7.77459 17.0106C7.59877 16.8348 7.5 16.5963 7.5 16.3477C7.5 15.1045 7.99386 13.9122 8.87294 13.0331C9.75202 12.154 10.9443 11.6602 12.1875 11.6602H21.1744L19.0238 9.51141C18.9364 9.42432 18.8672 9.32087 18.8199 9.20697C18.7727 9.09307 18.7483 8.97097 18.7483 8.84766C18.7483 8.72434 18.7727 8.60224 18.8199 8.48835C18.8672 8.37445 18.9364 8.27099 19.0238 8.18391C19.1108 8.0966 19.2143 8.02733 19.3282 7.98007C19.4421 7.93281 19.5642 7.90848 19.6875 7.90848C19.8108 7.90848 19.9329 7.93281 20.0468 7.98007C20.1607 8.02733 20.2642 8.0966 20.3513 8.18391L24.1013 11.9339C24.1882 12.0218 24.2576 12.1256 24.3056 12.2395C24.3988 12.4693 24.3981 12.7265 24.3038 12.9558Z" fill="#3C3F43"/>
</svg>
