<svg width="23" height="22" viewBox="0 0 23 22" fill="none" xmlns="http://www.w3.org/2000/svg">
<path d="M3.88969 11.8151L7.21209 7.75865C7.55141 7.32238 7.72108 7.10422 7.81 6.85958C7.88867 6.6431 7.92121 6.41256 7.90556 6.18276C7.88785 5.92306 7.78522 5.66647 7.57996 5.1533L6.79696 3.19582C6.4932 2.4364 6.3413 2.05668 6.07929 1.80779C5.8484 1.58847 5.55908 1.44054 5.2461 1.38177C4.89092 1.31508 4.49417 1.41427 3.70065 1.61265L1.5332 2.15459C1.5332 13.1718 9.24491 20.8838 20.2625 20.8838L20.8041 18.7161C21.0025 17.9225 21.1016 17.5258 21.035 17.1706C20.9762 16.8577 20.8283 16.5683 20.609 16.3375C20.3601 16.0754 19.9803 15.9236 19.2209 15.6198L17.4741 14.921C16.8887 14.6869 16.5959 14.5698 16.3041 14.5608C16.0461 14.5529 15.7899 14.6055 15.5559 14.7143C15.2912 14.8376 15.0683 15.0605 14.6224 15.5063L11.1963 18.8403" stroke="black" stroke-width="2" stroke-linecap="round" stroke-linejoin="round"/>
</svg>
