<svg width="34" height="35" viewBox="0 0 34 35" fill="none" xmlns="http://www.w3.org/2000/svg">
<path d="M8.94891 12.7772C9.36017 12.0816 9.85827 11.4411 10.4312 10.8712L5.56831 5.54297C4.33827 6.71575 3.29731 8.07179 2.48242 9.56293L8.94891 12.7772Z" fill="#5FBB46"/>
<path d="M20.8594 9.00867C21.5915 9.3418 22.2764 9.77002 22.8964 10.2822L27.7766 4.96272C26.4808 3.84493 25.0185 2.93588 23.4425 2.26831L20.8594 9.00867Z" fill="#D19F2A"/>
<path d="M32.0242 10.6113L25.5664 13.8256C25.8778 14.5572 26.0934 15.326 26.2078 16.1128L33.4025 15.4283C33.1925 13.7616 32.7277 12.137 32.0242 10.6113Z" fill="#C22033"/>
<path d="M25.0982 12.8984L31.5647 9.67548C30.7641 8.19638 29.7441 6.8469 28.5395 5.67285L23.668 10.9837C24.2267 11.5564 24.7076 12.2002 25.0982 12.8984Z" fill="#2D9A47"/>
<path d="M7.65751 17.4815C7.65751 17.3342 7.65751 17.1956 7.65751 17.0483L0.462891 16.4072C0.462891 16.7624 0.462891 17.1176 0.462891 17.4815C0.462651 18.8281 0.62858 20.1695 0.95696 21.4755L7.89154 19.4915C7.74147 18.832 7.66589 18.1578 7.66618 17.4815" fill="#48773C"/>
<path d="M24.1985 23.3901C23.6942 24.0114 23.1114 24.5647 22.4648 25.0362L26.2615 31.1788C27.6676 30.2193 28.9187 29.0506 29.9715 27.7133L24.1985 23.3901Z" fill="#FDB714"/>
<path d="M26.3105 17.4819C26.3136 18.1493 26.2409 18.8149 26.0938 19.4659L33.0283 21.4586C33.3532 20.158 33.5163 18.8224 33.5138 17.4819C33.5138 17.144 33.5138 16.8061 33.5138 16.4683L26.3278 17.144C26.3278 17.2567 26.3278 17.3693 26.3278 17.4819" fill="#EF412A"/>
<path d="M9.89352 23.5292L4.14648 27.861C5.21502 29.1821 6.48101 30.3305 7.89981 31.2658L11.6965 25.1233C11.0282 24.6631 10.4222 24.1186 9.89352 23.5032" fill="#F99D25"/>
<path d="M7.77863 16.0089C7.90793 15.2119 8.13802 14.4346 8.4634 13.6957L2.00559 10.4814C1.27804 12.0286 0.798315 13.6804 0.583984 15.3764L7.77863 16.0089Z" fill="#007DBB"/>
<path d="M25.3587 31.7338L21.562 25.5999C20.8651 25.9816 20.1223 26.2727 19.3516 26.4662L20.6952 33.5705C22.337 33.1953 23.9104 32.5669 25.3587 31.7078" fill="#8F1838"/>
<path d="M25.8083 20.4705C25.5598 21.2022 25.2221 21.9005 24.8027 22.5497L30.5671 26.8816C31.5118 25.5229 32.2481 24.0307 32.7515 22.4544L25.8083 20.4705Z" fill="#00ADD8"/>
<path d="M18.3271 26.7085C17.882 26.7713 17.433 26.8032 16.9835 26.8038C16.6194 26.8038 16.2554 26.8038 15.9 26.7431L14.5391 33.8387C16.2333 34.0834 17.9549 34.0688 19.6447 33.7954L18.3271 26.7085Z" fill="#F36E24"/>
<path d="M17.582 8.18537C18.3669 8.22945 19.1423 8.37806 19.8878 8.62723L22.4882 1.89553C20.9138 1.3341 19.2615 1.02133 17.5907 0.968506L17.582 8.18537Z" fill="#EA1D2D"/>
<path d="M14.8703 26.5612C14.0724 26.3752 13.3028 26.0838 12.5818 25.6948L8.78516 31.8374C10.2652 32.683 11.8677 33.2939 13.5354 33.6481L14.8703 26.5612Z" fill="#E01A83"/>
<path d="M14.1834 8.59268C14.9477 8.35139 15.7404 8.21158 16.5411 8.17682V0.959961C14.8508 0.992245 13.1755 1.28446 11.5742 1.82633L14.1834 8.59268Z" fill="#1A3668"/>
<path d="M9.262 22.6972C8.79956 22.0154 8.4294 21.2754 8.16114 20.4966L1.22656 22.4806C1.74356 24.119 2.51584 25.6657 3.51496 27.0637L9.262 22.6972Z" fill="#CD8B2A"/>
<path d="M11.2125 10.1781C11.8249 9.69621 12.4945 9.29173 13.2062 8.97389L10.6057 2.24219C9.06663 2.89423 7.63243 3.77007 6.34961 4.8413L11.2125 10.1781Z" fill="#00558A"/>
</svg>
