<svg width="25" height="23" viewBox="0 0 25 23" fill="none" xmlns="http://www.w3.org/2000/svg">
<path d="M11.7799 11.5943H4.02557M3.80578 12.6544L2.52466 16.6459C1.82299 18.832 1.47216 19.925 1.72393 20.598C1.94257 21.1827 2.41216 21.6258 2.99161 21.7945C3.65885 21.9887 4.66666 21.5157 6.68226 20.5697L19.6042 14.5048C21.5716 13.5814 22.5553 13.1198 22.8592 12.4784C23.1234 11.9211 23.1234 11.2673 22.8592 10.71C22.5553 10.0688 21.5716 9.60704 19.6042 8.68364L6.65997 2.60835C4.65044 1.66519 3.64568 1.1936 2.9791 1.38706C2.4002 1.55506 1.93066 1.99705 1.71126 2.5805C1.45862 3.25234 1.8057 4.34301 2.49988 6.52435L3.80826 10.6358C3.92748 11.0105 3.9871 11.1978 4.01063 11.3893C4.03151 11.5594 4.0313 11.7315 4.01 11.9015C3.98599 12.093 3.92593 12.2801 3.80578 12.6544Z" stroke="white" stroke-width="2" stroke-linecap="round" stroke-linejoin="round"/>
</svg>
