<svg width="36" height="36" viewBox="0 0 36 36" fill="none" xmlns="http://www.w3.org/2000/svg">
<path d="M18 11.5315C16.7206 11.5315 15.4699 11.9109 14.4061 12.6217C13.3424 13.3325 12.5133 14.3428 12.0236 15.5248C11.534 16.7068 11.4059 18.0075 11.6555 19.2623C11.9051 20.5171 12.5212 21.6697 13.4259 22.5744C14.3306 23.4791 15.4832 24.0952 16.738 24.3448C17.9928 24.5943 19.2935 24.4662 20.4755 23.9766C21.6575 23.487 22.6678 22.6579 23.3786 21.5941C24.0894 20.5304 24.4687 19.2797 24.4687 18.0003C24.4665 16.2854 23.7843 14.6413 22.5716 13.4287C21.359 12.216 19.7149 11.5338 18 11.5315ZM18 22.7815C17.0544 22.7815 16.1299 22.5011 15.3437 21.9758C14.5574 21.4504 13.9446 20.7037 13.5827 19.83C13.2208 18.9563 13.1261 17.995 13.3106 17.0675C13.4951 16.1401 13.9505 15.2881 14.6191 14.6194C15.2878 13.9508 16.1397 13.4954 17.0672 13.3109C17.9947 13.1264 18.956 13.2211 19.8297 13.583C20.7034 13.9449 21.4501 14.5577 21.9755 15.344C22.5008 16.1303 22.7812 17.0547 22.7812 18.0003C22.7812 19.2684 22.2775 20.4845 21.3808 21.3812C20.4842 22.2778 19.2681 22.7815 18 22.7815ZM30.0937 18.3997C30.1022 18.1339 30.1022 17.8667 30.0937 17.6009L32.2495 14.9065C32.3319 14.8034 32.389 14.6824 32.4161 14.5532C32.4432 14.424 32.4396 14.2902 32.4056 14.1626C32.0683 12.8915 31.5633 11.6709 30.9037 10.5331C30.8382 10.4176 30.7464 10.3192 30.6357 10.2459C30.525 10.1726 30.3986 10.1265 30.2667 10.1112L26.8284 9.73014C26.6475 9.53608 26.46 9.34858 26.2659 9.16764L25.8834 5.72795C25.8682 5.59607 25.822 5.46964 25.7487 5.35895C25.6754 5.24826 25.577 5.15643 25.4616 5.09092C24.3251 4.4333 23.1066 3.92922 21.8377 3.59186C21.7098 3.55844 21.5758 3.55554 21.4466 3.58339C21.3174 3.61123 21.1965 3.66905 21.0937 3.75217L18.3937 5.91358C18.128 5.90514 17.8608 5.90514 17.595 5.91358L14.9062 3.75077C14.8031 3.66837 14.6821 3.61132 14.5529 3.58421C14.4237 3.5571 14.2899 3.56068 14.1623 3.59467C12.8912 3.93196 11.6706 4.43703 10.5328 5.09655C10.4173 5.16205 10.3189 5.25388 10.2456 5.36457C10.1723 5.47527 10.1262 5.60169 10.1109 5.73358L9.73546 9.17186C9.5414 9.35374 9.3539 9.54124 9.17296 9.73436L5.73187 10.1253C5.59998 10.1405 5.47355 10.1867 5.36286 10.26C5.25217 10.3333 5.16034 10.4317 5.09484 10.5472C4.43721 11.6836 3.93314 12.9022 3.59577 14.1711C3.56316 14.2974 3.56029 14.4295 3.58737 14.5572C3.61446 14.6848 3.67076 14.8044 3.75187 14.9065L5.91327 17.6065C5.90484 17.8723 5.90484 18.1395 5.91327 18.4053L3.75046 21.1011C3.66806 21.2042 3.61101 21.3253 3.5839 21.4545C3.55679 21.5837 3.56038 21.7174 3.59437 21.845C3.93225 23.1137 4.4373 24.3319 5.09624 25.4675C5.16175 25.583 5.25358 25.6814 5.36427 25.7547C5.47496 25.828 5.60139 25.8741 5.73327 25.8894L9.17156 26.2705C9.35343 26.4645 9.54093 26.652 9.73406 26.833L10.125 30.2684C10.1402 30.4003 10.1864 30.5267 10.2597 30.6374C10.333 30.7481 10.4314 30.84 10.5469 30.9055C11.6833 31.5631 12.9019 32.0672 14.1708 32.4045C14.2983 32.4385 14.4321 32.4421 14.5613 32.415C14.6905 32.3879 14.8115 32.3308 14.9147 32.2484L17.6006 30.094C17.8664 30.1025 18.1336 30.1025 18.3994 30.094L21.1008 32.2569C21.2505 32.3764 21.4365 32.4413 21.6281 32.4411C21.7012 32.4408 21.774 32.4314 21.8447 32.413C23.1134 32.0751 24.3316 31.57 25.4672 30.9111C25.5827 30.8456 25.6811 30.7537 25.7544 30.6431C25.8277 30.5324 25.8738 30.4059 25.8891 30.274L26.2701 26.8358C26.4642 26.6548 26.6517 26.4673 26.8326 26.2733L30.2723 25.8908C30.4042 25.8755 30.5307 25.8294 30.6413 25.7561C30.752 25.6828 30.8439 25.5844 30.9094 25.4689C31.5672 24.3326 32.0713 23.114 32.4084 21.845C32.4424 21.7174 32.446 21.5837 32.4189 21.4545C32.3918 21.3253 32.3347 21.2042 32.2523 21.1011L30.0937 18.3997ZM29.6578 24.2539L26.3334 24.6237C26.1257 24.6477 25.9343 24.7479 25.7962 24.905C25.5183 25.2181 25.222 25.5144 24.9089 25.7923C24.7518 25.9304 24.6516 26.1218 24.6277 26.3295L24.2578 29.6525C23.4795 30.0675 22.6617 30.4039 21.8166 30.6565L19.2052 28.5669C19.0554 28.4474 18.8694 28.3824 18.6778 28.3826H18.6272C18.2094 28.4065 17.7906 28.4065 17.3728 28.3826C17.1642 28.3699 16.9582 28.435 16.7948 28.5655L14.1848 30.6565C13.3405 30.4025 12.5236 30.0647 11.7464 29.6483L11.3766 26.3267C11.3526 26.119 11.2524 25.9275 11.0953 25.7895C10.7822 25.5116 10.4859 25.2153 10.208 24.9022C10.0699 24.7451 9.8785 24.6449 9.67077 24.6209L6.34781 24.2511C5.93317 23.475 5.59683 22.6596 5.34374 21.8169L7.43343 19.2055C7.56386 19.0421 7.62901 18.8361 7.61624 18.6275C7.59234 18.2097 7.59234 17.7909 7.61624 17.3731C7.62901 17.1645 7.56386 16.9585 7.43343 16.7951L5.34374 14.1851C5.59778 13.3408 5.93555 12.5239 6.35202 11.7467L9.67359 11.3769C9.88131 11.3529 10.0727 11.2527 10.2108 11.0956C10.4887 10.7825 10.785 10.4862 11.0981 10.2083C11.2552 10.0702 11.3554 9.87881 11.3794 9.67108L11.7492 6.34811C12.5253 5.93348 13.3407 5.59713 14.1834 5.34405L16.7948 7.43374C16.9582 7.56417 17.1642 7.62931 17.3728 7.61655C17.7906 7.59264 18.2094 7.59264 18.6272 7.61655C18.8358 7.62931 19.0418 7.56417 19.2052 7.43374L21.8152 5.34405C22.6595 5.59809 23.4764 5.93586 24.2536 6.35233L24.6234 9.6767C24.6474 9.88443 24.7476 10.0759 24.9047 10.2139C25.2178 10.4918 25.5141 10.7881 25.792 11.1012C25.9301 11.2583 26.1215 11.3585 26.3292 11.3825L29.6522 11.7523C30.0666 12.5275 30.403 13.342 30.6562 14.1837L28.5666 16.7951C28.4361 16.9585 28.371 17.1645 28.3837 17.3731C28.4076 17.7909 28.4076 18.2097 28.3837 18.6275C28.371 18.8361 28.4361 19.0421 28.5666 19.2055L30.6562 21.8155C30.4031 22.6597 30.0663 23.4766 29.6508 24.2539H29.6578Z" fill="#3C3F43"/>
</svg>
