<svg width="33" height="33" viewBox="0 0 33 33" fill="none" xmlns="http://www.w3.org/2000/svg">
<path d="M29.6508 14.2875L19.6508 4.28746C19.5459 4.1827 19.4124 4.11137 19.267 4.08249C19.1216 4.05361 18.9709 4.06846 18.8339 4.12517C18.6969 4.18188 18.5799 4.27791 18.4974 4.40112C18.415 4.52434 18.371 4.66922 18.3708 4.81746V10.0925C11.5608 10.5412 3.32208 16.9675 2.37958 25.175C2.34897 25.4363 2.40162 25.7006 2.53002 25.9303C2.65842 26.16 2.85602 26.3433 3.09469 26.4541C3.33335 26.5649 3.60089 26.5976 3.85921 26.5475C4.11752 26.4974 4.35343 26.367 4.53333 26.175C5.94083 24.6737 10.9958 19.8925 18.3708 19.5837V24.8175C18.371 24.9657 18.415 25.1106 18.4974 25.2338C18.5799 25.357 18.6969 25.453 18.8339 25.5097C18.9709 25.5665 19.1216 25.5813 19.267 25.5524C19.4124 25.5235 19.5459 25.4522 19.6508 25.3475L29.6508 15.3475C29.7913 15.2068 29.8702 15.0162 29.8702 14.8175C29.8702 14.6187 29.7913 14.4281 29.6508 14.2875ZM19.8708 23.0075V18.8175C19.8708 18.6185 19.7918 18.4278 19.6512 18.2871C19.5105 18.1465 19.3197 18.0675 19.1208 18.0675C15.6546 18.0675 12.2758 18.9737 9.08083 20.7612C7.21862 21.8073 5.50326 23.0956 3.97958 24.5925C4.56708 21.2725 6.49958 18.0925 9.47958 15.5587C12.4296 13.06 16.0321 11.5675 19.1208 11.5675C19.3197 11.5675 19.5105 11.4884 19.6512 11.3478C19.7918 11.2071 19.8708 11.0164 19.8708 10.8175V6.62871L28.0596 14.8175L19.8708 23.0075Z" fill="#3C3F43"/>
</svg>
