<svg width="542" height="545" viewBox="0 0 542 545" fill="none" xmlns="http://www.w3.org/2000/svg">
<g filter="url(#filter0_dd_1764_43803)">
<mask id="mask0_1764_43803" style="mask-type:alpha" maskUnits="userSpaceOnUse" x="87" y="60" width="370" height="370">
<path d="M87.9824 204.597C87.9824 153.798 87.9824 128.398 98.0254 109.064C106.488 92.7721 119.772 79.4881 136.065 71.0251C155.398 60.9821 180.798 60.9821 231.598 60.9821H312.403C363.203 60.9821 388.603 60.9821 407.936 71.0251C424.228 79.4881 437.512 92.7721 445.976 109.064C456.018 128.398 456.018 153.798 456.018 204.597V285.403C456.018 336.203 456.018 361.603 445.976 380.936C437.512 397.228 424.228 410.512 407.936 418.975C388.603 429.018 363.203 429.018 312.403 429.018H231.598C180.798 429.018 155.398 429.018 136.065 418.975C119.772 410.512 106.488 397.228 98.0254 380.936C87.9824 361.603 87.9824 336.203 87.9824 285.403V204.597Z" fill="#C4C4C4"/>
</mask>
<g mask="url(#mask0_1764_43803)">
<rect width="373.529" height="373.529" transform="translate(79.7422 55.4891)" fill="#00676D"/>
<g style="mix-blend-mode:overlay" opacity="0.5">
<rect x="79.7422" y="55.4891" width="373.529" height="373.529" fill="url(#paint0_linear_1764_43803)"/>
</g>
</g>
</g>
<path fill-rule="evenodd" clip-rule="evenodd" d="M395.112 121.889L298.739 368.112L245.261 368.112L148.889 121.889L395.112 121.889ZM273.466 308.235L324.034 168.672L219.835 168.672L270.403 308.235H273.466Z" fill="white"/>
<defs>
<filter id="filter0_dd_1764_43803" x="0.0932007" y="0.558277" width="541.068" height="543.815" filterUnits="userSpaceOnUse" color-interpolation-filters="sRGB">
<feFlood flood-opacity="0" result="BackgroundImageFix"/>
<feColorMatrix in="SourceAlpha" type="matrix" values="0 0 0 0 0 0 0 0 0 0 0 0 0 0 0 0 0 0 127 0" result="hardAlpha"/>
<feOffset dy="27.4654"/>
<feGaussianBlur stdDeviation="43.9446"/>
<feColorMatrix type="matrix" values="0 0 0 0 0 0 0 0 0 0 0 0 0 0 0 0 0 0 0.15 0"/>
<feBlend mode="normal" in2="BackgroundImageFix" result="effect1_dropShadow_1764_43803"/>
<feColorMatrix in="SourceAlpha" type="matrix" values="0 0 0 0 0 0 0 0 0 0 0 0 0 0 0 0 0 0 127 0" result="hardAlpha"/>
<feOffset dy="5.49308"/>
<feGaussianBlur stdDeviation="15.106"/>
<feComposite in2="hardAlpha" operator="out"/>
<feColorMatrix type="matrix" values="0 0 0 0 0 0 0 0 0 0.326505 0 0 0 0 0.516667 0 0 0 0.4 0"/>
<feBlend mode="normal" in2="effect1_dropShadow_1764_43803" result="effect2_dropShadow_1764_43803"/>
<feBlend mode="normal" in="SourceGraphic" in2="effect2_dropShadow_1764_43803" result="shape"/>
</filter>
<linearGradient id="paint0_linear_1764_43803" x1="79.7422" y1="55.4891" x2="345.481" y2="321.227" gradientUnits="userSpaceOnUse">
<stop stop-color="white"/>
<stop offset="1" stop-color="white" stop-opacity="0"/>
</linearGradient>
</defs>
</svg>
