<svg width="37" height="37" viewBox="0 0 37 37" fill="none" xmlns="http://www.w3.org/2000/svg">
<path d="M34.7069 21.4155C34.6182 21.4821 34.5172 21.5305 34.4097 21.5581C34.3023 21.5856 34.1905 21.5917 34.0807 21.576C33.9708 21.5603 33.8652 21.5231 33.7698 21.4666C33.6743 21.41 33.5909 21.3352 33.5244 21.2465C32.8195 20.2984 31.902 19.5292 30.8457 19.0008C29.7895 18.4724 28.6239 18.1995 27.443 18.2042C27.219 18.2042 27.0041 18.1151 26.8457 17.9567C26.6873 17.7982 26.5984 17.5832 26.5984 17.3591C26.5984 17.135 26.6873 16.92 26.8457 16.7615C27.0041 16.603 27.219 16.514 27.443 16.514C28.1275 16.5139 28.7983 16.3217 29.3791 15.9592C29.9599 15.5968 30.4275 15.0786 30.7288 14.4636C31.03 13.8486 31.1529 13.1615 31.0834 12.4801C31.0139 11.7988 30.7548 11.1506 30.3355 10.6092C29.9163 10.0678 29.3537 9.65484 28.7116 9.4173C28.0696 9.17976 27.3739 9.12712 26.7034 9.26536C26.033 9.4036 25.4147 9.72718 24.9189 10.1994C24.423 10.6715 24.0695 11.2734 23.8983 11.9365C23.8423 12.1535 23.7024 12.3394 23.5095 12.4533C23.3165 12.5671 23.0862 12.5996 22.8693 12.5435C22.6523 12.4875 22.4666 12.3476 22.3528 12.1545C22.239 11.9614 22.2065 11.731 22.2625 11.514C22.4748 10.6878 22.8815 9.92437 23.4485 9.28732C24.0155 8.65027 24.7265 8.15804 25.5222 7.85167C26.3179 7.54531 27.1752 7.43367 28.0228 7.52606C28.8704 7.61846 29.6836 7.91221 30.3947 8.38284C31.1058 8.85347 31.6942 9.48733 32.1107 10.2316C32.5273 10.9759 32.7601 11.809 32.7896 12.6615C32.8191 13.514 32.6445 14.3613 32.2804 15.1326C31.9162 15.9039 31.3731 16.577 30.6963 17.0957C32.3618 17.7176 33.8129 18.8066 34.8758 20.2324C34.9424 20.3211 34.9908 20.4222 35.0183 20.5297C35.0458 20.6372 35.0519 20.7491 35.0363 20.8589C35.0206 20.9688 34.9834 21.0745 34.9269 21.17C34.8704 21.2655 34.7956 21.3489 34.7069 21.4155ZM27.0474 30.4578C27.103 30.5539 27.1391 30.66 27.1537 30.7701C27.1683 30.8801 27.1611 30.992 27.1324 31.0992C27.1038 31.2065 27.0543 31.307 26.9868 31.3951C26.9194 31.4833 26.8352 31.5572 26.7391 31.6128C26.6111 31.6879 26.4652 31.7273 26.3168 31.7269C26.1684 31.727 26.0227 31.688 25.8942 31.6138C25.7657 31.5396 25.659 31.4329 25.5848 31.3043C24.8506 30.0598 23.8047 29.0283 22.5503 28.3117C21.296 27.5951 19.8765 27.2182 18.4321 27.2182C16.9877 27.2182 15.5682 27.5951 14.3139 28.3117C13.0595 29.0283 12.0136 30.0598 11.2794 31.3043C11.2266 31.4053 11.1539 31.4946 11.0658 31.5667C10.9776 31.6389 10.8757 31.6925 10.7663 31.7242C10.6569 31.756 10.5422 31.7653 10.4291 31.7515C10.3161 31.7378 10.2069 31.7013 10.1083 31.6443C10.0097 31.5872 9.9236 31.5108 9.85525 31.4196C9.78691 31.3284 9.7377 31.2244 9.7106 31.1137C9.6835 31.003 9.67906 30.8879 9.69755 30.7755C9.71604 30.663 9.75707 30.5554 9.81818 30.4592C10.9686 28.4816 12.7699 26.9651 14.9142 26.1691C13.7429 25.4082 12.8488 24.2888 12.3654 22.9779C11.8819 21.6671 11.835 20.2349 12.2316 18.8952C12.6281 17.5555 13.447 16.3799 14.5659 15.5438C15.6849 14.7078 17.044 14.2561 18.4405 14.2561C19.8371 14.2561 21.1962 14.7078 22.3151 15.5438C23.4341 16.3799 24.2529 17.5555 24.6495 18.8952C25.0461 20.2349 24.9992 21.6671 24.5157 22.9779C24.0323 24.2888 23.1382 25.4082 21.9669 26.1691C24.1052 26.9678 25.9006 28.4834 27.0474 30.4578ZM18.4335 25.5282C19.3801 25.5282 20.3055 25.2473 21.0926 24.7211C21.8797 24.1949 22.4932 23.447 22.8555 22.572C23.2177 21.697 23.3125 20.7341 23.1278 19.8052C22.9431 18.8762 22.4873 18.023 21.8179 17.3532C21.1485 16.6835 20.2957 16.2274 19.3673 16.0426C18.4388 15.8579 17.4765 15.9527 16.6019 16.3152C15.7273 16.6776 14.9798 17.2914 14.4539 18.0789C13.9279 18.8664 13.6472 19.7923 13.6472 20.7394C13.6472 22.0095 14.1515 23.2275 15.0491 24.1256C15.9467 25.0237 17.1641 25.5282 18.4335 25.5282ZM10.2687 17.3591C10.2687 17.135 10.1797 16.92 10.0213 16.7615C9.86287 16.603 9.64803 16.514 9.42402 16.514C8.73957 16.5138 8.06889 16.3216 7.48815 15.9591C6.9074 15.5967 6.43986 15.0786 6.13862 14.4637C5.83738 13.8488 5.71451 13.1617 5.78396 12.4804C5.85341 11.7991 6.1124 11.151 6.53151 10.6096C6.95063 10.0682 7.51308 9.65522 8.155 9.41757C8.79691 9.17992 9.49257 9.12711 10.163 9.26516C10.8334 9.4032 11.4517 9.72656 11.9476 10.1985C12.4436 10.6705 12.7973 11.2721 12.9687 11.9351C12.9964 12.0425 13.045 12.1435 13.1118 12.2322C13.1785 12.3208 13.262 12.3955 13.3576 12.4518C13.4531 12.5082 13.5588 12.5452 13.6687 12.5607C13.7785 12.5762 13.8903 12.5699 13.9977 12.5421C14.1051 12.5144 14.206 12.4658 14.2947 12.399C14.3833 12.3322 14.4579 12.2487 14.5142 12.1531C14.5706 12.0575 14.6075 11.9517 14.623 11.8418C14.6385 11.7319 14.6322 11.62 14.6045 11.5125C14.3922 10.6864 13.9856 9.92296 13.4185 9.28591C12.8515 8.64886 12.1405 8.15664 11.3448 7.85027C10.5491 7.5439 9.69177 7.43226 8.84419 7.52465C7.99662 7.61705 7.18339 7.9108 6.4723 8.38143C5.76121 8.85206 5.17285 9.48592 4.75627 10.2302C4.33968 10.9745 4.10693 11.8076 4.07743 12.6601C4.04792 13.5126 4.22251 14.3599 4.58664 15.1312C4.95077 15.9025 5.4939 16.5756 6.17075 17.0943C4.50501 17.7165 3.05388 18.8061 1.99119 20.2324C1.92464 20.3211 1.87622 20.4222 1.84869 20.5297C1.82116 20.6372 1.81507 20.7491 1.83075 20.8589C1.84644 20.9688 1.8836 21.0745 1.94011 21.17C1.99663 21.2655 2.07139 21.3489 2.16012 21.4155C2.24886 21.4821 2.34983 21.5305 2.45728 21.5581C2.56473 21.5856 2.67655 21.5917 2.78635 21.576C2.89616 21.5603 3.0018 21.5231 3.09724 21.4666C3.19269 21.41 3.27606 21.3352 3.34262 21.2465C4.04748 20.2984 4.96498 19.5292 6.02126 19.0008C7.07754 18.4724 8.24307 18.1995 9.42402 18.2042C9.64803 18.2042 9.86287 18.1151 10.0213 17.9567C10.1797 17.7982 10.2687 17.5832 10.2687 17.3591Z" fill="#3C3F43"/>
</svg>
