<svg width="28" height="30" viewBox="0 0 28 30" fill="none" xmlns="http://www.w3.org/2000/svg">
<path d="M25.25 2.78125H21.5938V1.375C21.5938 1.15122 21.5049 0.936612 21.3466 0.778379C21.1884 0.620145 20.9738 0.53125 20.75 0.53125C20.5262 0.53125 20.3116 0.620145 20.1534 0.778379C19.9951 0.936612 19.9062 1.15122 19.9062 1.375V2.78125H8.09375V1.375C8.09375 1.15122 8.00485 0.936612 7.84662 0.778379C7.68839 0.620145 7.47378 0.53125 7.25 0.53125C7.02622 0.53125 6.81161 0.620145 6.65338 0.778379C6.49515 0.936612 6.40625 1.15122 6.40625 1.375V2.78125H2.75C2.22786 2.78125 1.7271 2.98867 1.35788 3.35788C0.988671 3.7271 0.78125 4.22785 0.78125 4.75V27.25C0.78125 27.7721 0.988671 28.2729 1.35788 28.6421C1.7271 29.0113 2.22786 29.2188 2.75 29.2188H25.25C25.7721 29.2188 26.2729 29.0113 26.6421 28.6421C27.0113 28.2729 27.2188 27.7721 27.2188 27.25V4.75C27.2188 4.22785 27.0113 3.7271 26.6421 3.35788C26.2729 2.98867 25.7721 2.78125 25.25 2.78125ZM2.75 4.46875H6.40625V5.875C6.40625 6.09878 6.49515 6.31339 6.65338 6.47162C6.81161 6.62986 7.02622 6.71875 7.25 6.71875C7.47378 6.71875 7.68839 6.62986 7.84662 6.47162C8.00485 6.31339 8.09375 6.09878 8.09375 5.875V4.46875H19.9062V5.875C19.9062 6.09878 19.9951 6.31339 20.1534 6.47162C20.3116 6.62986 20.5262 6.71875 20.75 6.71875C20.9738 6.71875 21.1884 6.62986 21.3466 6.47162C21.5049 6.31339 21.5938 6.09878 21.5938 5.875V4.46875H25.25C25.3246 4.46875 25.3961 4.49838 25.4489 4.55113C25.5016 4.60387 25.5312 4.67541 25.5312 4.75V9.53125H2.46875V4.75C2.46875 4.67541 2.49838 4.60387 2.55113 4.55113C2.60387 4.49838 2.67541 4.46875 2.75 4.46875ZM25.25 27.5312H2.75C2.67541 27.5312 2.60387 27.5016 2.55113 27.4489C2.49838 27.3961 2.46875 27.3246 2.46875 27.25V11.2188H25.5312V27.25C25.5312 27.3246 25.5016 27.3961 25.4489 27.4489C25.3961 27.5016 25.3246 27.5312 25.25 27.5312Z" fill="#3C3F43"/>
</svg>
