<svg width="49" height="49" viewBox="0 0 49 49" fill="none" xmlns="http://www.w3.org/2000/svg">
<path d="M45.6973 0.317383H3.69727C2.04041 0.317383 0.697266 1.66053 0.697266 3.31738V45.3174C0.697266 46.9742 2.04041 48.3174 3.69727 48.3174H45.6973C47.3541 48.3174 48.6973 46.9742 48.6973 45.3174V3.31738C48.6973 1.66053 47.3541 0.317383 45.6973 0.317383Z" fill="#007DBB"/>
<path d="M4.81282 6.29619C4.57878 6.40538 4.33861 6.50093 4.09352 6.58236C3.77641 6.68291 3.57531 6.76025 3.49023 6.79119V5.49181C3.81352 5.36717 4.12645 5.21717 4.4261 5.04321C4.7125 4.9009 4.97375 4.7128 5.19955 4.48633H6.56855V13.6439H4.81282V6.29619Z" fill="white"/>
<path d="M10.0952 11.4705H7.33398V10.0938L9.7394 4.48633H11.673V10.1479H12.5857V11.4705H11.673V13.6439H10.1261L10.0952 11.4705ZM10.0952 10.1479V6.28071L8.70299 10.1479H10.0952Z" fill="white"/>
<path d="M16.043 7.9823V4.48633H16.7004V7.54143H17.5512V7.9823H16.043Z" fill="white"/>
<path d="M17.7285 7.9823V4.48633H18.3627V7.9823H17.7285Z" fill="white"/>
<path d="M18.7734 7.9823V4.48633H20.212V4.92719H19.4386V5.9404H20.096V6.389H19.4386V7.9823H18.7734Z" fill="white"/>
<path d="M20.4121 7.9823V4.48633H21.8817V4.93493H21.0541V5.9404H21.7038V6.38127H21.0541V7.54143H21.8894V7.9823H20.4121Z" fill="white"/>
<path d="M16.043 13.6981V10.2021H16.9015C17.0418 10.1982 17.182 10.2112 17.3192 10.2408C17.4362 10.2673 17.5467 10.3173 17.644 10.3877C17.738 10.4562 17.8104 10.5502 17.8528 10.6584C17.9102 10.7981 17.9366 10.9485 17.9302 11.0993C17.9318 11.2232 17.9108 11.3464 17.8683 11.4628C17.8348 11.5569 17.7759 11.6399 17.6981 11.7026C17.6138 11.7592 17.5192 11.7986 17.4197 11.8186C17.5445 11.8352 17.6624 11.886 17.76 11.9656C17.8545 12.0383 17.9247 12.1381 17.9611 12.2517C18.0105 12.388 18.0341 12.5322 18.0307 12.6771C18.0325 12.8264 18.0116 12.975 17.9688 13.118C17.9345 13.2398 17.8707 13.3514 17.7832 13.4428C17.6954 13.5291 17.5898 13.5951 17.4738 13.6362C17.3362 13.6791 17.1926 13.7 17.0484 13.6981H16.043ZM16.7004 11.602H16.917C17.0179 11.6089 17.119 11.5903 17.2109 11.5479C17.279 11.511 17.3313 11.4505 17.3578 11.3777C17.3846 11.2821 17.3977 11.1831 17.3965 11.0838C17.4052 10.9844 17.3836 10.8846 17.3346 10.7977C17.3151 10.7628 17.2885 10.7324 17.2566 10.7084C17.2246 10.6844 17.1879 10.6674 17.149 10.6584C17.0429 10.6313 16.9337 10.6183 16.8241 10.6198H16.7004V11.602ZM16.7004 13.2263H16.9479C17.0188 13.2356 17.0909 13.2278 17.1581 13.2036C17.2254 13.1793 17.2859 13.1394 17.3346 13.087C17.4152 12.9576 17.4531 12.8061 17.4429 12.6539C17.4482 12.5355 17.4298 12.4171 17.3888 12.3059C17.3614 12.223 17.3033 12.1537 17.2263 12.1125C17.134 12.0624 17.0297 12.0384 16.9247 12.0429H16.7004V13.2263Z" fill="white"/>
<path d="M18.3164 13.6979V10.2019H19.7937V10.6505H18.9661V11.656H19.6158V12.0968H18.9661V13.257H19.7937V13.6979H18.3164Z" fill="white"/>
<path d="M20.0332 13.6979V10.2019H20.6752V13.257H21.5182V13.6979H20.0332Z" fill="white"/>
<path d="M22.6331 13.7445C22.4254 13.7545 22.2191 13.7063 22.0375 13.6052C21.8934 13.5117 21.7846 13.373 21.7281 13.2108C21.6559 13.0154 21.6218 12.808 21.6276 12.5998V11.2849C21.6218 11.0792 21.656 10.8743 21.7281 10.6816C21.781 10.5195 21.8909 10.3821 22.0375 10.2949C22.2199 10.1965 22.4262 10.151 22.6331 10.1634C22.8401 10.1493 23.0468 10.1949 23.2286 10.2949C23.3772 10.3817 23.4897 10.5189 23.5457 10.6816C23.6143 10.8753 23.6483 11.0795 23.6463 11.2849V12.5998C23.6475 12.8076 23.6135 13.0142 23.5457 13.2108C23.4872 13.3741 23.3756 13.513 23.2286 13.6052C23.0478 13.7083 22.8409 13.7567 22.6331 13.7445ZM22.6331 13.2727C22.7166 13.2811 22.8 13.256 22.8651 13.2031C22.9187 13.1532 22.9564 13.0886 22.9734 13.0174C22.9814 12.9299 22.9814 12.8419 22.9734 12.7545V11.1379C22.9817 11.0505 22.9817 10.9624 22.9734 10.875C22.9567 10.7992 22.9129 10.7322 22.8502 10.6866C22.7875 10.641 22.7102 10.62 22.6331 10.6275C22.5499 10.6221 22.4675 10.6468 22.401 10.6971C22.3483 10.7433 22.3129 10.806 22.3005 10.875C22.2921 10.9624 22.2921 11.0505 22.3005 11.1379V12.7545C22.2925 12.8419 22.2925 12.9299 22.3005 13.0174C22.3118 13.089 22.3473 13.1545 22.401 13.2031C22.4675 13.2533 22.5499 13.278 22.6331 13.2727Z" fill="white"/>
<path d="M24.3485 13.6979L23.8535 10.2019H24.3872L24.6811 12.4681L25.0446 10.2096H25.4777L25.849 12.4681L26.1352 10.2019H26.6611L26.1739 13.6979H25.6556L25.2689 11.3775L24.8822 13.6979H24.3485Z" fill="white"/>
<path d="M28.2079 13.6979L27.7129 10.2019H28.2466L28.5327 12.4681L28.8963 10.2096H29.3371L29.7084 12.4681L29.9946 10.2019H30.5205L30.0332 13.6979H29.515L29.1206 11.3775L28.7416 13.6979H28.2079Z" fill="white"/>
<path d="M30.5059 13.6979L31.202 10.2019H31.8826L32.5864 13.6979H31.9909L31.8517 12.9244H31.2484L31.1014 13.6979H30.5059ZM31.2793 12.4836H31.7588L31.5191 11.014L31.2793 12.4836Z" fill="white"/>
<path d="M32.9885 13.6979V10.666H32.4316V10.2019H34.1796V10.666H33.6305V13.6979H32.9885Z" fill="white"/>
<path d="M34.373 13.6979V10.2019H35.8349V10.6505H35.0073V11.656H35.6647V12.0968H35.0073V13.257H35.8503V13.6979H34.373Z" fill="white"/>
<path d="M36.0898 13.698V10.202H36.9252C37.1291 10.196 37.3327 10.2221 37.5285 10.2794C37.6821 10.3321 37.8131 10.4358 37.8997 10.5733C37.992 10.741 38.0349 10.9314 38.0235 11.1224C38.0365 11.2484 38.0365 11.3754 38.0235 11.5014C38.0038 11.6061 37.9586 11.7044 37.892 11.7876C37.8279 11.8741 37.7388 11.9389 37.6367 11.9732L38.124 13.698H37.482L37.0567 12.097H36.7705V13.698H36.0898ZM36.7318 11.6948H36.9252C37.0261 11.7007 37.1269 11.6821 37.2191 11.6406C37.293 11.6068 37.3512 11.5459 37.3815 11.4705C37.415 11.3709 37.4307 11.2661 37.4279 11.1611C37.4398 11.022 37.4044 10.883 37.3274 10.7666C37.2811 10.7181 37.2242 10.6809 37.1611 10.6581C37.098 10.6353 37.0305 10.6274 36.9638 10.6352H36.7318V11.6948Z" fill="white"/>
<path d="M37.5831 35.3854C36.9798 34.5656 33.0584 29.5691 27.5283 29.5691C22.7561 29.5691 17.6514 33.9004 17.6514 33.9004C17.6514 33.9004 15.7332 29.9713 11.8119 29.5923H11.7113C11.6709 29.5942 11.6326 29.6111 11.604 29.6397C11.5754 29.6683 11.5585 29.7066 11.5566 29.747C11.5698 29.7964 11.5907 29.8433 11.6185 29.8862C12.7907 31.5254 13.4209 33.4901 13.4209 35.5053C13.4209 37.5205 12.7907 39.4852 11.6185 41.1244V41.1785C11.611 41.2064 11.611 41.2357 11.6185 41.2636C11.6202 41.3028 11.636 41.34 11.663 41.3684C11.69 41.3969 11.7264 41.4146 11.7655 41.4183H11.8506C15.7874 41.047 17.7133 37.1102 17.7133 37.1102C17.7133 37.1102 22.818 41.4415 27.5902 41.4415C33.0816 41.4415 37.003 36.445 37.6449 35.6252L37.6914 35.571C37.7015 35.552 37.7068 35.5307 37.7068 35.5092C37.7068 35.4876 37.7015 35.4663 37.6914 35.4473L37.6449 35.3931M30.6839 36.1666C30.3654 36.1681 30.0536 36.0751 29.7881 35.8992C29.5225 35.7234 29.3151 35.4727 29.1921 35.1788C29.0692 34.885 29.0362 34.5613 29.0974 34.2487C29.1586 33.9362 29.3112 33.6488 29.5359 33.423C29.7606 33.1972 30.0472 33.0433 30.3595 32.9806C30.6718 32.9178 30.9956 32.9492 31.2901 33.0708C31.5845 33.1923 31.8362 33.3985 32.0133 33.6632C32.1904 33.928 32.285 34.2393 32.285 34.5578C32.285 34.9831 32.1165 35.3912 31.8165 35.6927C31.5165 35.9941 31.1093 36.1645 30.6839 36.1666Z" fill="white"/>
<path d="M17.3504 25.0908V25.0444C17.381 25.0377 17.4126 25.0377 17.4432 25.0444C17.484 25.045 17.5229 25.0617 17.5515 25.0908C20.5525 27.9448 23.6926 25.6322 24.3501 25.0908L24.4119 25.0289H24.5357L24.5976 25.0908C25.255 25.6322 28.3952 27.9448 31.3884 25.0908C31.402 25.0756 31.4187 25.0636 31.4374 25.0556C31.4561 25.0476 31.4764 25.0437 31.4967 25.0444C31.5246 25.0368 31.5539 25.0368 31.5818 25.0444C31.5991 25.0579 31.6147 25.0735 31.6282 25.0908C32.2083 25.6632 34.722 27.8211 37.3749 25.5162C37.4028 25.4837 37.4191 25.4429 37.4213 25.4002V24.3096C37.4213 24.2883 37.4171 24.2672 37.4089 24.2475C37.4008 24.2278 37.3888 24.2099 37.3737 24.1948C37.3586 24.1797 37.3407 24.1677 37.321 24.1596C37.3013 24.1514 37.2802 24.1472 37.2589 24.1472L37.1815 24.1859C36.2802 24.6729 35.2472 24.8605 34.2321 24.7215C33.217 24.5824 32.2726 24.124 31.5354 23.4124L31.4658 23.3506C31.4459 23.3428 31.4238 23.3428 31.4039 23.3506H31.3962C31.3608 23.3593 31.3302 23.3815 31.3111 23.4124C30.6304 23.9306 27.4438 26.0576 24.6904 23.4511L24.644 23.4124C24.6304 23.3972 24.6137 23.3852 24.595 23.3772C24.5763 23.3692 24.556 23.3654 24.5357 23.366C24.5153 23.3648 24.4949 23.3684 24.4761 23.3764C24.4573 23.3845 24.4406 23.3968 24.4274 23.4124L24.381 23.4511C21.5811 26.0576 18.4409 23.9306 17.7526 23.4124C17.7455 23.3967 17.7349 23.3829 17.7214 23.3721C17.7079 23.3614 17.6921 23.354 17.6752 23.3506H17.6288C17.6062 23.3434 17.5819 23.3434 17.5592 23.3506L17.4896 23.4124C16.7537 24.1233 15.8105 24.5814 14.7968 24.7205C13.7831 24.8596 12.7514 24.6723 11.8512 24.1859L11.7738 24.1472C11.7525 24.1472 11.7314 24.1514 11.7117 24.1596C11.692 24.1677 11.6741 24.1797 11.659 24.1948C11.6439 24.2099 11.6319 24.2278 11.6238 24.2475C11.6156 24.2672 11.6114 24.2883 11.6114 24.3096V25.4002C11.6107 25.4217 11.6144 25.4431 11.6224 25.4631C11.6304 25.4831 11.6425 25.5012 11.6578 25.5162C14.3108 27.8365 16.8244 25.6632 17.4045 25.0908" fill="white"/>
<path d="M11.7505 20.1717C11.7296 20.1707 11.7086 20.1739 11.689 20.1812C11.6693 20.1885 11.6513 20.1997 11.6361 20.2142C11.6209 20.2287 11.6088 20.2461 11.6006 20.2654C11.5923 20.2847 11.5881 20.3054 11.5881 20.3264V21.4247C11.5869 21.4451 11.5905 21.4655 11.5985 21.4843C11.6066 21.5031 11.6189 21.5198 11.6345 21.533C14.2874 23.8533 16.8011 21.6799 17.3812 21.1076V21.0612C17.4117 21.0533 17.4436 21.0533 17.474 21.0612C17.5112 21.0609 17.5472 21.0747 17.5746 21.0999C20.5756 23.9616 23.7157 21.6413 24.3732 21.0999L24.435 21.0457C24.4549 21.038 24.477 21.038 24.4969 21.0457C24.5169 21.0386 24.5388 21.0386 24.5588 21.0457L24.6207 21.0999C25.2781 21.6413 28.4183 23.9616 31.4115 21.0999C31.442 21.0748 31.4803 21.0611 31.5198 21.0612C31.5476 21.0532 31.5771 21.0532 31.6049 21.0612L31.6513 21.1076C32.2314 21.6799 34.7451 23.8379 37.398 21.533C37.411 21.4981 37.411 21.4596 37.398 21.4247V20.3264C37.3991 20.3058 37.3959 20.2852 37.3885 20.2659C37.3811 20.2466 37.3698 20.2292 37.3552 20.2146C37.3406 20.2 37.3231 20.1886 37.3038 20.1812C37.2845 20.1739 37.2639 20.1706 37.2433 20.1717L37.166 20.2181C36.2643 20.704 35.2316 20.8909 34.2168 20.7519C33.202 20.6129 32.2576 20.1551 31.5198 19.4447L31.4502 19.3828H31.3883H31.3961C31.3635 19.3969 31.3344 19.418 31.311 19.4447C30.6303 19.9706 27.4437 22.0976 24.6903 19.4834L24.6439 19.4447C24.6145 19.4168 24.5761 19.4004 24.5356 19.3983C24.4948 19.3989 24.4559 19.4155 24.4273 19.4447L24.3809 19.4834C21.581 22.0976 18.4408 19.9706 17.7525 19.4447C17.7338 19.4165 17.7067 19.3949 17.6751 19.3828H17.6287H17.5591L17.4972 19.4447C16.7594 20.1551 15.815 20.6129 14.8003 20.7519C13.7855 20.8909 12.7528 20.704 11.8511 20.2181L11.7737 20.1717" fill="white"/>
</svg>
