<svg width="148" height="148" viewBox="0 0 148 148" fill="none" xmlns="http://www.w3.org/2000/svg">
<rect x="0.078125" y="0.293457" width="147.293" height="147.293" fill="#FCC30B"/>
<path d="M15.1875 16.7091H22.8983L16.2377 42.3338H21.1897L27.7163 17.235V12.635H15.1875V16.7091Z" fill="white"/>
<path fill-rule="evenodd" clip-rule="evenodd" d="M73.7247 71.6558C64.9913 71.6522 57.1159 76.9104 53.7715 84.978C50.427 93.0456 52.2723 102.334 58.4467 108.51C64.621 114.687 73.9083 116.535 81.9771 113.193C90.0459 109.852 95.3067 101.978 95.3061 93.2446C95.3069 81.3239 85.6453 71.659 73.7247 71.6558ZM72.1285 80.1841C72.1285 79.4668 72.8488 78.6743 73.7355 78.6743C74.6222 78.6743 75.3336 79.4668 75.3336 80.1841V87.5974C75.3336 88.3117 74.6193 89.0953 73.7355 89.0953C72.8517 89.0953 72.1285 88.3117 72.1285 87.5974V80.1841ZM62.6388 94.7645C63.472 100.245 68.1797 104.298 73.7232 104.306C79.2761 104.305 83.9945 100.246 84.8243 94.755C85.6541 89.2643 82.3463 83.9916 77.0417 82.3495V86.5311C80.0751 88.0657 81.6599 91.4806 80.8737 94.7878C80.0874 98.0951 77.1353 100.431 73.7359 100.437C70.3364 100.442 67.3771 98.1148 66.5806 94.81C65.7841 91.5051 67.3583 88.0854 70.387 86.5414V82.3598C65.0965 84.0155 61.8057 89.284 62.6388 94.7645Z" fill="white"/>
<path d="M48.9374 93.0561C48.9374 92.0766 48.0698 91.2886 47.2789 91.2886H37.8241C37.0273 91.2886 36.1523 92.081 36.1523 93.0561C36.1523 94.0312 37.0273 94.8339 37.8241 94.8339H47.2789C48.0698 94.8339 48.9374 94.0371 48.9374 93.0561Z" fill="white"/>
<path d="M111.291 93.0561C111.291 92.0766 110.424 91.2886 109.633 91.2886H100.18C99.3827 91.2886 98.5078 92.081 98.5078 93.0561C98.5078 94.0312 99.3827 94.8339 100.18 94.8339H109.633C110.424 94.8339 111.291 94.0371 111.291 93.0561Z" fill="white"/>
<path d="M73.7222 68.2741C74.6987 68.2741 75.4897 67.4065 75.4897 66.6156V57.1608C75.4897 56.3639 74.6958 55.489 73.7222 55.489C72.7486 55.489 71.9414 56.3639 71.9414 57.1608V66.6156C71.9414 67.4065 72.7412 68.2741 73.7222 68.2741Z" fill="white"/>
<path d="M73.7222 130.628C74.6987 130.628 75.4897 129.76 75.4897 128.969V119.516C75.4897 118.721 74.6958 117.844 73.7222 117.844C72.7486 117.844 71.9414 118.721 71.9414 119.516V128.969C71.9414 129.76 72.7412 130.628 73.7222 130.628Z" fill="white"/>
<path d="M52.2174 80.7439C52.7049 79.894 52.347 78.7761 51.6577 78.3872L43.4534 73.6915C42.7612 73.2953 41.6093 73.5442 41.1218 74.3985C40.6342 75.2528 40.9995 76.3766 41.6903 76.7729L49.8961 81.4686C50.5824 81.8619 51.7313 81.6012 52.2174 80.7483" fill="white"/>
<path d="M106.33 111.717C106.815 110.87 106.457 109.749 105.771 109.36L97.5664 104.664C96.8741 104.27 95.7208 104.517 95.2348 105.373C94.7487 106.229 95.111 107.351 95.8018 107.746L104.008 112.441C104.694 112.835 105.843 112.574 106.33 111.721" fill="white"/>
<path d="M86.04 71.5498C86.8884 72.0344 88.0063 71.6765 88.3967 70.9901L93.0909 62.7844C93.4886 62.0921 93.2382 60.9388 92.3854 60.4527C91.5325 59.9667 90.4058 60.329 90.011 61.0213L85.3197 69.227C84.9264 69.9149 85.1872 71.0637 86.04 71.5513" fill="white"/>
<path d="M55.0673 125.669C55.9157 126.153 57.0337 125.795 57.424 125.107L62.1183 116.903C62.5145 116.212 62.2656 115.058 61.4113 114.571C60.557 114.085 59.4375 114.446 59.0428 115.14L54.3471 123.344C53.9538 124.031 54.2145 125.181 55.0673 125.669Z" fill="white"/>
<path d="M61.3736 71.5703C62.2205 71.0828 62.4768 69.9354 62.082 69.249L57.3687 61.0536C56.971 60.3628 55.8486 60.0004 55.0002 60.488C54.1518 60.9755 53.894 62.1332 54.2932 62.824L59.0066 71.018C59.4028 71.7044 60.5237 72.0593 61.3765 71.5703" fill="white"/>
<path d="M92.4515 125.626C93.2999 125.138 93.5548 123.991 93.1615 123.306L88.4481 115.11C88.0504 114.418 86.928 114.056 86.0781 114.543C85.2282 115.031 84.9719 116.189 85.3726 116.881L90.086 125.075C90.4807 125.761 91.6031 126.115 92.4545 125.626" fill="white"/>
<path d="M95.2117 80.7054C95.6992 81.5538 96.8451 81.8086 97.5315 81.4154L105.725 76.702C106.418 76.3043 106.783 75.1805 106.294 74.3321C105.805 73.4837 104.65 73.2274 103.958 73.6251L95.764 78.3384C95.0762 78.7332 94.7226 79.857 95.2117 80.7069" fill="white"/>
<path d="M41.157 111.795C41.6445 112.643 42.7905 112.898 43.4783 112.503L51.6722 107.79C52.3631 107.392 52.7283 106.268 52.2379 105.42C51.7474 104.572 50.5941 104.315 49.9033 104.711L41.7093 109.425C41.0215 109.818 40.668 110.943 41.157 111.793" fill="white"/>
<path fill-rule="evenodd" clip-rule="evenodd" d="M44.1048 12.6172L41.832 24.6555H43.7498L44.1048 22.4549H46.2494L46.622 24.6555H48.7047L46.4143 12.6172H44.1048ZM45.9935 20.8377H44.3732L45.1774 16.0079H45.1951L45.9935 20.8377Z" fill="white"/>
<path d="M49.4531 12.6172H54.1945V14.2683H51.4769V17.7135H53.5022V19.347H51.4769V24.6496H49.4531V12.6172Z" fill="white"/>
<path d="M54.9883 12.6172H59.7297V14.2683H57.0121V17.7135H59.0374V19.347H57.0121V24.6496H54.9883V12.6172Z" fill="white"/>
<path fill-rule="evenodd" clip-rule="evenodd" d="M60.3555 15.7239V21.5494C60.3555 23.4185 61.2672 24.7986 63.4162 24.7986C65.5652 24.7986 66.4888 23.4141 66.4888 21.5494V15.7239C66.4888 13.8415 65.5535 12.4746 63.4162 12.4746C61.279 12.4746 60.3555 13.8444 60.3555 15.7239ZM64.4586 15.4043V21.869C64.4586 22.5966 64.1213 23.1122 63.4099 23.1122C62.6985 23.1122 62.3788 22.5966 62.3788 21.869V15.4043C62.3788 14.6767 62.6808 14.1611 63.4099 14.1611C64.139 14.1611 64.4586 14.6767 64.4586 15.4043Z" fill="white"/>
<path fill-rule="evenodd" clip-rule="evenodd" d="M69.5688 24.6555V19.1334L71.4689 24.6569H73.5987L71.6633 19.1879C72.8225 18.9243 73.2835 18.1584 73.2835 16.8622V15.3171C73.2835 13.6291 72.5353 12.6172 70.4849 12.6172H67.5391V24.6555H69.5688ZM69.5672 18.0185V14.2729L70.2418 14.2802C70.9356 14.2802 71.2375 14.5999 71.2375 15.2568V17.0243C71.2375 17.6636 70.9356 18.0185 70.2418 18.0185H69.5672Z" fill="white"/>
<path fill-rule="evenodd" clip-rule="evenodd" d="M80.3541 21.4239V15.8488C80.3541 13.9914 79.5852 12.6172 77.4185 12.6172H74.293V24.6555H77.4244C79.5911 24.6555 80.3541 23.2709 80.3541 21.4239ZM78.3287 21.7789C78.3287 22.508 78.0091 23.0043 77.174 23.0043H76.3211V14.2684H77.174C78.0091 14.2684 78.3287 14.7647 78.3287 15.4747V21.7789Z" fill="white"/>
<path fill-rule="evenodd" clip-rule="evenodd" d="M83.097 12.6172L80.8242 24.6555H82.742L83.097 22.4549H85.246L85.6186 24.6555H87.697L85.4065 12.6172H83.097ZM84.9856 20.8377H83.3654L84.1652 16.0079H84.1829L84.9856 20.8377Z" fill="white"/>
<path fill-rule="evenodd" clip-rule="evenodd" d="M88.4414 12.6172H91.3711C93.3963 12.6172 94.0709 13.5569 94.0709 15.2685V16.4954C94.0709 17.5073 93.6968 18.1466 92.8631 18.4102C93.875 18.64 94.3729 19.3161 94.3729 20.4164V22.0145C94.3729 23.7187 93.6084 24.6658 91.5846 24.6658H88.4414V12.6172ZM90.4648 17.6959H91.1762C91.8331 17.6959 92.1351 17.3571 92.1351 16.7179V15.2449C92.1351 14.588 91.8405 14.2684 91.1585 14.2684H90.4648V17.6959ZM90.4648 23.0044V19.2396H91.3309C92.0408 19.2396 92.3428 19.5769 92.3428 20.2161V22.0278C92.3428 22.6671 92.0231 23.0044 91.3485 23.0044H90.4648Z" fill="white"/>
<path d="M95.2969 12.6172H97.3221V23.0043H99.7363V24.6555H95.2969V12.6172Z" fill="white"/>
<path d="M100.571 12.6172H105.403V14.2683H102.595V17.7135H104.601V19.347H102.595V23.0043H105.394V24.6555H100.562L100.571 12.6172Z" fill="white"/>
<path fill-rule="evenodd" clip-rule="evenodd" d="M110.12 12.6172L107.848 24.6555H109.765L110.12 22.4549H112.269L112.642 24.6555H114.72L112.428 12.6172H110.12ZM112.009 20.8377H110.389L111.192 16.0079H111.211L112.009 20.8377Z" fill="white"/>
<path d="M117.176 17.092V24.6555H115.469V12.6172H117.457L119.642 19.5238V12.6172H121.328V24.6555H119.553L117.176 17.092Z" fill="white"/>
<path fill-rule="evenodd" clip-rule="evenodd" d="M128.45 21.4239V15.8488C128.45 13.9914 127.687 12.6172 125.52 12.6172H122.395V24.6555H125.52C127.687 24.6555 128.45 23.2709 128.45 21.4239ZM126.434 21.7789C126.434 22.508 126.114 23.0043 125.279 23.0043H124.427V14.2684H125.279C126.114 14.2684 126.434 14.7647 126.434 15.4747V21.7789Z" fill="white"/>
<path d="M42.1367 39.2278V33.4348C42.1367 31.5627 43.0205 30.1943 45.14 30.1943C47.3656 30.1943 47.9843 31.4316 47.9843 33.1977V34.6131H46.146V33.0445C46.146 32.308 45.8986 31.8794 45.1754 31.8794C44.4522 31.8794 44.1443 32.3905 44.1443 33.1152V39.546C44.1443 40.2707 44.4389 40.7818 45.1754 40.7818C45.9119 40.7818 46.146 40.3222 46.146 39.6167V37.4117H47.9843V39.4738C47.9843 41.1869 47.2773 42.4595 45.14 42.4595C43.0028 42.4595 42.1367 41.0823 42.1367 39.2278Z" fill="white"/>
<path d="M49.2569 30.3416H51.2704V40.6756H53.6727V42.3194H49.2539L49.2569 30.3416Z" fill="white"/>
<path d="M54.7656 30.3416H59.5703V31.9853H56.785V35.4114H58.7809V37.0316H56.785V40.6698H59.5836V42.3136H54.7656V30.3416Z" fill="white"/>
<path fill-rule="evenodd" clip-rule="evenodd" d="M62.7688 30.3416L60.5078 42.3194H62.4153L62.7688 40.1292H64.9104L65.2816 42.3194H67.3437L65.0651 30.3416H62.7688ZM64.6416 38.5208H63.0346L63.8285 33.7161H63.8462L64.6416 38.5208Z" fill="white"/>
<path d="M70.0401 34.7942V42.3194H68.3477V30.3416H70.3346L72.5072 37.2143V30.3416H74.1849V42.3194H72.4174L70.0401 34.7942Z" fill="white"/>
<path d="M79.5703 30.3416H84.375V31.9853H81.5838V35.4114H83.5797V37.0316H81.5838V40.6698H84.375V42.3136H79.5703V30.3416Z" fill="white"/>
<path d="M87.2794 34.7942V42.3194H85.5781V30.3416H87.5563L89.7288 37.2143V30.3416H91.4036V42.3194H89.6361L87.2794 34.7942Z" fill="white"/>
<path d="M92.7109 30.3416H97.5156V31.9853H94.7244V35.4114H96.7203V37.0316H94.7244V40.6698H97.5156V42.3136H92.7109V30.3416Z" fill="white"/>
<path fill-rule="evenodd" clip-rule="evenodd" d="M100.749 42.3165V36.8225L102.639 42.3194H104.759L102.834 36.8784C103.981 36.6133 104.441 35.8533 104.441 34.5644V33.0267C104.441 31.349 103.7 30.3416 101.667 30.3416H98.7344V42.3165H100.749ZM100.748 35.709V31.9825H101.415C102.111 31.9825 102.405 32.2992 102.405 32.9532V34.7207C102.405 35.3555 102.105 35.709 101.415 35.709H100.748Z" fill="white"/>
<path d="M108.752 35.924H111.614V42.3195H110.166V41.0116C109.901 41.913 109.335 42.4609 108.241 42.4609C106.509 42.4609 105.715 41.0823 105.715 39.2278V33.4348C105.715 31.5627 106.615 30.1943 108.734 30.1943C110.961 30.1943 111.614 31.4316 111.614 33.1976V34.2582H109.777V33.0386C109.777 32.3021 109.494 31.8735 108.771 31.8735C108.048 31.8735 107.728 32.3846 107.728 33.1093V39.5401C107.728 40.2648 108.023 40.7759 108.717 40.7759C109.371 40.7759 109.707 40.4047 109.707 39.6285V37.5148H108.752V35.924Z" fill="white"/>
<path d="M116.823 37.7607V42.3194H114.81V37.7607L112.566 30.3416H114.673L115.892 34.8826H115.91L117.124 30.3416H119.049L116.823 37.7607Z" fill="white"/>
</svg>
