<svg width="148" height="148" viewBox="0 0 148 148" fill="none" xmlns="http://www.w3.org/2000/svg">
<rect x="0.542969" y="-0.000244141" width="147.293" height="147.293" fill="#26BDE2"/>
<path fill-rule="evenodd" clip-rule="evenodd" d="M30.1853 34.9405C30.1853 39.5405 28.1306 42.4333 22.828 42.4333C17.5697 42.4333 15.5547 39.103 15.5547 34.503V20.0477C15.5547 15.405 17.5269 12.0334 22.7824 12.0334C28.3015 12.0334 29.7479 15.0986 29.7479 19.4791V21.0625H25.1921V19.0859C25.1921 17.2462 24.6663 16.1945 22.8708 16.1945C21.0752 16.1945 20.5052 17.4627 20.5052 19.2611V25.6566H20.5479C21.2932 24.2117 22.5629 23.2454 24.6648 23.2454C28.2587 23.2454 30.1853 25.6993 30.1853 30.56V34.9405ZM22.8684 27.2327C21.2908 27.2327 20.5897 28.2843 20.5028 29.9473V35.3809C20.5028 37.2206 21.1583 38.3592 22.8256 38.3592C24.5342 38.3592 25.2324 37.2633 25.2324 35.3809V30.2124C25.2324 28.2843 24.5755 27.2327 22.8684 27.2327Z" fill="white"/>
<path d="M45.686 24.4106C47.835 24.4106 48.5435 23.1336 48.5435 21.4087V19.3304H46.6964V21.5516C46.6964 22.2616 46.4505 22.73 45.7199 22.73C44.9893 22.73 44.6888 22.2159 44.6888 21.4868V15.0206C44.6888 14.293 44.9937 13.7775 45.7199 13.7775C46.446 13.7775 46.6964 14.2032 46.6964 14.9558V16.5363H48.5435V15.1149C48.5435 13.34 47.9234 12.0954 45.686 12.0954C43.5517 12.0777 42.668 13.4505 42.668 15.3344V21.1598C42.668 23.026 43.5517 24.4106 45.6875 24.4106" fill="white"/>
<path d="M54.2666 22.6181H51.8524V12.2251H49.8242V24.2708H54.2666V22.6181Z" fill="white"/>
<path d="M60.197 22.6181H57.391V18.9594H59.3971V17.3229H57.391V13.8777H60.197V12.2251H55.3672V24.2708H60.197V22.6181Z" fill="white"/>
<path fill-rule="evenodd" clip-rule="evenodd" d="M65.5624 22.0672H63.4148L63.0554 24.2693H61.1406L63.4148 12.2251H65.72L68.0075 24.2766H65.9365L65.5624 22.0672ZM64.4975 15.6129H64.4798L63.677 20.4426H65.2973L64.4975 15.6129Z" fill="white"/>
<path d="M70.7252 16.7028L73.104 24.2708H74.8788V12.2251H73.1923V19.1361L71.0095 12.2251H69.0195V24.2708H70.7252V16.7028Z" fill="white"/>
<path d="M82.4002 24.2693L83.5373 16.8265H83.5535L84.7436 24.2693H86.6628L88.2242 12.2266H86.5214L85.5964 19.8637H85.5788L84.4608 12.2266H82.8097L81.7977 19.8637H81.7801L80.8374 12.2266H78.8828L80.5016 24.2693H82.4002Z" fill="white"/>
<path fill-rule="evenodd" clip-rule="evenodd" d="M92.6781 22.0672H90.5276L90.1726 24.2693H88.2578L90.5276 12.2251H92.8357L95.1276 24.2766H93.0493L92.6781 22.0672ZM91.6098 15.6129H91.5936L90.7894 20.4426H92.4097L91.6098 15.6129Z" fill="white"/>
<path d="M96.5438 24.2693H98.5868V13.8777H100.256V12.2251H94.875V13.8777H96.5438V24.2693Z" fill="white"/>
<path d="M106.037 22.6181H103.231V18.9594H105.237V17.3229H103.231V13.8777H106.037V12.2251H101.207V24.2708H106.037V22.6181Z" fill="white"/>
<path fill-rule="evenodd" clip-rule="evenodd" d="M111.055 24.2708L109.156 18.7428L109.161 24.2708H107.137V12.2251H110.083C112.126 12.2251 112.871 13.2385 112.871 14.9265V16.4716C112.871 17.7663 112.405 18.5337 111.251 18.7973L113.188 24.2708H111.055ZM109.831 13.8823H109.155V17.6265H109.831C110.521 17.6265 110.824 17.27 110.824 16.6293V14.8574C110.824 14.2019 110.521 13.8823 109.831 13.8823Z" fill="white"/>
<path fill-rule="evenodd" clip-rule="evenodd" d="M46.8514 39.825H44.7024L44.3445 42.0271H42.4297L44.7024 29.9844H47.0017L49.295 42.0271H47.2241L46.8514 39.825ZM45.7893 33.3766H45.7687L44.9659 38.2093H46.5862L45.7893 33.3766Z" fill="white"/>
<path d="M50.1328 29.9844V42.03H51.837V34.4621L54.2158 42.03H55.9892V29.9844H54.3056V36.8954L52.1213 29.9844H50.1328Z" fill="white"/>
<path fill-rule="evenodd" clip-rule="evenodd" d="M60.5953 42.0285H57.4727V29.9858H60.5953C62.7605 29.9858 63.5249 31.3542 63.5249 33.2175V38.7954C63.5249 40.6425 62.7605 42.0285 60.5953 42.0285ZM60.3426 31.6355H59.4956L59.4912 40.3759H60.3426C61.1792 40.3759 61.4959 39.878 61.4959 39.1519V32.8448C61.4959 32.1334 61.1792 31.6355 60.3426 31.6355Z" fill="white"/>
<path d="M68.0234 37.8189V39.4392C68.0234 41.0181 68.8247 42.1759 70.8824 42.1759C72.9401 42.1759 73.8283 40.9975 73.8283 39.3493V38.7601C73.8283 37.4345 73.298 36.7525 72.1977 35.6331L70.9001 34.3546C70.3109 33.7875 69.9412 33.3942 69.9412 32.7226V32.4707C69.9412 31.7961 70.3315 31.478 70.9001 31.478C71.5393 31.478 71.859 31.8153 71.859 32.509V33.5592H73.706V32.5797C73.706 30.8387 72.9077 29.8445 70.8824 29.8445C68.9116 29.8445 68.0426 30.9993 68.0426 32.4958V32.9023C68.0426 34.2883 68.5758 34.9821 69.7291 36.1177L70.9178 37.3093C71.5393 37.8985 71.8221 38.3212 71.8221 39.012V39.4745C71.8221 40.1138 71.5393 40.5409 70.9001 40.5409C70.2093 40.5409 69.9073 40.1506 69.9073 39.4745V37.8189H68.0234Z" fill="white"/>
<path fill-rule="evenodd" clip-rule="evenodd" d="M76.6814 39.8191L76.3264 42.0285H74.4102L76.6814 29.9858H78.988L81.2799 42.0285H79.2031L78.8304 39.8191H76.6814ZM77.7637 33.3796H77.746L76.9418 38.2094H78.562L77.7637 33.3796Z" fill="white"/>
<path d="M86.4477 36.8954L84.2634 29.9858H82.2734V42.03H83.9806V34.4621L86.3579 42.03H88.1327V29.9858H86.4477V36.8954Z" fill="white"/>
<rect x="89.7812" y="29.9844" width="2.02531" height="12.0442" fill="white"/>
<path d="M96.4354 42.03V31.637H98.1057V29.9873H92.7266V31.637H94.3939V42.03H96.4354Z" fill="white"/>
<path fill-rule="evenodd" clip-rule="evenodd" d="M99.9148 29.9858H102.22L104.509 42.0285H102.432L102.059 39.8265H99.9134L99.5554 42.0285H97.6406L99.9148 29.9858ZM100.978 33.3796L100.177 38.2094H101.794L100.994 33.3796H100.978Z" fill="white"/>
<path d="M109.246 29.9858H103.867V31.637H105.537V42.03H107.58V31.637H109.246V29.9858Z" fill="white"/>
<rect x="110.352" y="29.9844" width="2.02385" height="12.0442" fill="white"/>
<path fill-rule="evenodd" clip-rule="evenodd" d="M119.813 38.9205C119.813 40.7867 118.893 42.1727 116.744 42.1727C114.614 42.1727 113.688 40.7867 113.688 38.9205V33.0935C113.688 31.2097 114.595 29.8428 116.744 29.8428C118.893 29.8428 119.813 31.2097 119.813 33.0935V38.9205ZM116.742 31.5308C116.029 31.5308 115.711 32.0463 115.711 32.774V39.2401C115.711 39.9678 116.014 40.4833 116.742 40.4833C117.47 40.4833 117.789 39.9678 117.789 39.2401V32.774C117.789 32.0463 117.455 31.5308 116.742 31.5308Z" fill="white"/>
<path d="M126.99 42.03V29.9873H125.303V36.8954L123.119 29.9873H121.129V42.03H122.835V34.4606L125.213 42.03H126.99Z" fill="white"/>
<path fill-rule="evenodd" clip-rule="evenodd" d="M101.386 59.5594C101.262 59.4237 101.087 59.347 100.903 59.3488H47.4649C47.2814 59.3419 47.1047 59.4191 46.9851 59.5585C46.8655 59.6979 46.816 59.8843 46.8507 60.0647L55.8356 114.361C55.8864 114.662 56.1462 114.883 56.4513 114.884H67.4703L68.2245 123.722H63.5877L74.3769 134.51L85.1912 123.697H80.5559L81.3012 114.889H92.5146C92.8238 114.89 93.0859 114.662 93.1274 114.356L101.523 60.0691C101.553 59.8874 101.503 59.7018 101.386 59.5594ZM80.7322 103.028C79.0006 104.61 76.6961 105.414 74.3559 105.252C72.0132 105.415 69.7058 104.612 67.9722 103.028C63.9687 99.0285 65.3975 94.0529 66.7938 91.4812C67.654 89.8713 73.805 80.6345 74.3352 79.845V79.7831L74.3588 79.8126L74.3794 79.7831V79.845C74.4551 79.9605 74.6526 80.2582 74.9372 80.6871L74.9385 80.6889C76.5927 83.1819 81.1827 90.0993 81.9164 91.4812C83.3083 94.0529 84.7327 99.0285 80.7322 103.028ZM92.6379 71.2885C94.3995 70.5756 96.2363 70.3458 97.6842 70.9836L99.1969 61.7041H49.1892L51.2941 72.4948C54.8659 72.5223 57.824 71.4583 60.979 70.3235C61.0401 70.3015 61.1014 70.2795 61.1627 70.2574C64.8197 68.9397 68.0532 70.2464 71.3029 71.5596C72.3686 71.9903 73.4361 72.4217 74.5208 72.7614C81.4937 74.9428 86.0097 73.9766 92.6379 71.2885Z" fill="white"/>
</svg>
