<svg width="148" height="148" viewBox="0 0 148 148" fill="none" xmlns="http://www.w3.org/2000/svg">
<rect x="0.078125" y="0.586914" width="147.293" height="147.293" fill="#3F7E44"/>
<path d="M18.6687 12.9419V42.6274H13.677V19.9045H13.6328L10.1316 23.5382H10.0859V18.3269L14.683 12.9419H18.6687Z" fill="white"/>
<path d="M35.1346 19.3801V21.9621C35.1346 24.4558 33.778 26.1202 31.7203 26.7786C34.2155 27.3472 35.4026 29.0985 35.4026 31.8131V36.1922C35.4026 40.3061 33.2139 42.978 28.1779 42.978C23.0978 42.978 21.3008 40.0881 21.3008 35.5779V31.682H25.8551V35.9373C25.8551 37.6887 26.4664 38.8243 28.1764 38.8243C29.7068 38.8243 30.4065 37.7314 30.4065 36.1539V31.2446C30.4065 29.6671 29.7068 28.8363 27.957 28.8363H25.8551V25.0273H27.739C29.3592 25.0273 30.4065 24.1936 30.4065 22.6191V19.4228C30.4065 17.8026 29.8394 16.7524 28.2633 16.7524C26.6873 16.7524 26.1187 17.8026 26.1187 19.6408V22.6618H21.5585V20.0297C21.5585 15.6506 23.3541 12.5854 28.5211 12.5854C33.1196 12.5854 35.1331 15.1704 35.1331 19.3742" fill="white"/>
<path fill-rule="evenodd" clip-rule="evenodd" d="M127.79 92.7923C123.909 87.3557 106.355 65.624 73.7202 65.624C41.0859 65.624 23.5403 87.3557 19.6532 92.7923C19.5528 92.9339 19.4606 93.0668 19.3779 93.1859C19.3247 93.2626 19.2755 93.3336 19.2305 93.3977C19.3214 93.5364 19.4298 93.6908 19.5529 93.866L19.553 93.8661L19.6532 94.0089C23.5403 99.4544 41.0888 121.188 73.7202 121.188C106.352 121.188 123.909 99.4544 127.79 94.0148C127.96 93.7792 128.099 93.5729 128.21 93.4036C128.1 93.2327 127.96 93.0309 127.79 92.7982V92.7923ZM55.5216 79.3652C55.7456 79.0371 56.3637 78.2467 56.699 77.818C56.8047 77.6828 56.8823 77.5836 56.9106 77.5461C57.1456 77.2438 57.596 77.1658 57.9388 77.1065L58.0109 77.0939C58.36 77.0321 58.8195 77.2221 58.8755 77.4828C58.9314 77.7435 58.7414 78.7539 58.5706 78.9277C58.0919 79.4241 56.8458 80.1252 56.1594 80.0148C55.6277 79.9337 55.4229 79.5228 55.5216 79.3652ZM54.4259 81.6007C54.4052 81.6242 54.3804 81.6523 54.3545 81.6834L54.353 81.6879C53.6943 82.7675 53.1277 83.9008 52.6592 85.0756C52.8423 85.1646 53.051 85.186 53.2483 85.136C53.7714 85.0192 54.5644 84.2074 55.2599 83.4952L55.26 83.4952L55.26 83.4951C55.5203 83.2287 55.7669 82.9762 55.9806 82.7793C56.0712 82.6926 56.2932 82.5609 56.5479 82.4098C57.0715 82.0991 57.7334 81.7064 57.676 81.4537C57.5905 81.0781 56.829 80.8012 56.2649 80.8895L56.1619 80.9055C55.6052 80.9911 54.8589 81.1059 54.4723 81.5465C54.4628 81.5589 54.4464 81.5775 54.4259 81.6007ZM66.5636 106.74C66.1281 108.453 65.621 109.086 65.1862 109.628L65.1673 109.652C64.7283 110.2 63.1052 110.914 62.0741 110.837C61.0431 110.761 60.8958 108.002 60.8958 106.582C60.8958 106.443 60.8393 106.461 60.7503 106.49C60.527 106.563 60.0987 106.703 59.8397 104.592C59.7118 103.547 59.2835 103.718 58.9116 103.867C58.6111 103.987 58.3475 104.092 58.3093 103.529C58.2541 102.714 57.9815 102.532 57.6247 102.293C57.429 102.161 57.208 102.013 56.9837 101.735C56.5094 101.146 55.946 101.482 55.3206 101.855C55.1107 101.98 54.8939 102.109 54.6712 102.209C54.4335 102.315 54.286 102.408 54.1734 102.478C53.8657 102.671 53.8179 102.701 52.9036 102.412C52.8835 102.406 52.8696 102.4 52.8545 102.394L52.844 102.389C52.8379 102.387 52.8314 102.384 52.8241 102.381C51.6359 99.5812 51.0237 96.5706 51.0242 93.5289C51.0242 92.7615 51.0654 92.0059 51.1376 91.2606C51.1775 91.1857 51.2243 91.1147 51.2775 91.0485C52.4794 89.6256 52.4559 89.2928 52.4559 89.2928L53.7815 88.8332C53.7815 88.8332 55.9055 89.1602 57.5051 89.7626C57.7662 89.8603 58.0567 89.9826 58.3642 90.1119C59.6094 90.6357 61.1329 91.2766 62.105 90.882C62.9785 90.5226 63.6605 90.0454 63.578 89.3193C63.4808 88.4075 62.762 88.191 61.8929 88.8052C61.7409 88.9131 61.5065 88.6073 61.2448 88.266C60.9564 87.8897 60.6348 87.4702 60.3537 87.5134C60.0748 87.5564 60.2655 88.0632 60.4487 88.5505C60.6178 89 60.7805 89.4328 60.5629 89.4695C60.1372 89.5414 59.3031 87.8263 59.0728 87.3528L59.0727 87.3527L59.0727 87.3526L59.0355 87.2763C58.8793 86.9596 58.1738 86.1775 57.539 86.7755C56.6395 87.6305 55.3634 87.8766 54.4889 88.0452C54.0602 88.1279 53.728 88.1919 53.5841 88.3C52.2585 89.2957 51.902 87.9715 51.9315 87.1658C51.9845 86.9817 52.039 86.7961 52.0979 86.6135C52.5325 86.1348 54.0923 85.9757 54.6284 86.3322C55.1892 86.7065 55.5979 86.2775 55.8341 86.0295L55.8686 85.9934C56.0984 85.7548 56.0159 85.3821 55.8686 85.0699C55.7214 84.7576 56.1632 84.5219 56.4667 84.4409C56.6769 84.3848 57.2287 84.0267 57.6825 83.7322C57.8837 83.6017 58.0656 83.4836 58.19 83.4099C58.595 83.1698 60.694 82.9194 61.6411 83.3907C62.4103 83.7972 63.3595 83.6056 63.9109 82.9326C64.3744 82.3804 64.9325 81.915 65.5591 81.5584C65.889 81.4111 64.7475 80.3403 63.8107 81.5009C62.8739 82.6616 62.3923 82.7618 61.9504 82.7618C61.5085 82.7618 58.8837 82.1078 58.5626 81.2785C58.2415 80.4493 59.3845 79.8292 60.3523 79.3637C60.9919 79.0561 62.3669 78.9563 63.4214 78.8797C63.9624 78.8405 64.4191 78.8073 64.6488 78.7554C64.9425 78.691 65.2537 78.6088 65.5702 78.5253L65.5703 78.5253L65.5704 78.5252C66.7378 78.2171 67.9768 77.89 68.6743 78.3651C69.073 78.6366 68.3644 78.995 67.6007 79.3813C66.6657 79.8543 65.648 80.3692 66.4782 80.8175C66.8771 81.0367 68.3211 80.1576 69.3771 79.5149C69.7405 79.2937 70.0579 79.1005 70.271 78.9896C71.2475 78.4863 70.7751 78.1513 70.1202 77.6868C69.4641 77.2216 68.6248 76.6264 68.8746 75.6018C69.3584 73.6163 65.5389 73.9919 62.7753 74.2637C62.3162 74.3089 61.8862 74.3512 61.51 74.3793C67.7031 70.4175 75.43 69.6961 82.2494 72.4431C89.0688 75.1901 94.1382 81.0661 95.8558 88.2146C95.8692 88.5691 95.832 88.9237 95.7454 89.2677C95.5392 90.0867 93.9779 90.7907 93.0838 89.4724C92.854 89.1396 91.8789 88.219 91.9054 89.7935C91.9162 90.4339 92.1716 90.8407 92.3731 91.1615C92.6669 91.6295 92.846 91.9147 91.9835 92.4758C90.9528 93.1462 90.5203 93.2265 90.1165 93.3016C89.9508 93.3324 89.7899 93.3622 89.5944 93.4317C88.9228 93.6703 88.2688 95.292 88.4352 96.1596C88.4888 96.4387 88.7391 96.8736 89.0029 97.3318C89.5591 98.298 90.1749 99.3678 89.1319 99.2999C88.771 99.2719 86.0549 97.4174 85.6072 96.2244C85.3244 95.4753 85.027 94.7362 84.7552 94.0607C84.5711 93.6032 84.3987 93.1749 84.2506 92.7924C83.8838 91.8453 82.925 91.6141 82.109 92.1635C81.6918 92.4443 81.76 92.7271 81.8487 93.0946C81.9335 93.4461 82.0369 93.875 81.7525 94.4539L81.7001 94.5611L81.6355 94.6939C81.1122 95.7724 80.6986 96.6246 79.904 95.7147C78.8946 94.5587 77.6764 94.1875 76.6009 93.8599C75.3113 93.467 74.2271 93.1366 73.9548 91.5905C73.7753 90.5808 73.1411 90.2999 72.4134 89.9776C72.036 89.8104 71.6336 89.6322 71.2564 89.3355C70.1517 88.4664 69.5286 88.0098 69.3416 88.627C69.2524 88.9266 70.2938 89.9209 71.3013 90.8828C72.1412 91.6848 72.9576 92.4643 73.0755 92.7998C73.4628 93.8986 71.987 94.8619 70.9058 95.127C70.0305 95.3417 69.5568 94.8119 68.8453 94.0161L68.8452 94.016C68.678 93.8289 68.4976 93.6272 68.2958 93.417C68.0608 93.1722 67.8552 92.9431 67.6767 92.7443L67.6767 92.7443C67.05 92.046 66.7579 91.7206 66.7006 92.3947C66.5945 93.6453 67.7066 95.4879 68.7848 96.1684C68.9799 96.2917 69.18 96.4007 69.3713 96.505C70.0827 96.8926 70.6731 97.2143 70.4374 97.9595C70.3881 98.1155 70.355 98.2313 70.3296 98.3204L70.3294 98.3211L70.3294 98.3213L70.3293 98.3213C70.2875 98.4678 70.2663 98.5422 70.227 98.6052C70.1865 98.6701 70.1267 98.723 70.0055 98.8305C69.883 98.939 69.6979 99.103 69.4064 99.3912C68.3753 100.41 68.178 100.745 68.2531 102.16C68.3005 103.053 68.1708 103.417 68.0127 103.86C67.9203 104.119 67.8181 104.406 67.7361 104.841C67.6345 105.38 67.472 105.46 67.2834 105.552C67.0591 105.662 66.7977 105.791 66.5577 106.731L66.5636 106.74ZM92.4138 99.0746C92.866 98.668 91.7142 97.609 90.9512 97.6708C90.6065 97.7018 89.6697 98.4294 90.2457 98.8801C90.8216 99.3309 91.9616 99.4811 92.4138 99.0746ZM89.9837 96.9725C89.7392 96.8811 89.5227 96.6484 89.3371 96.0887C89.1515 95.529 89.6214 95.205 90.0735 95.4362C90.5257 95.6675 91.1458 96.3686 91.1458 96.7397C91.1458 97.1109 90.2282 97.0682 89.9778 96.9695L89.9837 96.9725ZM77.7739 96.7351C78.3483 97.1829 79.4972 97.3302 79.9465 96.9295H79.9509C80.3928 96.526 79.2424 95.4566 78.4779 95.5258C78.1362 95.5568 77.1994 96.2873 77.7739 96.7351ZM70.2399 102.689L70.2398 102.689C69.848 103.951 69.325 105.636 68.9339 105.333C68.3609 104.888 69.1666 100.899 69.3316 100.596C70.2301 98.949 72.1714 99.03 70.6749 101.444C70.5758 101.606 70.4221 102.102 70.24 102.688L70.2399 102.689L70.2399 102.689ZM67.379 115.344C69.454 115.951 71.6051 116.259 73.7671 116.259C78.7474 116.266 83.591 114.63 87.5479 111.606C87.4157 111.556 87.3176 111.502 87.2197 111.448C86.9295 111.289 86.6417 111.131 85.474 111.086C83.752 111.022 82.4413 112.155 81.57 112.908L81.57 112.908L81.57 112.908C81.2846 113.155 81.0464 113.361 80.8564 113.471C80.5501 113.647 79.5989 113.319 78.3327 112.881C76.4144 112.218 73.773 111.305 71.5548 111.522C69.9022 111.681 67.8062 112.4 67.1036 114.234C66.9318 114.623 67.0451 115.08 67.379 115.344ZM89.7969 109.642C89.551 109.579 89.3122 109.49 89.084 109.379C88.3388 109 88.0944 109.211 87.8863 109.392C87.7477 109.512 87.6251 109.618 87.3813 109.526C87.1433 109.436 87.1958 109.167 87.2394 108.942C87.3076 108.592 87.3542 108.352 86.2368 109.084C84.9185 109.948 84.8071 109.473 84.5522 108.384C84.4528 107.96 84.3315 107.443 84.1084 106.875C83.313 104.851 85.0246 102.54 86.4651 102.014C87.9281 101.485 88.9798 101.268 89.8021 101.098L89.8024 101.098C90.0902 101.038 90.3499 100.985 90.5893 100.926C91.909 100.596 92.7257 100.047 93.2733 99.6796C93.8589 99.2862 94.1367 99.0996 94.3924 99.6088C94.4867 99.793 94.5766 99.9697 94.659 100.135C94.8803 100.602 94.9979 101.112 95.0037 101.63C93.8543 104.642 92.078 107.375 89.7925 109.648L89.7969 109.642ZM94.8775 92.1558C92.8596 94.4772 95.4122 98.0063 96.022 98.1728V98.1801C96.3378 96.6537 96.4972 95.0991 96.4977 93.5404C96.4977 93.0897 96.48 92.6566 96.4579 92.2148C96.1678 91.2279 95.5816 90.543 94.4769 90.6284C94.3602 90.6377 94.4726 90.8426 94.6166 91.1052C94.8144 91.4658 95.0718 91.9351 94.8775 92.1558Z" fill="white"/>
<path d="M47.082 22.0328V16.0866C47.082 14.1718 47.9879 12.7695 50.1634 12.7695C52.4479 12.7695 53.0828 14.0377 53.0828 15.8509V17.3017H51.1915V15.6815C51.1915 14.92 50.9382 14.4855 50.1943 14.4855C49.4505 14.4855 49.1486 15.0216 49.1486 15.7581V22.3569C49.1486 23.0933 49.4564 23.6251 50.2002 23.6251C50.9441 23.6251 51.1974 23.1537 51.1974 22.429V20.1651H53.0828V22.2862C53.0828 24.0448 52.3581 25.3499 50.1634 25.3499C47.9687 25.3499 47.082 23.9358 47.082 22.0328Z" fill="white"/>
<path d="M54.3828 12.9141H56.4449V23.5192H58.9106V25.2057H54.3828V12.9141Z" fill="white"/>
<path d="M60.0352 12.9141H62.0973V25.2057H60.0352V12.9141Z" fill="white"/>
<path d="M69.3359 17.2312H69.2814L67.8866 25.2072H66.9248L65.3841 17.2312H65.3472V25.2072H63.6445V12.9141H66.0542L67.3961 19.8369H67.4152L68.6113 12.9141H71.2198V25.2057H69.3359V17.2312Z" fill="white"/>
<path fill-rule="evenodd" clip-rule="evenodd" d="M74.5714 12.9141L72.25 25.2057H74.209L74.5728 22.9565H76.7646L77.146 25.2057H79.2671L76.9281 12.9141H74.5714ZM76.4951 21.3084H74.8439L75.6599 16.377H75.6791L76.4951 21.3084Z" fill="white"/>
<path d="M78.9961 12.9141H84.4902V14.6006H82.786V25.2057H80.7003V14.6006H78.9961V12.9141Z" fill="white"/>
<path d="M85.6289 12.9141H90.5603V14.6006H87.6954V18.115H89.7443V19.7824H87.6954V23.5162H90.5603V25.2027H85.6289V12.9141Z" fill="white"/>
<path fill-rule="evenodd" clip-rule="evenodd" d="M49.0401 30.3408L46.7188 42.628L48.6763 42.631L49.0401 40.3833H51.2333L51.6148 42.631H53.7358L51.3968 30.3408H49.0401ZM50.9638 38.7367H49.3127L50.1287 33.8068H50.1478L50.9638 38.7367Z" fill="white"/>
<path d="M54.332 39.4561V33.5099C54.332 31.5877 55.2394 30.1929 57.4149 30.1929C59.6979 30.1929 60.3328 31.4611 60.3328 33.2742V34.7236H58.4474V33.1108C58.4474 32.3492 58.1941 31.9147 57.4502 31.9147C56.7064 31.9147 56.3986 32.4406 56.3986 33.1829V39.7817C56.3986 40.5181 56.7079 41.0513 57.4502 41.0513C58.1926 41.0513 58.4474 40.58 58.4474 39.8538V37.5885H60.3328V39.7095C60.3328 41.4682 59.6081 42.7732 57.4149 42.7732C55.2217 42.7732 54.332 41.3592 54.332 39.4561Z" fill="white"/>
<path d="M61.0586 30.3403H66.5527V32.0268H64.8426V42.632H62.7569V32.0268H61.0586V30.3403Z" fill="white"/>
<path d="M67.6875 30.3403H69.7496V42.6305H67.6875V30.3403Z" fill="white"/>
<path fill-rule="evenodd" clip-rule="evenodd" d="M71.1289 33.5104V39.4566C71.1289 41.3597 72.0539 42.7737 74.2471 42.7737C76.4403 42.7737 77.3845 41.3597 77.3845 39.4566V33.5104C77.3845 31.5882 76.4212 30.1934 74.2471 30.1934C72.0731 30.1934 71.1289 31.5882 71.1289 33.5104ZM75.3179 33.1835V39.7822C75.3179 40.526 74.9718 41.0519 74.2471 41.0519C73.5224 41.0519 73.1954 40.5187 73.1954 39.7822V33.1835C73.1954 32.4411 73.5033 31.9153 74.2471 31.9153C74.9909 31.9153 75.3179 32.447 75.3179 33.1835Z" fill="white"/>
<path d="M80.4778 34.9064V42.629H78.7383V30.3403H80.7695L83.0024 37.3883V30.3403H84.7258V42.6305H82.9082L80.4778 34.9064Z" fill="white"/>
</svg>
