<svg width="148" height="148" viewBox="0 0 148 148" fill="none" xmlns="http://www.w3.org/2000/svg">
<rect x="0.371094" y="0.293457" width="147.293" height="147.293" fill="#A21942"/>
<path fill-rule="evenodd" clip-rule="evenodd" d="M28.9888 35.0682V31.8278C28.9888 28.982 27.9828 26.9229 25.66 25.8712C27.6293 24.9094 28.5514 23.1566 28.5514 20.7042V19.4757C28.5514 14.833 26.1431 12.3364 21.5431 12.3364C16.9888 12.3364 14.6204 14.8404 14.6204 19.4757V20.7042C14.6204 23.1139 15.5041 24.9094 17.4189 25.8712C15.0976 26.9229 14.1328 28.982 14.1328 31.8278V35.0682C14.1328 39.5783 16.2803 42.7275 21.5372 42.7275C26.8398 42.7275 28.9829 39.5724 28.9829 35.0682H28.9888ZM19.3015 19.1605C19.3015 17.362 19.9172 16.3118 21.5374 16.3118C23.2004 16.3118 23.8146 17.362 23.8146 19.1605V21.174C23.8146 22.9695 23.2004 24.0241 21.5374 24.0241C19.9172 24.0241 19.3015 22.9695 19.3015 21.174V19.1605ZM21.5434 38.6592C23.3389 38.6592 23.9958 37.3895 23.9958 35.5926V30.7746C23.9958 28.9791 23.3389 27.708 21.5434 27.708C19.7906 27.708 19.1337 28.9791 19.1337 30.7746V35.5926C19.1337 37.3895 19.7906 38.6592 21.5434 38.6592Z" fill="white"/>
<path d="M102.614 72.7616L87.6434 87.0004C87.0792 87.5616 86.7891 87.9755 86.7891 89.1391V129.056C86.7907 129.526 87.1727 129.907 87.6434 129.907H103.109C103.58 129.907 103.961 129.526 103.962 129.056V73.118C103.962 72.6467 103.594 71.7924 102.616 72.7586" fill="white"/>
<path d="M59.4829 91.3209L44.5106 105.554C43.9479 106.116 43.6562 106.529 43.6562 107.691V129.049C43.6587 129.519 44.0405 129.898 44.5106 129.898H59.9764C60.4462 129.898 60.8276 129.518 60.8292 129.049V91.6714C60.8292 91.1986 60.4565 90.3369 59.4829 91.3135" fill="white"/>
<path d="M109.421 55.4871C109.428 55.3658 109.381 55.2475 109.294 55.163C109.219 55.0916 109.121 55.0484 109.017 55.0408H108.935H108.812L97.3487 57.639L97.141 57.6611C97.057 57.6784 96.9795 57.7187 96.9171 57.7775C96.7496 57.9491 96.7496 58.223 96.9171 58.3946L97.0467 58.5243L99.6656 61.1417L73.6889 87.1183L61.6919 75.1183C61.6276 75.0525 61.5394 75.0153 61.4474 75.0153C61.3553 75.0153 61.2672 75.0525 61.2029 75.1183L57.9477 78.375L38.7126 97.6086C38.5802 97.7447 38.5802 97.9615 38.7126 98.0976L41.9722 101.356C42.0364 101.42 42.1236 101.456 42.2145 101.456C42.3055 101.456 42.3927 101.42 42.4568 101.356L61.4577 82.3666L70.1627 91.0746C70.171 91.089 70.1804 91.1028 70.1907 91.1159L73.4474 94.3681C73.5114 94.4339 73.5993 94.471 73.6911 94.471C73.7829 94.471 73.8708 94.4339 73.9349 94.3681L103.41 64.8873L106.158 67.6344C106.239 67.7163 106.349 67.7625 106.464 67.7625C106.579 67.7625 106.689 67.7163 106.77 67.6344C106.846 67.5599 106.891 67.4585 106.895 67.3516V67.3162L109.412 55.6137L109.421 55.4871Z" fill="white"/>
<path d="M81.1362 93.8129L73.8923 101.116C73.7556 101.232 73.553 101.224 73.4254 101.098L66.8635 94.4139C65.6616 93.2179 65.4023 94.1885 65.4023 94.6584V129.053C65.402 129.278 65.4911 129.495 65.6502 129.654C65.8093 129.814 66.0254 129.904 66.2508 129.904H81.7165C82.1858 129.903 82.5656 129.522 82.5664 129.053V94.0825C82.5664 93.6126 82.1967 92.748 81.1332 93.8129" fill="white"/>
<path fill-rule="evenodd" clip-rule="evenodd" d="M46.0006 21.4239V15.8488C46.0006 13.9914 45.2361 12.6172 43.0709 12.6172H39.9453V24.6555H43.0709C45.2361 24.6555 46.0006 23.2709 46.0006 21.4239ZM43.9763 21.7789C43.9763 22.508 43.6567 23.0043 42.8215 23.0043H41.9687V14.2684H42.8215C43.6567 14.2684 43.9763 14.7647 43.9763 15.4762V21.7789Z" fill="white"/>
<path d="M47.2812 12.6172H52.111V14.2683H49.3124V17.7135H51.3185V19.347H49.3051V23.0043H52.1036V24.6555H47.2812V12.6172Z" fill="white"/>
<path d="M53.1406 21.5494V15.7239C53.1406 13.8415 54.0244 12.4746 56.1587 12.4746C58.396 12.4746 59.0176 13.7178 59.0176 15.4941V16.914H57.172V15.3336C57.172 14.5883 56.9231 14.1552 56.1955 14.1552C55.4679 14.1552 55.1644 14.6708 55.1644 15.3984V21.8631C55.1644 22.5907 55.4664 23.1062 56.1955 23.1062C56.9246 23.1062 57.172 22.6437 57.172 21.9279V19.72H59.0176V21.7983C59.0176 23.5216 58.3077 24.8001 56.1587 24.8001C54.0097 24.8001 53.1406 23.4185 53.1406 21.5494Z" fill="white"/>
<path d="M60.2383 12.6172H65.068V14.2683H62.2695V17.7135H64.2771V19.347H62.2621V23.0043H65.0607V24.6555H60.2383V12.6172Z" fill="white"/>
<path d="M67.9756 17.092V24.6555H66.2773V12.6172H68.2702L70.4546 19.5238V12.6172H72.1411V24.6555H70.3618L67.9756 17.092Z" fill="white"/>
<path d="M73.1875 12.6172H78.5681V14.2683H76.8993V24.6555H74.8563V14.2683H73.1875V12.6172Z" fill="white"/>
<path d="M85.988 17.2157L84.8523 24.6555H82.9523L81.332 12.6172H83.2954L84.2367 20.2529H84.2543L85.2662 12.6172H86.9174L88.0353 20.2529H88.053L88.9766 12.6172H90.6822L89.1135 24.6555H87.1987L86.0086 17.2157H85.988Z" fill="white"/>
<path fill-rule="evenodd" clip-rule="evenodd" d="M91.4922 15.7239V21.5494C91.4922 23.4185 92.3995 24.7986 94.5471 24.7986C96.6946 24.7986 97.6181 23.4141 97.6181 21.5494V15.7239C97.6181 13.8415 96.6784 12.4746 94.5471 12.4746C92.4157 12.4746 91.4922 13.8415 91.4922 15.7239ZM95.5938 15.4043V21.869C95.5938 22.5966 95.258 23.1122 94.5466 23.1122C93.8352 23.1122 93.5156 22.5966 93.5156 21.869V15.4043C93.5156 14.6767 93.819 14.1611 94.5466 14.1611C95.2742 14.1611 95.5938 14.6767 95.5938 15.4043Z" fill="white"/>
<path fill-rule="evenodd" clip-rule="evenodd" d="M100.918 24.6555V19.1334L102.818 24.6555H104.945L103.008 19.1865C104.168 18.9228 104.629 18.1569 104.629 16.8607V15.3156C104.629 13.6291 103.883 12.6172 101.84 12.6172H98.8945V24.6555H100.918ZM100.918 18.02V14.2729L101.593 14.2802C102.294 14.2802 102.588 14.5999 102.588 15.2568V17.0243C102.588 17.6636 102.286 18.02 101.593 18.02H100.918Z" fill="white"/>
<path d="M107.879 18.7961V24.6555H105.855V12.6172H107.879V17.908L110.089 12.6172H112.077L109.734 18.0332L112.13 24.6614H109.993L107.879 18.7961Z" fill="white"/>
<path fill-rule="evenodd" clip-rule="evenodd" d="M117.222 12.6172L114.949 24.6555H116.867L117.222 22.4549H119.371L119.744 24.6555H121.822L119.53 12.6172H117.222ZM119.111 20.8377H117.49L118.293 16.0079H118.312L119.111 20.8377Z" fill="white"/>
<path d="M124.202 17.092V24.6555H122.496V12.6172H124.486L126.67 19.5238V12.6172H128.357V24.6555H126.581L124.202 17.092Z" fill="white"/>
<path fill-rule="evenodd" clip-rule="evenodd" d="M135.741 21.4239V15.8488C135.741 13.9914 134.976 12.6172 132.815 12.6172H129.691V24.6555H132.81C134.976 24.6555 135.741 23.2709 135.741 21.4239ZM133.716 21.7789C133.716 22.508 133.397 23.0043 132.563 23.0043H131.71V14.2684H132.563C133.397 14.2684 133.716 14.7647 133.716 15.4762V21.7789Z" fill="white"/>
<path d="M39.9453 30.2983H44.775V31.9495H41.9691V35.3947H43.9767V37.0282H41.9691V40.6869H44.775V42.3381H39.9453V30.2983Z" fill="white"/>
<path d="M45.6641 39.2305V33.4065C45.6641 31.5241 46.5478 30.1572 48.6821 30.1572C50.9195 30.1572 51.5411 31.3989 51.5411 33.1753V34.5966H49.694V33.0162C49.694 32.2694 49.4465 31.8378 48.7174 31.8378C47.9883 31.8378 47.6864 32.3519 47.6864 33.081V39.5442C47.6864 40.2718 47.9883 40.7874 48.7174 40.7874C49.4465 40.7874 49.694 40.3263 49.694 39.609V37.4011H51.5411V39.4735C51.5411 41.1954 50.8311 42.4739 48.6821 42.4739C46.5331 42.4739 45.6641 41.0937 45.6641 39.2305Z" fill="white"/>
<path fill-rule="evenodd" clip-rule="evenodd" d="M52.6406 33.4065V39.2305C52.6406 41.0938 53.5465 42.4798 55.6955 42.4798C57.8445 42.4798 58.768 41.0952 58.768 39.2305V33.4065C58.768 31.5241 57.8268 30.1572 55.6955 30.1572C53.5642 30.1572 52.6406 31.5241 52.6406 33.4065ZM56.7423 33.0869V39.5502C56.7423 40.2778 56.4065 40.7933 55.695 40.7933C54.9836 40.7933 54.664 40.2778 54.664 39.5502V33.0869C54.664 32.3578 54.9674 31.8438 55.695 31.8438C56.4227 31.8438 56.7423 32.3578 56.7423 33.0869Z" fill="white"/>
<path d="M61.63 34.7731V42.3381H59.9258V30.2983H61.9142L64.0986 37.2064V30.2983H65.7851V42.3381H64.0043L61.63 34.7731Z" fill="white"/>
<path fill-rule="evenodd" clip-rule="evenodd" d="M66.9375 33.4065V39.2305C66.9375 41.0938 67.8419 42.4798 69.9909 42.4798C72.1399 42.4798 73.0634 41.0952 73.0634 39.2305V33.4065C73.0634 31.5241 72.1207 30.1572 69.9909 30.1572C67.861 30.1572 66.9375 31.5241 66.9375 33.4065ZM71.0406 33.0869V39.5502C71.0406 40.2778 70.7033 40.7933 69.9919 40.7933C69.2805 40.7933 68.9609 40.2778 68.9609 39.5502V33.0869C68.9609 32.3578 69.2628 31.8438 69.9919 31.8438C70.721 31.8438 71.0406 32.3578 71.0406 33.0869Z" fill="white"/>
<path d="M79.7953 34.5242H79.7422L78.3739 42.3307H77.4327L75.9244 34.5242H75.8876V42.3307H74.2188V30.2983H76.5754L77.8893 37.0738H77.907L79.0853 30.2983H81.6438V42.3381H79.7953V34.5242Z" fill="white"/>
<path d="M82.7969 30.2983H84.8207V42.3381H82.7969V30.2983Z" fill="white"/>
<path d="M85.9492 39.2305V33.4065C85.9492 31.5241 86.833 30.1572 88.9673 30.1572C91.2046 30.1572 91.8262 31.3989 91.8262 33.1753V34.5966H89.9851V33.0162C89.9851 32.2694 89.7361 31.8378 89.0085 31.8378C88.2809 31.8378 87.9774 32.3519 87.9774 33.081V39.5442C87.9774 40.2718 88.2794 40.7874 89.0085 40.7874C89.7376 40.7874 89.9851 40.3263 89.9851 39.609V37.4011H91.8321V39.4735C91.8321 41.1954 91.1222 42.4739 88.9732 42.4739C86.8241 42.4739 85.9492 41.0937 85.9492 39.2305Z" fill="white"/>
<path d="M98.3307 35.9105H101.207V42.3384H99.7521V41.0245C99.4855 41.9304 98.9169 42.4798 97.8167 42.4798C96.0757 42.4798 95.2773 41.0952 95.2773 39.2305V33.4065C95.2773 31.5241 96.1817 30.1572 98.313 30.1572C100.55 30.1572 101.207 31.3989 101.207 33.1753V34.2402H99.3603V33.0162C99.3603 32.2694 99.076 31.8378 98.3484 31.8378C97.6208 31.8378 97.3011 32.3519 97.3011 33.081V39.5442C97.3011 40.2719 97.5957 40.7874 98.2954 40.7874C98.9523 40.7874 99.2896 40.4147 99.2896 39.6326V37.5086H98.3307V35.9105Z" fill="white"/>
<path fill-rule="evenodd" clip-rule="evenodd" d="M104.385 42.344V36.822L106.285 42.3381H108.41L106.473 36.8691C107.631 36.604 108.094 35.838 108.094 34.5419V32.9968C108.094 31.3102 107.347 30.2983 105.305 30.2983H102.359V42.344H104.385ZM104.383 35.7085V31.9614L105.057 31.9496C105.757 31.9496 106.051 32.2692 106.051 32.9262V34.7143C106.051 35.3536 105.75 35.7085 105.057 35.7085H104.383Z" fill="white"/>
<path fill-rule="evenodd" clip-rule="evenodd" d="M109.016 33.4065V39.2305C109.016 41.0938 109.921 42.4798 112.07 42.4798C114.22 42.4798 115.142 41.0952 115.142 39.2305V33.4065C115.142 31.5241 114.202 30.1572 112.07 30.1572C109.939 30.1572 109.016 31.5241 109.016 33.4065ZM113.117 33.0869V39.5502C113.117 40.2778 112.781 40.7933 112.07 40.7933C111.359 40.7933 111.039 40.2778 111.039 39.5502V33.0869C111.039 32.3578 111.342 31.8438 112.07 31.8438C112.798 31.8438 113.117 32.3578 113.117 33.0869Z" fill="white"/>
<path d="M120.328 34.8968L119.192 42.3381H117.292L115.672 30.2983H117.629L118.571 37.934H118.588L119.6 30.2983H121.251L122.371 37.934H122.388L123.312 30.2983H125.016L123.453 42.3381H121.539L120.348 34.8968H120.328Z" fill="white"/>
<path d="M125.641 30.2983H131.021V31.9495H129.352V42.3381H127.309V31.9495H125.641V30.2983Z" fill="white"/>
<path d="M135.619 37.0282H133.672V42.3307H131.641V30.2983H133.672V35.3947H135.625V30.2983H137.666V42.3381H135.619V37.0282Z" fill="white"/>
</svg>
