<svg width="148" height="148" viewBox="0 0 148 148" fill="none" xmlns="http://www.w3.org/2000/svg">
<rect x="0.25" y="-0.000244141" width="147.293" height="147.293" fill="#FF3A21"/>
<path d="M44.845 24.5108C45.9482 24.5108 46.5168 23.9599 46.7819 23.0555V24.3679H48.2372V17.9386H45.362V19.5367H46.3209V21.6695C46.3209 22.4502 45.9821 22.8228 45.3252 22.8228C44.6329 22.8228 44.3309 22.3073 44.3309 21.5797V15.112C44.3309 14.3873 44.6506 13.8703 45.3797 13.8703C46.1088 13.8703 46.3916 14.296 46.3916 15.0487V16.2742H48.2372V15.2078C48.2372 13.4314 47.5802 12.1868 45.3443 12.1868C43.213 12.1868 42.3086 13.5551 42.3086 15.4375V21.2645C42.3086 23.1292 43.1055 24.5152 44.845 24.5152" fill="white"/>
<path d="M54.4025 22.7168H51.598V19.0565H53.6056V17.4216H51.598V13.9778H54.4025V12.3237H49.5742V24.3694H54.4025V22.7168Z" fill="white"/>
<path d="M57.3682 16.8015L59.7456 24.3694H61.5219V12.3237H59.8369V19.2347L57.651 12.3237H55.6641V24.3694H57.3682V16.8015Z" fill="white"/>
<path fill-rule="evenodd" clip-rule="evenodd" d="M68.9058 15.5586V21.1351L68.8999 21.1233C68.8999 22.9777 68.1369 24.3638 65.9703 24.3638H62.8477V12.3181H65.9762C68.1428 12.3181 68.9058 13.6938 68.9058 15.5586ZM64.871 13.9768V22.7054L65.7239 22.7172C66.5575 22.7172 66.8757 22.2193 66.8757 21.4917V15.1846C66.8757 14.4746 66.5575 13.9768 65.7239 13.9768H64.871Z" fill="white"/>
<path d="M75.0704 22.7168H72.2675V19.0565H74.2736V17.4216H72.2675V13.9778H75.0704V12.3237H70.2422V24.3694H75.0704V22.7168Z" fill="white"/>
<path fill-rule="evenodd" clip-rule="evenodd" d="M80.2295 24.3696L78.3397 18.8432L78.3456 24.3682H76.3203V12.3225H79.2662C81.3077 12.3225 82.053 13.3359 82.053 15.0239V16.5705C82.053 17.8666 81.5861 18.6311 80.4328 18.8977L82.3608 24.3696H80.2295ZM79.0105 13.9824H78.3389V17.7207H79.0105C79.7102 17.7207 80.0048 17.3672 80.0048 16.725V14.9575C80.0048 14.3005 79.7043 13.9824 79.0105 13.9824Z" fill="white"/>
<path d="M47.1369 40.3744H44.3324V36.7157H46.3385V35.0822H44.3324V31.6355H47.1369V29.9829H42.3086V42.0271H47.1369V40.3744Z" fill="white"/>
<path fill-rule="evenodd" clip-rule="evenodd" d="M50.6948 42.8446V42.0257C49.079 41.7429 48.3867 40.5527 48.3867 38.9178V33.0909C48.3867 31.2084 49.2896 29.8401 51.4386 29.8401C53.5876 29.8401 54.5097 31.2084 54.5097 33.0909V38.9178C54.5097 40.2331 54.0501 41.2627 53.0191 41.7591L54.5097 42.0448V43.5546L50.6948 42.8446ZM51.4411 31.5281C50.7297 31.5281 50.4101 32.0451 50.4101 32.7728V39.3465C50.4101 40.0564 50.712 40.5881 51.4411 40.5881C52.1702 40.5881 52.4884 40.0564 52.4884 39.3465V32.7728C52.4884 32.0451 52.1526 31.5281 51.4411 31.5281Z" fill="white"/>
<path d="M55.8203 29.9829V39.096C55.8203 40.9607 56.7041 42.1685 58.8383 42.1685C60.9005 42.1685 61.6973 40.9607 61.6973 39.096V29.9829H59.834V39.2904C59.834 40.0018 59.5498 40.4805 58.8383 40.4805C58.1269 40.4805 57.8441 40.0018 57.8441 39.2904V29.9829H55.8203Z" fill="white"/>
<path fill-rule="evenodd" clip-rule="evenodd" d="M67.1219 39.8233H64.9685L64.6179 42.0268H62.7031L64.9685 29.9885H67.281L69.5714 42.0327H67.4946L67.1219 39.8233ZM66.0533 33.3763H66.0327L65.2299 38.2075H66.8502L66.0533 33.3763Z" fill="white"/>
<path d="M70.5586 29.9829V42.0271H74.9965V40.3759H72.5839V29.9829H70.5586Z" fill="white"/>
<rect x="76.082" y="29.9829" width="2.02528" height="12.0442" fill="white"/>
<path d="M82.9198 42.0271V31.6355H84.5872V29.9844H79.2109V31.6355H80.8783V42.0271H82.9198Z" fill="white"/>
<path d="M87.6051 42.0271H89.6304V37.4448L91.8649 29.9844H89.9324L88.7069 34.5475H88.6892L87.4652 29.9844H85.3516L87.6051 37.4448V42.0271Z" fill="white"/>
<path d="M23.7334 21.7461C21.7626 21.7461 20.3177 22.4457 19.5282 23.8082H19.484V16.4023H28.0697V12.3281H14.9312V29.0621H19.484V28.4023C19.484 26.6509 20.2735 25.6862 21.6743 25.6862C23.2076 25.6862 23.8233 26.7393 23.8233 28.361V35.5445C23.8233 37.122 23.2518 38.215 21.7184 38.215C20.0098 38.215 19.3986 37.0764 19.3986 35.3265V31.6015H14.8398V34.9745C14.8398 39.4861 16.6368 42.3775 21.7184 42.3775C26.7559 42.3775 28.8136 39.7056 28.8136 35.5872V28.3168C28.8136 23.63 26.4053 21.7461 23.7334 21.7461Z" fill="white"/>
<path fill-rule="evenodd" clip-rule="evenodd" d="M89.2193 55.7329H107.525V55.7373C107.587 55.7369 107.647 55.7614 107.692 55.8053C107.736 55.8492 107.762 55.909 107.762 55.9715V74.2683C107.76 74.3979 107.654 74.5018 107.525 74.501H101.443C101.314 74.5018 101.208 74.3979 101.206 74.2683V67.4604L93.2256 75.4452C96.0787 79.477 97.6088 84.2956 97.6047 89.2348C97.6047 101.13 88.8982 111.024 77.5227 112.89V120.013H84.7401C84.8014 120.013 84.8602 120.038 84.9036 120.081C84.9469 120.124 84.9713 120.183 84.9713 120.244V126.765C84.9717 126.827 84.9475 126.886 84.9041 126.93C84.8607 126.973 84.8017 126.998 84.7401 126.998H77.5227V133.89C77.5223 133.952 77.4972 134.011 77.4531 134.055C77.4089 134.099 77.3491 134.123 77.287 134.122H70.7708C70.7089 134.123 70.6495 134.098 70.6058 134.055C70.562 134.011 70.5376 133.952 70.538 133.89V127.004H63.3207C63.2583 127.005 63.1981 126.981 63.1537 126.937C63.1094 126.893 63.0846 126.833 63.085 126.771V120.25C63.085 120.188 63.1099 120.129 63.1543 120.085C63.1986 120.042 63.2586 120.018 63.3207 120.019H70.538V113.009C58.7752 111.482 49.6562 101.413 49.6562 89.2407C49.6562 76.0167 60.4131 65.2643 73.6327 65.2643C78.9952 65.2605 84.2024 67.0642 88.4136 70.3842L96.5073 62.283H89.2193C89.0905 62.2822 88.9865 62.1776 88.9865 62.0488V55.9671C88.9873 55.8387 89.0908 55.7345 89.2193 55.7329ZM55.9853 89.2347C55.9853 98.9818 63.8869 106.883 73.634 106.883C83.377 106.874 91.2729 98.9778 91.2827 89.2347C91.2827 79.4876 83.3811 71.586 73.634 71.586C63.8869 71.586 55.9853 79.4876 55.9853 89.2347Z" fill="white"/>
<path d="M84.592 81.9911H63.1858C63.0643 81.986 62.961 82.0789 62.9531 82.2002V87.382C62.9554 87.4412 62.9813 87.4969 63.0251 87.5368C63.0688 87.5767 63.1267 87.5973 63.1858 87.5941H84.592C84.6517 87.5981 84.7106 87.5779 84.7552 87.538C84.7998 87.4981 84.8265 87.4418 84.8291 87.382V82.2002C84.8204 82.0774 84.7149 81.9843 84.592 81.9911Z" fill="white"/>
<path d="M84.592 91.2441H63.1858C63.0622 91.2407 62.9587 91.3371 62.9531 91.4606V96.6424C62.9562 96.701 62.9824 96.756 63.0261 96.7953C63.0697 96.8345 63.1272 96.8548 63.1858 96.8515H84.592C84.6512 96.8556 84.7096 96.8357 84.7542 96.7964C84.7987 96.7572 84.8257 96.7017 84.8291 96.6424V91.4606C84.8228 91.3356 84.717 91.2391 84.592 91.2441Z" fill="white"/>
</svg>
