<svg width="148" height="148" viewBox="0 0 148 148" fill="none" xmlns="http://www.w3.org/2000/svg">
<rect x="0.664062" y="-0.000244141" width="147.293" height="147.293" fill="#4C9F38"/>
<path d="M21.6833 42.4411C26.7222 42.4411 28.9124 39.7678 28.9124 35.6509V31.2719C28.9124 28.5558 27.7341 26.803 25.2301 26.2344C27.2922 25.5775 28.6458 23.9116 28.6458 21.4165V18.8315C28.6458 14.6262 26.6309 12.0427 22.0324 12.0427C16.8624 12.0427 15.0654 15.1064 15.0654 19.4884V22.1161H19.6212V19.0937C19.6212 17.254 20.1927 16.2038 21.7687 16.2038C23.3448 16.2038 23.9133 17.254 23.9133 18.8742V22.0719C23.9133 23.6494 22.8631 24.4802 21.2444 24.4802H19.359V28.2936H21.4623C23.2137 28.2936 23.9133 29.1243 23.9133 30.7018V35.6082C23.9133 37.1842 23.2137 38.2816 21.6803 38.2816C19.9732 38.2816 19.359 37.14 19.359 35.3887V31.1408H14.8047V35.0382C14.8047 39.5512 16.5987 42.4411 21.6789 42.4411" fill="white"/>
<path d="M123.695 92.0584C123.695 87.9135 121.044 84.5464 117.008 84.5464C114.995 84.5464 112.564 86.7558 111.245 88.1094C109.919 86.7499 107.657 84.5435 105.648 84.5435C101.621 84.5435 98.7969 87.9032 98.7969 92.0554C98.7907 94.034 99.5576 95.9368 100.934 97.358L111.259 107.702L121.57 97.3698L121.561 97.3624C122.936 95.94 123.702 94.0369 123.695 92.0584Z" fill="white"/>
<path d="M79.7362 124.592H79.6302C78.845 124.545 78.196 123.963 78.0644 123.187L72.8193 92.637L64.8743 107.366C64.5268 108.01 63.8057 108.358 63.0856 108.23C62.3655 108.102 61.8088 107.526 61.7046 106.802L58.3316 83.2279L52.1614 97.0882C51.889 97.7006 51.2822 98.0958 50.6119 98.0972H26.6281C25.7314 98.0443 25.0312 97.3016 25.0312 96.4033C25.0312 95.505 25.7314 94.7623 26.6281 94.7094H49.5102L57.6275 76.4789C57.9336 75.7888 58.6592 75.3843 59.4072 75.4867C60.1552 75.5891 60.7453 76.1738 60.8547 76.9208L64.3323 101.224L72.1668 86.6967C72.5111 86.0612 73.22 85.7136 73.9332 85.8304C74.6464 85.9473 75.2073 86.5031 75.3307 87.2151L80.1914 115.506L97.8887 56.7077C98.0909 56.0384 98.6831 55.5617 99.3801 55.5069C100.077 55.4522 100.737 55.8307 101.041 56.4603L110.354 75.769C110.631 76.3162 110.591 76.9703 110.249 77.4795C109.907 77.9886 109.316 78.2733 108.705 78.224C108.094 78.1748 107.557 77.7992 107.301 77.2419L99.8801 61.863L81.3579 123.385C81.1433 124.101 80.4842 124.592 79.7362 124.592Z" fill="white"/>
<path d="M45.7721 17.9386H48.6503V24.3679H47.1935V23.0526C46.9269 23.9585 46.3584 24.5093 45.2581 24.5093C43.5171 24.5093 42.7188 23.1248 42.7188 21.26V15.4346C42.7188 13.5522 43.6246 12.1853 45.7545 12.1853C47.9919 12.1853 48.6503 13.4285 48.6503 15.2048V16.2697H46.8032V15.0443C46.8032 14.299 46.5189 13.8659 45.7913 13.8659C45.0637 13.8659 44.7426 14.3814 44.7426 15.1091V21.5738C44.7426 22.3014 45.0445 22.8169 45.7368 22.8169C46.3937 22.8169 46.7325 22.4443 46.7325 21.6622V19.5367H45.7721V17.9386Z" fill="white"/>
<path fill-rule="evenodd" clip-rule="evenodd" d="M49.9805 15.4346V21.26C49.9805 23.1248 50.8863 24.5093 53.0353 24.5093C55.1843 24.5093 56.1079 23.1248 56.1079 21.26V15.4346C56.1079 13.5507 55.1667 12.1853 53.0353 12.1853C50.904 12.1853 49.9805 13.5522 49.9805 15.4346ZM54.0821 15.115V21.5797C54.0821 22.3073 53.7463 22.8229 53.0349 22.8229C52.3235 22.8229 52.0038 22.3073 52.0038 21.5797V15.115C52.0038 14.3874 52.3073 13.8718 53.0349 13.8718C53.7625 13.8718 54.0821 14.3874 54.0821 15.115Z" fill="white"/>
<path fill-rule="evenodd" clip-rule="evenodd" d="M57.4375 15.4346V21.26C57.4375 23.1248 58.3404 24.5093 60.488 24.5093C62.6355 24.5093 63.559 23.1248 63.559 21.26V15.4346C63.559 13.5507 62.6237 12.1853 60.4924 12.1853C58.361 12.1853 57.4375 13.5522 57.4375 15.4346ZM61.5392 15.115V21.5797C61.5392 22.3073 61.2034 22.8229 60.4919 22.8229C59.7805 22.8229 59.4609 22.3073 59.4609 21.5797V15.115C59.4609 14.3874 59.7643 13.8718 60.4919 13.8718C61.2196 13.8718 61.5392 14.3874 61.5392 15.115Z" fill="white"/>
<path fill-rule="evenodd" clip-rule="evenodd" d="M70.9497 21.135V15.56C70.9497 13.6982 70.1868 12.3284 68.0201 12.3284H64.8945V24.3681H68.0201C70.1868 24.3681 70.9497 22.9821 70.9497 21.135ZM68.924 21.49C68.924 22.2191 68.6044 22.7155 67.7693 22.7155H66.9179V13.9795H67.7693C68.6044 13.9795 68.924 14.4759 68.924 15.1874V21.49Z" fill="white"/>
<path d="M79.0136 19.0582H77.0604V24.3681H75.0352V12.3284H77.0604V17.4247H79.0136V12.3284H81.0551V24.3681H79.0136V19.0582Z" fill="white"/>
<path d="M82.3824 12.3284H87.2136V13.9795H84.415V17.4247H86.4211V19.0582H84.4076V22.7155H87.2062V24.3681H82.375L82.3824 12.3284Z" fill="white"/>
<path fill-rule="evenodd" clip-rule="evenodd" d="M90.4344 12.3284L88.1602 24.3681H90.075L90.4344 22.1661H92.5789L92.9545 24.3681H95.0328L92.7424 12.3284H90.4344ZM92.3216 20.5504H90.7014L91.5056 15.7191H91.5233L92.3216 20.5504Z" fill="white"/>
<path d="M96.0391 12.3284H98.0629V22.7155H100.478V24.3681H96.0391V12.3284Z" fill="white"/>
<path d="M100.199 12.3284H105.58V13.9795H103.911V24.3681H101.868V13.9795H100.199V12.3284Z" fill="white"/>
<path d="M110.672 19.0582H108.719V24.3681H106.695V12.3284H108.719V17.4247H110.672V12.3284H112.714V24.3681H110.672V19.0582Z" fill="white"/>
<path fill-rule="evenodd" clip-rule="evenodd" d="M44.6868 29.9814L42.4141 42.0212H44.3318L44.6868 39.8118H46.8388L47.2114 42.0212H49.2853L46.9949 29.9814H44.6868ZM46.5755 38.2035H44.9553L45.758 33.3737H45.7757L46.5755 38.2035Z" fill="white"/>
<path d="M52.003 34.4562V42.0212H50.3047V29.9814H52.2946L54.4775 36.8895V29.9814H56.1655V42.0212H54.3818L52.003 34.4562Z" fill="white"/>
<path fill-rule="evenodd" clip-rule="evenodd" d="M63.5474 38.7896V33.2145C63.5474 31.3498 62.7844 29.9814 60.6177 29.9814H57.4922V42.0212H60.6177C62.7844 42.0212 63.5474 40.6366 63.5474 38.7896ZM61.5232 39.1444C61.5232 39.8735 61.2036 40.3699 60.3684 40.3699L59.5156 40.3758V31.6398H60.3684C61.2036 31.6398 61.5232 32.1362 61.5232 32.8461V39.1444Z" fill="white"/>
<path d="M71.2849 34.5814L70.1492 42.0212H68.2491L66.6289 29.9814H68.582L69.5232 37.6171H69.5409L70.5528 29.9814H72.204L73.3234 37.6171H73.3411L74.2646 29.9814H75.9688L74.406 42.0212H72.4912L71.3011 34.5814H71.2849Z" fill="white"/>
<path d="M77.0195 29.9814H81.8493V31.6341H79.0507V35.0778H81.0569V36.7127H79.0448V40.37H81.8434V42.0212H77.0195V29.9814Z" fill="white"/>
<path d="M83.1133 29.9814H85.1386V40.37H87.5527V42.0212H83.1133V29.9814Z" fill="white"/>
<path d="M88.6523 29.9814H90.6761V40.37H93.0917V42.0212H88.6523V29.9814Z" fill="white"/>
<path d="M92.8281 34.9087H95.6724V36.5289H92.8281V34.9087Z" fill="white"/>
<path fill-rule="evenodd" clip-rule="evenodd" d="M96.875 29.9814H99.8046C101.828 29.9814 102.503 30.9226 102.503 32.6327V33.8582C102.503 34.8701 102.13 35.5094 101.297 35.773C102.309 36.0028 102.805 36.6774 102.805 37.7791V39.3773C102.805 41.0815 102.042 42.0286 100.018 42.0286H96.875V29.9814ZM98.8984 35.0557H99.6083C100.265 35.0557 100.567 34.7184 100.567 34.0791V32.6062C100.567 31.9493 100.273 31.6296 99.5907 31.6296H98.8984V35.0557ZM98.8984 40.3656V36.6008H99.7645C100.474 36.6008 100.776 36.9381 100.776 37.5774V39.3891C100.776 40.0283 100.457 40.3656 99.7821 40.3656H98.8984Z" fill="white"/>
<path d="M103.996 29.9814H108.826V31.6341H106.027V35.0778H108.035V36.7127H106.02V40.37H108.818V42.0212H103.996V29.9814Z" fill="white"/>
<path d="M110.086 29.9814H112.11V42.0212H110.086V29.9814Z" fill="white"/>
<path d="M115.165 34.4562V42.0212H113.461V29.9814H115.449L117.634 36.8895V29.9814H119.32V42.0212H117.553L115.165 34.4562Z" fill="white"/>
<path d="M123.704 35.5934H126.581V42.0212H125.127V40.7074C124.861 41.6132 124.293 42.1641 123.192 42.1641C121.452 42.1641 120.652 40.7781 120.652 38.9134V33.0894C120.652 31.207 121.558 29.8401 123.69 29.8401C125.927 29.8401 126.584 31.0832 126.584 32.8581V33.9245H124.734V32.6991C124.734 31.9537 124.45 31.5207 123.722 31.5207C122.994 31.5207 122.673 32.0362 122.673 32.7639V39.2286C122.673 39.9562 122.968 40.4703 123.669 40.4703C124.326 40.4703 124.663 40.0976 124.663 39.3169V37.1915H123.704V35.5934Z" fill="white"/>
</svg>
