<svg width="148" height="148" viewBox="0 0 148 148" fill="none" xmlns="http://www.w3.org/2000/svg">
<rect x="0.664062" y="0.293457" width="147.293" height="147.293" fill="#FD6925"/>
<path fill-rule="evenodd" clip-rule="evenodd" d="M20.3715 12.1843C25.6239 12.1843 27.6389 15.5102 27.6389 20.1087V34.5553C27.6389 39.1965 25.5356 42.568 20.2845 42.568C14.7669 42.568 13.1894 39.5028 13.1894 35.1268V33.5492H17.7482V35.5186C17.7482 37.3583 18.4021 38.4143 20.1962 38.4143C21.9902 38.4143 22.6898 37.1447 22.6898 35.3492V28.9537H22.6471C21.9033 30.3957 20.6351 31.3605 18.5332 31.3605C14.9407 31.3605 13.0156 28.9095 13.0156 24.0488V19.6698C13.0156 15.0728 15.0689 12.1843 20.3715 12.1843ZM20.3348 27.3748C21.905 27.3748 22.6046 26.3246 22.6915 24.6617L22.7048 19.2324C22.7048 17.3927 22.0493 16.2556 20.3864 16.2556C18.6763 16.2556 17.9781 17.35 17.9781 19.2324V24.398C17.9781 26.3246 18.6292 27.3748 20.3348 27.3748Z" fill="white"/>
<path fill-rule="evenodd" clip-rule="evenodd" d="M93.6093 87.0009L111.12 97.1067C111.486 97.3173 111.714 97.7062 111.718 98.1289V119.045C111.716 119.47 111.488 119.863 111.12 120.076L93.0127 130.533C92.6428 130.746 92.1881 130.746 91.8182 130.533L74.3138 120.428L56.8066 130.542C56.4366 130.755 55.9819 130.755 55.612 130.542L37.5082 120.084C37.1396 119.872 36.9118 119.479 36.9102 119.053V98.1378C36.9115 97.7121 37.1394 97.3193 37.5082 97.1067L55.0184 87.0009V66.782C55.0177 66.358 55.2419 65.9655 55.6076 65.7509L73.7232 55.296C74.0927 55.0823 74.5482 55.0823 74.9177 55.296L93.0201 65.7538C93.3857 65.9684 93.61 66.3609 93.6093 66.7849V87.0009ZM58.5966 108.594L73.1168 116.979L73.1183 100.21L58.5966 108.594ZM90.0277 87.6916L75.5075 96.0711V79.3062L90.0277 87.6916ZM58.6014 87.6901L73.1216 96.0726V79.3062L58.6014 87.6901ZM76.7014 98.135L92.4147 89.0706L108.132 98.1409L92.4147 107.216L76.7014 98.135ZM76.7014 77.2296L91.2201 85.615V68.8471L76.7014 77.2296ZM71.9244 77.2294L57.4027 85.6148V68.8543L71.9244 77.2294ZM39.3027 118.358L55.0189 127.43V109.291L39.3027 100.21V118.358ZM57.4075 127.43V110.664L71.9292 119.049L57.4075 127.43ZM93.6076 127.43L109.33 118.358L109.327 100.216L93.6076 109.291V127.43Z" fill="white"/>
<path d="M35.4336 12.8694H37.3631V24.3583H35.4336V12.8694Z" fill="white"/>
<path d="M39.8532 17.1363V24.3536H38.2227V12.8647H40.1183L42.201 19.4517V12.8692H43.8198V24.358H42.123L39.8532 17.1363Z" fill="white"/>
<path fill-rule="evenodd" clip-rule="evenodd" d="M50.4379 21.2679V15.952C50.4379 14.1742 49.7133 12.8692 47.6512 12.8618H44.6641V24.3507H47.6394C49.7103 24.3507 50.4379 23.0354 50.4379 21.2679ZM48.5097 21.6067C48.5097 22.3019 48.2048 22.7762 47.4079 22.7762H46.5963V14.4453H47.4079C48.2048 14.4453 48.5097 14.9181 48.5097 15.5956V21.6067Z" fill="white"/>
<path d="M56.8897 12.8694V21.5597C56.8897 23.3375 56.1282 24.4894 54.1633 24.4894C52.1321 24.4894 51.2852 23.3375 51.2852 21.5597V12.8694H53.2162V21.7423C53.2162 22.4199 53.4857 22.878 54.1633 22.878C54.8408 22.878 55.1118 22.4199 55.1118 21.7423V12.8694H56.8897Z" fill="white"/>
<path d="M57.6328 21.8776V20.3369H59.4327V21.9115C59.4327 22.5551 59.72 22.9278 60.3798 22.9278C60.9896 22.9278 61.2636 22.5213 61.2636 21.9115V21.4696C61.2636 20.8097 60.9926 20.4032 60.4004 19.8494L59.2663 18.7137C58.1645 17.6311 57.6564 16.9698 57.6564 15.65V15.2597C57.6564 13.8383 58.4871 12.7366 60.3666 12.7366C62.2961 12.7366 63.0591 13.6851 63.0591 15.3451V16.276H61.2916V15.2774C61.2916 14.616 60.9867 14.2949 60.3769 14.2949C59.8348 14.2949 59.4637 14.5998 59.4637 15.2435V15.4806C59.4637 16.1243 59.8186 16.497 60.3769 17.0375L61.6141 18.2571C62.6629 19.3235 63.171 19.9672 63.171 21.2369V21.7981C63.171 23.3726 62.3241 24.4906 60.3607 24.4906C58.3973 24.4906 57.6328 23.3844 57.6328 21.8776Z" fill="white"/>
<path d="M63.2891 12.8694H68.4178V14.4454H66.827V24.3509H64.8828V14.4454H63.292L63.2891 12.8694Z" fill="white"/>
<path fill-rule="evenodd" clip-rule="evenodd" d="M70.9921 24.3507V19.0835L72.8038 24.3433H74.8364L72.9908 19.1277C74.0897 18.8729 74.5315 18.1452 74.5315 16.9094V15.4365C74.5315 13.8281 73.8201 12.8618 71.8729 12.8618H69.0625V24.3507H70.9921ZM70.99 18.0171V14.4453H71.6336C72.2876 14.4453 72.5822 14.7487 72.5822 15.3762V17.0686C72.5822 17.6784 72.2935 18.0171 71.6336 18.0171H70.99Z" fill="white"/>
<path d="M78.6635 19.9822V24.3509H76.7325V19.9822L74.582 12.8694H76.597L77.7665 17.2219H77.7827L78.9508 12.8694H80.7905L78.6635 19.9822Z" fill="white"/>
<path d="M82.4596 22.6568L81.4771 25.2477H80.3945L80.6302 22.5051H82.4596V22.6568Z" fill="white"/>
<path d="M84.8281 12.8694H86.7577V24.3583H84.8281V12.8694Z" fill="white"/>
<path d="M89.2491 17.1363V24.3536H87.6289V12.8647H89.5261L91.6088 19.4517V12.8692H93.2172V24.358H91.5234L89.2491 17.1363Z" fill="white"/>
<path d="M95.6827 17.1363V24.3536H94.0625V12.8647H95.9582L98.0409 19.4517V12.8692H99.6464V24.358H97.9525L95.6827 17.1363Z" fill="white"/>
<path fill-rule="evenodd" clip-rule="evenodd" d="M100.488 15.8329V21.3873C100.488 23.1652 101.354 24.4805 103.4 24.4805C105.446 24.4805 106.33 23.1652 106.33 21.3873V15.8329C106.33 14.0448 105.429 12.7397 103.4 12.7397C101.372 12.7397 100.488 14.0389 100.488 15.8329ZM104.402 15.5279V21.6921C104.402 22.3874 104.078 22.8779 103.402 22.8779C102.725 22.8779 102.421 22.3859 102.421 21.6921V15.5279C102.421 14.8401 102.706 14.3496 103.402 14.3496C104.097 14.3496 104.402 14.8342 104.402 15.5279Z" fill="white"/>
<path d="M113.361 12.8694L111.177 24.3583H109.074L106.891 12.8694H108.854L110.18 20.8792H110.196L111.551 12.8694H113.361Z" fill="white"/>
<path fill-rule="evenodd" clip-rule="evenodd" d="M114.921 12.8618L112.754 24.3507H114.579L114.916 22.2503H116.964L117.32 24.3507H119.314L117.13 12.8618H114.921ZM116.716 20.7095H115.175L115.937 16.1036H115.954L116.716 20.7095Z" fill="white"/>
<path d="M118.781 12.8694H123.911V14.4454H122.319V24.3509H120.372V14.4454H118.781V12.8694Z" fill="white"/>
<path d="M124.555 12.8694H126.484V24.3583H124.555V12.8694Z" fill="white"/>
<path fill-rule="evenodd" clip-rule="evenodd" d="M127.344 15.8329V21.3873C127.344 23.1652 128.213 24.4805 130.257 24.4805C132.302 24.4805 133.185 23.1652 133.185 21.3873V15.8329C133.185 14.0448 132.287 12.7397 130.257 12.7397C128.228 12.7397 127.344 14.0389 127.344 15.8329ZM131.257 15.5279V21.6921C131.257 22.3874 130.936 22.8779 130.258 22.8779C129.581 22.8779 129.276 22.3859 129.276 21.6921V15.5279C129.276 14.8401 129.565 14.3496 130.258 14.3496C130.952 14.3496 131.257 14.8342 131.257 15.5279Z" fill="white"/>
<path d="M135.663 17.1363V24.3536H134.043V12.8647H135.94L138.023 19.4517V12.8692H139.631V24.358H137.937L135.663 17.1363Z" fill="white"/>
<path fill-rule="evenodd" clip-rule="evenodd" d="M37.2956 30.562L35.1289 42.0421H36.9495L37.2882 39.9431H39.34L39.695 42.0421H41.6732L39.4888 30.562H37.2956ZM39.0924 38.4025H37.5502L38.3132 33.7966H38.3294L39.0924 38.4025Z" fill="white"/>
<path d="M44.0148 34.8293V42.0467H42.3945V30.5623H44.2917L46.3744 37.1492V30.5623H47.977V42.0423H46.2831L44.0148 34.8293Z" fill="white"/>
<path fill-rule="evenodd" clip-rule="evenodd" d="M54.7661 38.9607V33.6434C54.7661 31.8656 54.037 30.562 51.9719 30.562H48.9922V42.0421H51.9675C54.037 42.0421 54.7661 40.7282 54.7661 38.9607ZM52.833 39.2993C52.833 39.9931 52.5281 40.4674 51.7327 40.4674L50.9197 40.4659V32.135H51.7327C52.5281 32.135 52.833 32.6093 52.833 33.2868V39.2993Z" fill="white"/>
<path d="M57.4727 30.5623H59.4037V42.0423H57.4727V30.5623Z" fill="white"/>
<path d="M62.0616 34.8293V42.0467H60.4414V30.5623H62.3371L64.4198 37.1492V30.5623H66.0282V42.0423H64.3314L62.0616 34.8293Z" fill="white"/>
<path d="M67.0391 30.5623H71.561V32.1368H68.9701V35.4229H70.8996V36.9798H68.9701V42.0423H67.0391V30.5623Z" fill="white"/>
<path fill-rule="evenodd" clip-rule="evenodd" d="M74.2538 42.0421V36.7763L76.0655 42.0421H78.0981L76.2525 36.8279C77.3513 36.5731 77.7932 35.8454 77.7932 34.6096V33.1367C77.7932 31.5268 77.0818 30.562 75.1346 30.562H72.3242V42.0421H74.2538ZM74.2517 35.7098V32.1365H74.8983C75.5523 32.1365 75.8469 32.4414 75.8469 33.0688V34.7612C75.8469 35.371 75.5582 35.7098 74.8983 35.7098H74.2517Z" fill="white"/>
<path fill-rule="evenodd" clip-rule="evenodd" d="M80.6213 30.562L78.4531 42.0421H80.2825L80.6213 39.9431H82.6701L83.0251 42.0421H85.0062L82.8219 30.562H80.6213ZM82.4122 38.4025H80.8745L81.6345 33.7966H81.6507L82.4122 38.4025Z" fill="white"/>
<path d="M85.4453 39.5707V38.03H87.2408V39.6046C87.2408 40.2483 87.5354 40.6209 88.1879 40.6209C88.7977 40.6209 89.0717 40.2144 89.0717 39.6046V39.1627C89.0717 38.5028 88.8007 38.0963 88.2085 37.5425L87.0744 36.4069C85.9741 35.3242 85.4659 34.6629 85.4659 33.3417V32.9528C85.4659 31.53 86.2952 30.4297 88.1747 30.4297C90.1042 30.4297 90.8672 31.3783 90.8672 33.0383V33.9691H89.0997V32.9705C89.0997 32.3092 88.7948 31.9881 88.185 31.9881C87.6429 31.9881 87.2718 32.2929 87.2718 32.9366V33.1738C87.2718 33.816 87.6267 34.1886 88.185 34.7307L89.4222 35.9502C90.471 37.0167 90.9791 37.6603 90.9791 38.93V39.4897C90.9791 41.0643 90.1322 42.1808 88.1688 42.1808C86.2053 42.1808 85.4453 41.0775 85.4453 39.5707Z" fill="white"/>
<path d="M91.4375 30.5623H96.5677V32.1368H94.9755V42.0423H93.0283V32.1368H91.4375V30.5623Z" fill="white"/>
<path fill-rule="evenodd" clip-rule="evenodd" d="M99.3124 42.0423V36.7766L101.117 42.0423H103.149L101.304 36.8281C102.403 36.5733 102.844 35.8457 102.844 34.6099V33.1369C102.844 31.527 102.14 30.5623 100.193 30.5623H97.3828V42.0423H99.3124ZM99.3104 35.7099V32.1366H99.954C100.608 32.1366 100.903 32.4415 100.903 33.069V34.7614C100.903 35.3712 100.614 35.7099 99.954 35.7099H99.3104Z" fill="white"/>
<path d="M109.425 30.5623V39.2526C109.425 41.0304 108.663 42.1808 106.698 42.1808C104.667 42.1808 103.82 41.0304 103.82 39.2526V30.5623H105.751V39.4352C105.751 40.1128 106.022 40.5694 106.698 40.5694C107.375 40.5694 107.647 40.1128 107.647 39.4352V30.5623H109.425Z" fill="white"/>
<path d="M110.441 39.08V33.5255C110.441 31.73 111.288 30.4324 113.32 30.4324C115.454 30.4324 116.046 31.6107 116.046 33.3105V34.6656H114.278V33.1529C114.278 32.4415 114.041 32.0349 113.346 32.0349C112.651 32.0349 112.365 32.5269 112.365 33.2206V39.3849C112.365 40.0786 112.66 40.5632 113.346 40.5632C114.032 40.5632 114.278 40.1213 114.278 39.4467V37.336H116.046V39.3171C116.046 40.9594 115.368 42.1776 113.32 42.1776C111.271 42.1776 110.441 40.8578 110.441 39.08Z" fill="white"/>
<path d="M116.367 30.5623H121.497V32.1368H119.905V42.0423H117.958V32.1368H116.367L116.367 30.5623Z" fill="white"/>
<path d="M127.913 30.5623V39.2526C127.913 41.0304 127.152 42.1808 125.187 42.1808C123.154 42.1808 122.309 41.0304 122.309 39.2526V30.5623H124.243V39.4352C124.243 40.1128 124.514 40.5694 125.191 40.5694C125.869 40.5694 126.14 40.1128 126.14 39.4352V30.5623H127.913Z" fill="white"/>
<path fill-rule="evenodd" clip-rule="evenodd" d="M130.859 42.0421V36.7763L132.668 42.0421H134.701L132.858 36.8279C133.957 36.5731 134.399 35.8454 134.399 34.6096V33.1367C134.399 31.5268 133.687 30.562 131.74 30.562H128.93V42.0421H130.859ZM130.857 35.7098V32.1365H131.501C132.155 32.1365 132.449 32.4414 132.449 33.0688V34.7612C132.449 35.371 132.161 35.7098 131.501 35.7098H130.857Z" fill="white"/>
<path d="M135.363 30.5623H139.969V32.1368H137.294V35.4229H139.209V36.9798H137.294V40.4678H139.969V42.0423H135.363V30.5623Z" fill="white"/>
</svg>
