<svg width="148" height="148" viewBox="0 0 148 148" fill="none" xmlns="http://www.w3.org/2000/svg">
<rect x="0.371094" y="0.586914" width="147.293" height="147.293" fill="#0A97D9"/>
<path d="M19.5594 12.98V42.664H14.5661V19.9425H14.5234L11.0222 23.5748H10.9766V18.365L15.5736 12.98H19.5594Z" fill="white"/>
<rect x="52.75" y="12.917" width="2.02382" height="12.0442" fill="white"/>
<path d="M55.957 24.9626H57.9808V19.6483H60.0047V18.0148H57.9808V14.5682H60.6969V12.917H55.957V24.9626Z" fill="white"/>
<path d="M66.4259 14.5682V12.917H61.5977V24.9626H66.4259V23.31H63.6215V19.6483H65.6276V18.0148H63.6215V14.5682H66.4259Z" fill="white"/>
<path fill-rule="evenodd" clip-rule="evenodd" d="M76.1317 20.7142C76.1317 19.6139 75.6368 18.9393 74.6249 18.7081C75.4571 18.4415 75.8327 17.8022 75.8327 16.7933V15.5663C75.8327 13.8636 75.1566 12.915 73.1328 12.915H70.2031V24.9592H73.3449C75.3702 24.9592 76.1317 24.018 76.1317 22.3079V20.7142ZM72.2265 14.5674H72.9188C73.5948 14.5674 73.8968 14.89 73.8968 15.5454V17.0184C73.8968 17.6591 73.5948 17.9964 72.9364 17.9964H72.2265V14.5674ZM73.1151 23.3079C73.7882 23.3079 74.1093 22.9706 74.1093 22.3314L74.1137 20.5197C74.1137 19.8804 73.8118 19.5431 73.1018 19.5431H72.2313V23.3079H73.1151Z" fill="white"/>
<path d="M77 24.9626H81.8283V23.31H79.0223V19.6483H81.0285V18.0148H79.0223V14.5682H81.8283V12.917H77V24.9626Z" fill="white"/>
<path d="M83.0742 12.917V24.9626H87.5136V23.31H85.098V12.917H83.0742Z" fill="white"/>
<path fill-rule="evenodd" clip-rule="evenodd" d="M88.2891 21.8516V16.0262C88.2891 14.1379 89.1934 12.7754 91.3425 12.7754C93.4915 12.7754 94.415 14.1437 94.415 16.0262V21.8516C94.415 23.7193 93.4723 25.1024 91.3425 25.1024C89.2126 25.1024 88.2891 23.7193 88.2891 21.8516ZM92.3922 22.1725V15.7048C92.3922 14.9772 92.0534 14.4631 91.3435 14.4631C90.6335 14.4631 90.3124 14.9772 90.3124 15.7048V22.1725C90.3124 22.9001 90.6144 23.4156 91.3435 23.4156C92.0726 23.4156 92.3922 22.9001 92.3922 22.1725Z" fill="white"/>
<path d="M98.0433 20.5556H98.0271L97.0859 12.917H95.1328L96.7486 24.9626H98.6472L99.7843 17.517H99.8005L100.991 24.9626H102.908L104.47 12.917H102.767L101.842 20.5556H101.826L100.708 12.917H99.0567L98.0433 20.5556Z" fill="white"/>
<path d="M48.7017 42.6198H50.6004L51.7375 35.1771H51.7551L52.9453 42.6198H54.863L56.4258 30.5771H54.7202L53.7981 38.2158H53.779L52.6625 30.5771H51.0098L49.9979 38.2158H49.9803L49.0391 30.5771H47.0859L48.7017 42.6198Z" fill="white"/>
<path fill-rule="evenodd" clip-rule="evenodd" d="M58.0672 42.6198H56.1523L58.4236 30.5771H60.7302L63.0177 42.6198H60.9409L60.5697 40.4193H58.4207L58.0672 42.6198ZM59.5084 33.9694H59.4893L58.6983 38.8006H60.3082L59.5084 33.9694Z" fill="white"/>
<path d="M66.3509 42.6198V32.2283H68.0198V30.5771H62.6406V32.2283H64.308V42.6198H66.3509Z" fill="white"/>
<path d="M73.7814 32.2283V30.5771H68.9531V42.6198H73.7814V40.9687H70.9769V37.3085H72.9831V35.6735H70.9769V32.2283H73.7814Z" fill="white"/>
<path fill-rule="evenodd" clip-rule="evenodd" d="M80.5998 33.2775V34.8226H80.6072C80.6072 36.1173 80.1403 36.8833 78.987 37.1484L80.9209 42.6203H78.7896L76.891 37.0983V42.6203H74.8672V30.5791H77.8131C79.8545 30.5791 80.5998 31.5895 80.5998 33.2775ZM77.5714 35.9777C78.2696 35.9777 78.5642 35.6227 78.5642 34.9835V33.2056C78.5642 32.5487 78.2622 32.2291 77.5714 32.2291H76.8953V35.9777H77.5714Z" fill="white"/>
<path fill-rule="evenodd" clip-rule="evenodd" d="M34.7667 37.8525V42.6719L30.0357 42.6704V37.8525H21.2305V34.7873L29.8604 12.9731H34.7667V33.9551H36.7817V37.8525H34.7667ZM30.0802 21.7295L25.6128 33.9548H30.1244V21.7295H30.0802Z" fill="white"/>
<path fill-rule="evenodd" clip-rule="evenodd" d="M83.1085 90.2891C99.897 90.2891 111.872 105.552 113.725 108.056V108.051C113.77 108.106 113.807 108.159 113.841 108.206L113.853 108.224C113.878 108.281 113.892 108.343 113.893 108.406C113.891 108.469 113.878 108.532 113.853 108.59C113.826 108.622 113.797 108.662 113.764 108.708C113.752 108.725 113.739 108.743 113.725 108.761C111.87 111.261 99.9 126.526 83.1085 126.526C68.5309 126.526 52.9355 113.304 52.9355 113.304C52.9355 113.304 47.0555 125.33 35.0349 126.45C34.9939 126.459 34.9518 126.463 34.9097 126.461L34.7801 126.472C34.5324 126.454 34.3399 126.249 34.3382 126C34.3389 125.911 34.3644 125.823 34.4119 125.747L34.5164 125.585C36.0468 123.032 40.012 115.718 40.012 108.406C40.012 101.122 36.0704 93.8241 34.5253 91.2686C34.4366 91.1339 34.3732 90.9841 34.3382 90.8267C34.3102 90.6102 34.5444 90.3671 34.7948 90.3524H34.8699C34.9092 90.3524 34.9489 90.3567 34.9875 90.3608C35.0243 90.3648 35.0601 90.3686 35.0938 90.3686C47.0776 91.5204 52.9355 103.51 52.9355 103.51C52.9355 103.51 68.5265 90.2891 83.1085 90.2891ZM87.5524 105.436C87.5505 108.141 89.7408 110.335 92.4455 110.339C93.7458 110.339 94.9932 109.824 95.9131 108.904C96.8329 107.985 97.35 106.739 97.3504 105.438C97.3495 102.734 95.157 100.541 92.4524 100.541C89.7477 100.54 87.5543 102.732 87.5524 105.436Z" fill="white"/>
<path d="M34.7191 61.592C34.6888 61.5823 34.6578 61.5754 34.6263 61.5714C34.4977 61.5722 34.3748 61.624 34.2845 61.7154C34.1941 61.8069 34.1438 61.9304 34.1446 62.059V65.3966C34.1421 65.5263 34.1927 65.6513 34.2845 65.7428C42.3857 72.7834 50.0611 66.1846 51.8375 64.4422C51.8706 64.3893 51.9136 64.3433 51.9642 64.3067C52.0428 64.2526 52.1354 64.2224 52.2308 64.2198C52.352 64.2191 52.4687 64.2656 52.5563 64.3494C52.5626 64.3578 52.5707 64.3648 52.5799 64.37C61.7341 73.1045 71.3318 66.03 73.3291 64.37L73.525 64.1903C73.5824 64.1647 73.6448 64.1522 73.7076 64.1535C73.7729 64.1516 73.8378 64.1641 73.8976 64.1903L74.0965 64.37C76.0923 66.03 85.6899 73.1045 94.8428 64.37C94.8493 64.3637 94.8552 64.3568 94.8604 64.3494C94.9482 64.2659 95.0648 64.2195 95.1859 64.2198C95.2814 64.2217 95.3742 64.252 95.4525 64.3067C95.505 64.3434 95.5504 64.3893 95.5866 64.4422C97.3615 66.1861 105.027 72.7834 113.137 65.7428C113.227 65.6505 113.278 65.526 113.277 65.3966V62.059C113.279 61.931 113.23 61.8074 113.141 61.7158C113.051 61.6242 112.929 61.5722 112.801 61.5714C112.766 61.5747 112.731 61.5816 112.698 61.592C112.623 61.6348 112.55 61.676 112.455 61.7187C109.962 62.9663 102.232 65.9357 95.2213 59.2972C95.155 59.2368 95.0858 59.175 95.0166 59.1028C94.9522 59.0739 94.8824 59.0588 94.8118 59.0586C94.7622 59.0617 94.7129 59.0691 94.6645 59.0807C94.5665 59.1193 94.4817 59.1853 94.42 59.2707C92.3285 60.8644 82.7308 67.363 74.1834 59.39L74.0582 59.2678C73.964 59.1781 73.8405 59.1258 73.7106 59.1205C73.5848 59.1267 73.4657 59.1791 73.3762 59.2678L73.2436 59.39C64.7006 67.363 55.0912 60.8629 53.0026 59.2707C52.9442 59.1852 52.8616 59.1191 52.7654 59.0807C52.717 59.0697 52.6677 59.0623 52.6182 59.0586C52.5487 59.0604 52.4802 59.0754 52.4164 59.1028C52.3529 59.1724 52.2845 59.2374 52.2116 59.2972C45.196 65.9357 37.4676 62.9663 34.9783 61.7187C34.8914 61.676 34.8074 61.6348 34.7323 61.592" fill="white"/>
<path d="M51.8369 76.6027C51.8714 76.5513 51.9148 76.5064 51.965 76.4702C52.0427 76.4148 52.1348 76.3831 52.2302 76.3788C52.3524 76.3793 52.4697 76.4274 52.5571 76.5129C52.563 76.5212 52.5705 76.5282 52.5792 76.5335C61.7306 85.2577 71.3312 78.1861 73.3285 76.5335L73.5244 76.3479C73.5826 76.3256 73.6447 76.3151 73.707 76.317C73.7727 76.3148 73.8382 76.3253 73.9 76.3479L74.0959 76.5335C76.0917 78.1861 85.6878 85.2577 94.8436 76.5335C94.8436 76.5335 94.8539 76.5217 94.8598 76.5129C94.9468 76.4276 95.0635 76.3795 95.1853 76.3788C95.2808 76.3821 95.3732 76.4139 95.4505 76.4702C95.5033 76.5058 95.5492 76.5507 95.586 76.6027C97.3535 78.3482 105.025 84.9469 113.136 77.8989C113.229 77.8113 113.282 77.6894 113.283 77.5616V74.2107C113.284 74.0836 113.233 73.9616 113.143 73.8718C113.054 73.7819 112.932 73.7316 112.805 73.732C112.77 73.7355 112.735 73.7419 112.701 73.7511L112.458 73.8734C109.968 75.1224 102.233 78.0845 95.2251 71.4548L95.0218 71.2633C94.9589 71.2284 94.8875 71.2115 94.8156 71.2147C94.7641 71.2139 94.7134 71.2266 94.6683 71.2516C94.5669 71.2781 94.4794 71.3424 94.4238 71.4313C92.3352 73.022 82.7346 79.5221 74.1857 71.5491L74.0605 71.4239C73.967 71.3359 73.8428 71.2878 73.7144 71.2899C73.5896 71.2888 73.4695 71.337 73.38 71.4239L73.2474 71.5491C64.7044 79.5221 55.095 73.022 53.0064 71.4313C52.9535 71.343 52.8685 71.2787 52.7692 71.2516C52.7237 71.2281 52.6732 71.2155 52.622 71.2147C52.5525 71.2126 52.4838 71.2294 52.4231 71.2633C52.3568 71.3296 52.2861 71.393 52.214 71.4548C45.1984 78.083 37.4714 75.1224 34.9806 73.8734L34.7346 73.7511C34.7047 73.7425 34.6742 73.7361 34.6433 73.732C34.5157 73.7312 34.393 73.7812 34.3024 73.8711C34.2118 73.9609 34.1606 74.0831 34.1602 74.2107V77.5616C34.1584 77.6885 34.209 77.8105 34.3001 77.8989C42.4013 84.9469 50.0782 78.3408 51.8531 76.6027" fill="white"/>
<path d="M47.375 12.917V24.9626H51.8159V23.31H49.4003V12.917H47.375Z" fill="white"/>
</svg>
