<svg width="148" height="148" viewBox="0 0 148 148" fill="none" xmlns="http://www.w3.org/2000/svg">
<rect x="0.664062" y="0.586914" width="147.293" height="147.293" fill="#56C02B"/>
<path d="M47.7344 12.9155V24.9612H52.1753V23.3085H49.7597V12.9155H47.7344Z" fill="white"/>
<rect x="53.2773" y="12.9155" width="2.02379" height="12.0442" fill="white"/>
<path d="M56.6328 24.9612H58.6566V19.6483H60.6819V18.0148H58.6566V14.5682H61.3713V12.9155H56.6328V24.9612Z" fill="white"/>
<path d="M62.4375 24.9612H67.2658V23.3085H64.4613V19.6483H66.4689V18.0148H64.4613V14.5682H67.2658V12.9155H62.4375V24.9612Z" fill="white"/>
<path d="M11.4492 18.305V23.5162H11.4934L14.996 19.881H15.0417V42.6143H20.0335V12.9155H16.0477L11.4492 18.305Z" fill="white"/>
<path d="M31.9073 22.3349C29.9365 22.3349 28.4915 23.0346 27.7021 24.397H27.6579V16.9896H36.2436V12.9185H23.1036V29.651H27.6579V28.9911C27.6579 27.2413 28.4459 26.2765 29.8466 26.2765C31.3814 26.2765 31.9957 27.3282 31.9957 28.9499V36.1334C31.9957 37.7079 31.4256 38.8038 29.8923 38.8038C28.1852 38.8038 27.5739 37.6652 27.5739 35.9124V32.1903H23.0078V35.5648C23.0078 40.0749 24.8033 42.9648 29.8849 42.9648C34.9224 42.9648 36.9801 40.2929 36.9801 36.1761V28.9042C36.9801 24.2173 34.5718 22.3349 31.8999 22.3349" fill="white"/>
<path fill-rule="evenodd" clip-rule="evenodd" d="M47.7266 33.7175V39.5194C47.7266 41.3797 48.6295 42.7599 50.7711 42.7599C52.9128 42.7599 53.8319 41.3782 53.8319 39.5194V33.7175C53.8319 31.8395 52.8951 30.4771 50.7711 30.4771C48.6471 30.4771 47.7266 31.841 47.7266 33.7175ZM51.8142 33.3981V39.8378C51.8142 40.564 51.4843 41.078 50.7714 41.078C50.0585 41.078 49.7403 40.564 49.7403 39.8378V33.3981C49.7403 32.672 50.0467 32.1594 50.7714 32.1594C51.4961 32.1594 51.8142 32.672 51.8142 33.3981Z" fill="white"/>
<path d="M56.671 35.0797V42.6152H54.9727V30.6196H56.9552L59.1308 37.5012V30.6196H60.8114V42.6152H59.0439L56.671 35.0797Z" fill="white"/>
<path d="M65.1875 30.6196H67.2039V40.9699H69.6122V42.6152H65.1875V30.6196Z" fill="white"/>
<path fill-rule="evenodd" clip-rule="evenodd" d="M72.4646 30.6201L70.1992 42.6157H72.1126L72.4646 40.4225H74.6018L74.9774 42.6157H77.0483L74.7653 30.6201H72.4646ZM74.3407 38.8125H72.7308L73.5262 34.0004H73.5439L74.3407 38.8125Z" fill="white"/>
<path d="M79.5748 35.0797V42.6152H77.875V30.6196H79.8576L82.0331 37.5012V30.6196H83.7137V42.6152H81.9462L79.5748 35.0797Z" fill="white"/>
<path fill-rule="evenodd" clip-rule="evenodd" d="M91.0527 39.3973V33.8414C91.0527 31.9826 90.2926 30.6201 88.1333 30.6201H85.0195V42.6157H88.1333C90.2926 42.6157 91.0527 41.2355 91.0527 39.3973ZM89.0336 39.7507C89.0336 40.4754 88.7125 40.9703 87.8832 40.9703H87.0333V32.2653H87.8832C88.7125 32.2653 89.0336 32.7602 89.0336 33.4687V39.7507Z" fill="white"/>
<path d="M62.4084 100.176C62.4948 100.176 62.5776 100.21 62.6386 100.271C62.6997 100.332 62.734 100.415 62.734 100.501V111.227C62.7344 111.314 62.7002 111.397 62.6391 111.458C62.5779 111.519 62.4949 111.553 62.4084 111.553H58.0692C57.9826 111.553 57.8994 111.519 57.838 111.458C57.7767 111.397 57.7422 111.314 57.7422 111.227V100.501C57.7422 100.415 57.7767 100.332 57.838 100.271C57.8994 100.21 57.9826 100.175 58.0692 100.176H62.4084Z" fill="white"/>
<path d="M110.073 116.157H38.5457C38.3632 116.162 38.2179 116.311 38.2188 116.494V120.866C38.2212 121.044 38.3671 121.188 38.5457 121.187H110.073C110.251 121.186 110.397 121.044 110.401 120.866V116.494C110.401 116.311 110.255 116.162 110.073 116.157Z" fill="white"/>
<path d="M110.072 124.846H38.5452C38.3681 124.848 38.225 124.991 38.2227 125.168V129.553C38.2259 129.732 38.3711 129.875 38.5496 129.876H110.072C110.251 129.874 110.396 129.732 110.401 129.553V125.168C110.397 124.99 110.251 124.846 110.072 124.846" fill="white"/>
<path d="M96.4628 88.3038C95.5702 87.6042 93.184 85.9722 90.2765 85.9722C88.1967 85.9722 86.2627 86.7911 84.532 88.4128C84.411 88.5281 84.3419 88.6876 84.3405 88.8547V89.2583C84.3317 89.4438 84.4069 89.6234 84.5453 89.7473C84.6848 89.8647 84.8719 89.9085 85.049 89.8651C85.0946 89.8579 85.1395 89.8465 85.1831 89.8313C85.3174 89.7825 85.4395 89.7051 85.541 89.6044C85.9151 89.3526 86.9403 89.0153 88.4058 89.0153C89.92 89.0153 92.8983 89.4218 95.7705 92.1084L95.8368 92.1673C96.0004 92.3342 96.2246 92.4277 96.4584 92.4266C96.6861 92.4274 96.9045 92.336 97.0637 92.1732L97.1227 92.1128C100.015 89.4262 102.988 89.0197 104.502 89.0197C105.975 89.0197 107.006 89.3643 107.374 89.6089C107.487 89.7176 107.622 89.8001 107.77 89.8504C107.908 89.8833 108.052 89.8823 108.189 89.8475C108.454 89.7747 108.639 89.5337 108.64 89.2583V88.9136C108.638 88.7466 108.569 88.5873 108.448 88.4718C106.701 86.8073 104.747 85.9678 102.634 85.9678C99.7518 85.9678 97.3775 87.5747 96.4584 88.3024" fill="white"/>
<path d="M92.0237 59.7992C91.8707 59.8747 91.7571 60.0119 91.7115 60.1763L91.6393 60.4149C91.5835 60.5989 91.6185 60.7984 91.7335 60.9525C91.8373 61.0951 91.9994 61.1837 92.1754 61.1941C92.2051 61.1999 92.2356 61.1999 92.2653 61.1941C92.3855 61.1923 92.5037 61.1621 92.6099 61.1057C92.7547 61.0713 92.9031 61.0549 93.0518 61.0571C93.3714 61.0571 96.2554 61.1543 98.1614 64.3948L98.1865 64.4419C98.2809 64.6221 98.4465 64.7546 98.6431 64.8072C98.7173 64.8291 98.794 64.8409 98.8714 64.8425C98.9971 64.8428 99.1209 64.8125 99.2322 64.7542L99.2794 64.7306C100.267 64.2225 101.359 63.9521 102.47 63.9411C104.277 63.9411 105.457 64.6776 105.732 64.9854C105.79 65.0889 105.868 65.1788 105.964 65.2491C106.038 65.2923 106.116 65.3297 106.196 65.361C106.231 65.3698 106.267 65.3748 106.302 65.3757C106.323 65.378 106.345 65.378 106.366 65.3757C106.465 65.3752 106.562 65.351 106.65 65.305C106.797 65.2295 106.907 65.0969 106.953 64.9383L107.014 64.7276C107.031 64.6714 107.04 64.6127 107.039 64.5538C107.04 64.4455 107.011 64.3389 106.955 64.246C105.566 61.8348 103.551 61.331 102.103 61.331C101.223 61.342 100.352 61.5055 99.5283 61.8142C98.8743 60.9304 97.2173 59.1113 94.7044 59.1113C93.7701 59.1239 92.8518 59.356 92.0237 59.7889" fill="white"/>
<path d="M76.9069 70.8006L76.9276 71.1232C76.9386 71.3062 77.0313 71.4746 77.18 71.582C77.3287 71.6893 77.5177 71.7242 77.695 71.677C77.7305 71.6686 77.7655 71.6578 77.7995 71.6446C77.9197 71.5949 78.0259 71.5165 78.1088 71.4163C78.4123 71.1968 79.3918 70.7962 80.8367 70.7962C82.2257 70.7962 84.3379 71.1673 86.4913 72.9363L86.5414 72.9879C86.6948 73.1208 86.8907 73.1944 87.0937 73.1956H87.1468C87.3615 73.1811 87.5624 73.0846 87.7079 72.926L87.7551 72.8715C90.1398 70.3484 92.7071 69.9743 94.0253 69.9743C94.9651 69.9743 95.6308 70.1672 95.8901 70.3145C95.9984 70.4058 96.1257 70.4717 96.2627 70.5075C96.3991 70.5417 96.5425 70.5351 96.6751 70.4883C96.9324 70.3973 97.0978 70.1464 97.0802 69.8741L97.064 69.5943C97.0536 69.4289 96.9759 69.2751 96.849 69.1686C95.4261 67.9711 93.8898 67.3687 92.274 67.3687C89.7583 67.3687 87.7507 68.8534 86.9199 69.5781C86.1599 69.0596 84.3128 67.9932 82.1476 67.9932C80.2446 67.9932 78.5389 68.7841 77.0734 70.3381C76.959 70.4625 76.8991 70.6274 76.9069 70.7962" fill="white"/>
<path d="M40.7109 76.5424C40.7102 74.4851 41.5269 72.5118 42.9813 71.0568C44.4357 69.6019 46.4087 68.7844 48.4659 68.7844C48.6339 68.7844 48.7973 68.7991 48.9623 68.8095C49.2752 64.5974 52.0847 60.9843 56.0898 59.6432C60.0949 58.3021 64.5136 59.4948 67.2999 62.6691C70.0862 65.8433 70.696 70.3794 68.8469 74.1768C74.6919 75.4667 78.626 80.9533 77.9724 86.9031C77.3187 92.8529 72.2873 97.3544 66.3017 97.3446C65.8289 97.3446 50.6547 97.2533 50.6547 97.2533C47.3417 97.2583 44.3436 95.2906 43.0302 92.249C41.7169 89.2074 42.3403 85.6759 44.6157 83.2678C42.2015 81.8891 40.7113 79.3224 40.7109 76.5424Z" fill="white"/>
</svg>
