<svg width="18" height="19" viewBox="0 0 18 19" fill="none" xmlns="http://www.w3.org/2000/svg">
<path d="M15.1721 9.12632C15.1508 9.03617 15.1076 8.95267 15.0463 8.88324C14.985 8.81382 14.9074 8.76061 14.8206 8.72835L10.7699 7.2089L11.8007 2.05289C11.824 1.93309 11.8077 1.80895 11.7543 1.6992C11.7009 1.58945 11.6133 1.50005 11.5046 1.44449C11.396 1.38892 11.2722 1.37021 11.1519 1.39117C11.0317 1.41214 10.9215 1.47164 10.8381 1.5607L2.96308 9.9982C2.89912 10.0656 2.85286 10.1478 2.82841 10.2374C2.80397 10.3271 2.80211 10.4214 2.823 10.5119C2.84389 10.6024 2.88688 10.6864 2.94814 10.7562C3.00939 10.8261 3.087 10.8797 3.17402 10.9123L7.22613 12.4317L6.19816 17.5821C6.17482 17.7019 6.19108 17.826 6.24448 17.9358C6.29788 18.0455 6.38553 18.1349 6.4942 18.1905C6.60287 18.2461 6.72666 18.2648 6.84689 18.2438C6.96713 18.2229 7.07729 18.1634 7.16074 18.0743L15.0357 9.63679C15.0985 9.56938 15.1438 9.48758 15.1676 9.39857C15.1914 9.30956 15.193 9.21607 15.1721 9.12632ZM7.68949 15.8644L8.42566 12.1814C8.45201 12.0508 8.43113 11.9151 8.36675 11.7984C8.30237 11.6817 8.19866 11.5917 8.0741 11.5444L4.35879 10.1487L10.3086 3.77414L9.57316 7.4571C9.54682 7.58772 9.56769 7.72345 9.63208 7.84012C9.69646 7.95678 9.80017 8.0468 9.92473 8.09414L13.6372 9.48632L7.68949 15.8644Z" fill="#343330"/>
</svg>
