<svg width="148" height="148" viewBox="0 0 148 148" fill="none" xmlns="http://www.w3.org/2000/svg">
<rect x="0.628906" y="0.586914" width="147.293" height="147.293" fill="#19486A"/>
<path fill-rule="evenodd" clip-rule="evenodd" d="M50.6307 12.9126H47.6289V24.9583H49.6542V20.8723H50.6307C52.6722 20.8723 53.4175 19.8428 53.4175 18.1533V15.614C53.4175 13.9245 52.6722 12.9126 50.6307 12.9126ZM49.6523 19.3081V14.5638H50.3961C51.0943 14.5638 51.3889 14.8863 51.3889 15.5418V18.3124C51.3889 18.9708 51.0899 19.3081 50.3961 19.3081H49.6523Z" fill="white"/>
<path fill-rule="evenodd" clip-rule="evenodd" d="M55.9422 12.9121L53.668 24.9578H55.5857L55.9422 22.7484H58.0897L58.4624 24.9578H60.5377L58.2488 12.9121H55.9422ZM57.8294 21.1373H56.2091L57.0119 16.3046H57.0296L57.8294 21.1373Z" fill="white"/>
<path fill-rule="evenodd" clip-rule="evenodd" d="M63.5785 24.9656V19.4406L65.4742 24.9582H67.6025L65.6671 19.4863C66.8263 19.2212 67.2873 18.4552 67.2873 17.1591V15.614C67.2873 13.9245 66.542 12.9126 64.5006 12.9126H61.5547V24.9656H63.5785ZM63.5781 18.3198V14.5711L64.2585 14.5638C64.9597 14.5638 65.2542 14.8863 65.2542 15.5418V17.3255C65.2542 17.9648 64.9523 18.3198 64.2585 18.3198H63.5781Z" fill="white"/>
<path d="M68.0078 12.9121H73.3884V14.5633H71.7181V24.9578H69.6766V14.5633H68.0078V12.9121Z" fill="white"/>
<path d="M76.3761 17.3898V24.9578H74.6719V12.9121H76.6574L78.8447 19.8216V12.9121H80.5298V24.9578H78.7549L76.3761 17.3898Z" fill="white"/>
<path d="M82.1953 12.9121H87.0236V14.5633H84.2206V18.0099H86.2268V19.6464H84.2206V23.3051H87.0236V24.9578H82.1953V12.9121Z" fill="white"/>
<path fill-rule="evenodd" clip-rule="evenodd" d="M90.309 24.9656V19.4406L92.2076 24.9582H94.3345L92.3991 19.4863C93.5568 19.2212 94.0193 18.4552 94.0193 17.1591V15.614C94.0193 13.9245 93.2755 12.9126 91.231 12.9126H88.2852V24.9656H90.309ZM90.3085 18.3198V14.5711L90.9846 14.5638C91.6769 14.5638 91.9788 14.8863 91.9788 15.5418V17.3255C91.9788 17.9648 91.6769 18.3198 90.9846 18.3198H90.3085Z" fill="white"/>
<path d="M95.0273 22.3627V20.7425H96.9112V22.3937C96.9112 23.0697 97.2058 23.4601 97.9025 23.4601C98.5432 23.4601 98.826 23.0329 98.826 22.3937V21.9444C98.826 21.2507 98.5432 20.8235 97.9187 20.2373L96.7315 19.0457C95.5767 17.9115 95.045 17.2163 95.045 15.8332V15.4237C95.045 13.9302 95.9155 12.7725 97.8848 12.7725C99.9087 12.7725 100.71 13.7667 100.71 15.5092V16.4857H98.8614V15.4385C98.8614 14.7432 98.5432 14.4074 97.9025 14.4074C97.334 14.4074 96.9451 14.7285 96.9451 15.4031V15.652C96.9451 16.3281 97.3192 16.717 97.9025 17.2855L99.1987 18.564C100.3 19.6835 100.831 20.3581 100.831 21.6911V22.2803C100.831 23.9344 99.947 25.1039 97.8848 25.1039C95.8227 25.1039 95.0273 23.9506 95.0273 22.3686" fill="white"/>
<path d="M106.06 19.6464H104.109V24.9578H102.082V12.9121H104.109V18.0129H106.06V12.9121H108.1V24.9578H106.06V19.6464Z" fill="white"/>
<rect x="109.43" y="12.9121" width="2.02383" height="12.0442" fill="white"/>
<path fill-rule="evenodd" clip-rule="evenodd" d="M115.816 12.9126H112.809V24.9583H114.841V20.8723H115.816C117.859 20.8723 118.605 19.8428 118.605 18.1533V15.614C118.605 13.9245 117.859 12.9126 115.816 12.9126ZM114.832 19.3081V14.5638H115.568C116.27 14.5638 116.564 14.8863 116.564 15.5418V18.3124C116.564 18.9708 116.262 19.3081 115.568 19.3081H114.832Z" fill="white"/>
<path d="M119.383 22.3627V20.7425H121.261V22.3937C121.261 23.0697 121.563 23.4601 122.257 23.4601C122.894 23.4601 123.18 23.0329 123.18 22.3937V21.9444C123.18 21.2507 122.894 20.8235 122.274 20.2373L121.084 19.0457C119.931 17.9115 119.398 17.2163 119.398 15.8332V15.4237C119.398 13.9302 120.27 12.7725 122.237 12.7725C124.263 12.7725 125.06 13.7667 125.06 15.5092V16.4857H123.218V15.4385C123.218 14.7432 122.897 14.4074 122.259 14.4074C121.691 14.4074 121.302 14.7285 121.302 15.4031V15.652C121.302 16.3281 121.672 16.717 122.259 17.2855L123.556 18.564C124.656 19.6835 125.188 20.3581 125.188 21.6911V22.2803C125.188 23.9344 124.304 25.1039 122.242 25.1039C120.18 25.1039 119.384 23.9506 119.384 22.3686" fill="white"/>
<path d="M22.6663 12.9316V42.6274H17.673V19.8957H17.6289L14.1247 23.5309H14.082V18.3182L18.682 12.9316H22.6663Z" fill="white"/>
<path d="M24.9492 12.9316H37.478V17.5301L30.95 42.6274H25.9979L32.6571 17.0043H24.9492V12.9316Z" fill="white"/>
<path d="M47.6367 30.4082H52.4532V32.0844H49.6929V35.5841H51.7491V37.2411H49.6929V42.6336H47.6367V30.4082Z" fill="white"/>
<path fill-rule="evenodd" clip-rule="evenodd" d="M53.1719 33.563V39.4724H53.1866C53.1866 41.3652 54.0969 42.7718 56.2798 42.7718C58.4627 42.7718 59.3995 41.3652 59.3995 39.4724V33.563C59.3995 31.6526 58.4214 30.2637 56.265 30.2637C54.1087 30.2637 53.1719 31.6482 53.1719 33.563ZM57.3509 33.2389V39.7964V39.8023C57.3509 40.5417 57.0092 41.0646 56.2875 41.0646C55.5658 41.0646 55.2432 40.5387 55.2432 39.8023V33.2389C55.2432 32.4995 55.5481 31.9766 56.2875 31.9766C57.0269 31.9766 57.3509 32.5024 57.3509 33.2389Z" fill="white"/>
<path fill-rule="evenodd" clip-rule="evenodd" d="M62.7887 42.6336V37.0261L64.7138 42.6291H66.8746L64.9112 37.0747C66.0821 36.8096 66.552 36.0333 66.552 34.718V33.1493C66.552 31.4393 65.7935 30.4082 63.7196 30.4082H60.7266V42.6336H62.7887ZM62.7883 35.8906V32.0846H63.4732C64.1758 32.0846 64.4836 32.4086 64.4836 33.0758V34.8802C64.4836 35.5297 64.1758 35.8906 63.4732 35.8906H62.7883Z" fill="white"/>
<path d="M69.8008 30.4082H75.2639V32.0844H73.57V42.6336H71.4961V32.0844H69.8008V30.4082Z" fill="white"/>
<path d="M80.2614 37.2411H78.2774V42.6336H76.2227V30.4082H78.2774V35.5841H80.2614V30.4082H82.3353V42.6336H80.2614V37.2411Z" fill="white"/>
<path d="M83.6719 30.4082H88.5767V32.0844H85.7281V35.5841H87.7651V37.2411H85.7281V40.9574H88.5767V42.6336H83.6719V30.4082Z" fill="white"/>
<path d="M95.1469 36.1053H98.0677V42.6334H96.5948V41.2989C96.3252 42.2195 95.7478 42.7718 94.6299 42.7718C92.8624 42.7718 92.0508 41.3652 92.0508 39.4724V33.563C92.0508 31.6482 92.9699 30.2637 95.1351 30.2637C97.4064 30.2637 98.081 31.526 98.081 33.3288V34.41H96.1927V33.1668C96.1927 32.4097 95.8981 31.9767 95.1616 31.9767C94.4251 31.9767 94.0982 32.4996 94.0982 33.239V39.8024C94.0982 40.5389 94.4031 41.0647 95.1086 41.0647C95.7743 41.0647 96.1175 40.6847 96.1175 39.8863V37.7285H95.1439L95.1469 36.1053Z" fill="white"/>
<path fill-rule="evenodd" clip-rule="evenodd" d="M99.2344 33.563V39.4724C99.2344 41.3652 100.145 42.7718 102.328 42.7718C104.51 42.7718 105.449 41.3652 105.449 39.4724V33.563C105.449 31.6526 104.484 30.2637 102.328 30.2637C100.171 30.2637 99.2344 31.6482 99.2344 33.563ZM103.401 33.2389V39.7964V39.8023C103.401 40.5417 103.056 41.0646 102.336 41.0646C101.615 41.0646 101.291 40.5387 101.291 39.8023V33.2389C101.291 32.4995 101.596 31.9766 102.336 31.9766C103.075 31.9766 103.401 32.5024 103.401 33.2389Z" fill="white"/>
<path fill-rule="evenodd" clip-rule="evenodd" d="M108.343 30.4082L106.035 42.6336H107.984L108.343 40.3962H110.526L110.903 42.6336H113.014L110.688 30.4082H108.343ZM110.257 38.7569H108.615L109.428 33.852H109.444L110.257 38.7569Z" fill="white"/>
<path d="M114.191 30.4082H116.248V40.9574H118.699V42.6336H114.191V30.4082Z" fill="white"/>
<path d="M119.438 40.0012V38.3604H121.352V40.0366C121.352 40.7215 121.66 41.1192 122.361 41.1192C123.012 41.1192 123.301 40.6847 123.301 40.0366V39.5682C123.301 38.8641 123.006 38.4326 122.38 37.836L121.174 36.6297C119.996 35.4749 119.461 34.7723 119.461 33.3642V32.9503C119.461 31.4361 120.345 30.2637 122.345 30.2637C124.407 30.2637 125.213 31.2726 125.213 33.0402V34.0314H123.333V32.9694C123.333 32.2654 123.008 31.9222 122.357 31.9222C121.781 31.9222 121.385 32.2477 121.385 32.9326V33.1845C121.385 33.8694 121.765 34.2671 122.357 34.8445L123.674 36.1421C124.793 37.2778 125.335 37.9627 125.335 39.3148V39.904C125.335 41.5817 124.432 42.7718 122.341 42.7718C120.249 42.7718 119.438 41.5935 119.438 39.9953" fill="white"/>
<path fill-rule="evenodd" clip-rule="evenodd" d="M110.841 89.917C110.841 79.5726 102.612 71.1224 92.3602 70.7483C89.6534 63.0792 82.4046 57.9507 74.2719 57.9507C66.1391 57.9507 58.8904 63.0792 56.1835 70.7483C45.9334 71.1224 37.707 79.5741 37.707 89.917C37.7076 95.8301 40.44 101.411 45.11 105.038C44.609 106.769 44.3542 108.562 44.3529 110.364C44.3529 120.937 52.9593 129.543 63.5393 129.543C67.405 129.547 71.1805 128.376 74.3654 126.185C77.5134 128.296 81.2188 129.421 85.0088 129.417C95.5874 129.417 104.194 120.81 104.194 110.236C104.194 108.471 103.949 106.715 103.468 105.018C108.119 101.388 110.839 95.8183 110.841 89.9185V89.917ZM89.5907 77.135C89.5907 84.8149 83.9067 91.1721 76.5287 92.2709C76.4006 91.4917 76.3336 90.7038 76.3284 89.9142C76.3398 82.3328 81.8923 75.8988 89.3904 74.7783C89.5179 75.5575 89.5849 76.3454 89.5907 77.135ZM69.6833 110.328C69.711 114.434 71.39 118.356 74.3417 121.21C77.2559 118.317 78.8825 114.373 78.8548 110.267C78.8271 106.161 77.1473 102.239 74.1945 99.3853C71.2815 102.279 69.6556 106.223 69.6833 110.328ZM59.1531 74.7798L59.1572 74.7804C59.03 75.5589 58.9631 76.3462 58.9572 77.135C58.9572 84.8149 64.6368 91.1721 72.0118 92.2738C72.1404 91.4948 72.2079 90.7068 72.2136 89.9172C72.2136 82.2372 66.5331 75.8795 59.1572 74.7804L59.1575 74.7783L59.1531 74.7798ZM61.6321 104.488C65.5294 103.22 68.7533 100.439 70.5781 96.7689C66.9436 94.875 62.7001 94.5222 58.8028 95.79C54.9054 97.0577 51.6816 99.8394 49.8568 103.509C53.4913 105.403 57.7347 105.756 61.6321 104.488ZM77.9202 96.6663C81.5747 94.7468 85.8507 94.3885 89.7736 95.6733C93.6966 96.9581 96.9322 99.7765 98.7431 103.486C95.0886 105.406 90.8126 105.764 86.8897 104.479C82.9668 103.194 79.7311 100.376 77.9202 96.6663ZM88.3167 71.0269C85.8818 65.4382 80.3683 61.8219 74.2722 61.8152C68.1762 61.8223 62.6629 65.4384 60.2278 71.0269C66.3829 72.1247 71.6207 76.1452 74.2722 81.8074C76.9257 76.1468 82.1625 72.1271 88.3167 71.0269ZM41.5764 89.9173C41.5865 82.0951 47.4794 75.5327 55.2555 74.6842C54.4402 80.8909 56.7205 87.1027 61.3579 91.3077C55.1208 92.0281 49.6288 95.7494 46.6477 101.275C43.4221 98.3803 41.5785 94.2513 41.5764 89.9173ZM48.5514 107.189C48.329 108.232 48.2169 109.297 48.217 110.364C48.2097 115.85 51.1416 120.92 55.9003 123.65C60.6591 126.38 66.5156 126.352 71.2478 123.576C66.9023 119.119 65.0021 112.824 66.1559 106.707C60.7141 109.717 54.1496 109.896 48.5514 107.189ZM100.333 110.236C100.341 115.691 97.443 120.738 92.7277 123.481C88.0124 126.224 82.1931 126.248 77.4552 123.544C81.7292 119.056 83.56 112.774 82.3659 106.692C87.8208 109.722 94.4101 109.902 100.022 107.174C100.229 108.182 100.333 109.208 100.333 110.236ZM93.4578 77.1352C93.4593 82.4743 91.2299 87.5712 87.3083 91.1943C93.5324 91.954 98.9947 95.7016 101.943 101.235C106.417 97.1896 108.095 90.8923 106.227 85.1571C104.359 79.4218 99.2953 75.32 93.2972 74.6842C93.4021 75.497 93.4557 76.3156 93.4578 77.1352Z" fill="white"/>
</svg>
