<svg width="149" height="148" viewBox="0 0 149 148" fill="none" xmlns="http://www.w3.org/2000/svg">
<rect x="0.957031" y="0.586914" width="147.293" height="147.293" fill="#00689D"/>
<path d="M12.3281 18.3489V23.5602H12.3738L15.8764 19.925H15.9206V42.6538H20.9139V12.9609H16.9296L12.3281 18.3489Z" fill="white"/>
<path fill-rule="evenodd" clip-rule="evenodd" d="M38.3933 31.1369V35.5174H38.4007C38.4007 40.1159 36.3386 43.0058 31.036 43.0058C25.7821 43.0058 23.7656 39.677 23.7656 35.0785V20.6275C23.7656 15.9848 25.7364 12.6118 30.9918 12.6118C36.5109 12.6118 37.9559 15.677 37.9559 20.056V21.635H33.4016V19.6613C33.4016 17.8231 32.8772 16.7714 31.0802 16.7714C29.2832 16.7714 28.7162 18.041 28.7162 19.838V26.232H28.7589C29.5027 24.7856 30.7724 23.8223 32.8757 23.8223C36.4667 23.8223 38.3933 26.2762 38.3933 31.1369ZM31.0431 38.9363C32.7502 38.9363 33.4513 37.8419 33.4513 35.9595V30.788C33.4513 28.8599 32.7929 27.8083 31.0872 27.8083C29.5097 27.8083 28.8086 28.8599 28.7232 30.5244V35.9595C28.7232 37.7992 29.3786 38.9363 31.0431 38.9363Z" fill="white"/>
<path d="M96.1235 72.9077C96.1235 72.9077 94.8848 74.553 95.2397 76.157C95.5947 77.761 97.4314 78.714 97.4314 78.714C97.4314 78.714 98.6702 77.0687 98.3152 75.4662C97.9602 73.8636 96.1235 72.9077 96.1235 72.9077Z" fill="white"/>
<path d="M94.1062 82.3112C94.1062 82.3112 95.3449 80.6645 94.9899 79.0619C94.635 77.4593 92.7997 76.5049 92.7997 76.5049C92.7997 76.5049 91.5595 78.1502 91.9159 79.7542C92.2724 81.3582 94.1077 82.3112 94.1077 82.3112" fill="white"/>
<path d="M99.1992 80.5494C99.1992 80.5494 100.507 81.875 101.998 81.7366C103.488 81.5981 104.592 80.0707 104.592 80.0707C104.592 80.0707 103.285 78.745 101.793 78.882C100.301 79.019 99.1992 80.5494 99.1992 80.5494Z" fill="white"/>
<path d="M101.343 73.4972C100.13 74.7271 100.301 76.9041 100.301 76.9041C100.301 76.9041 102.438 77.0897 103.654 75.8612C104.869 74.6328 104.695 72.4543 104.695 72.4543C104.695 72.4543 102.556 72.2687 101.343 73.4972Z" fill="white"/>
<path d="M98.6675 85.4413C100.152 85.618 101.549 84.3425 101.549 84.3425C101.549 84.3425 100.537 82.7767 99.0505 82.6074C97.5643 82.438 96.168 83.7076 96.168 83.7076C96.168 83.7076 97.1799 85.266 98.6646 85.4413" fill="white"/>
<path d="M99.9968 111.238H88.8983C88.0311 111.238 87.3281 111.941 87.3281 112.808C87.3281 113.676 88.0311 114.379 88.8983 114.379H99.9968C100.864 114.379 101.567 113.676 101.567 112.808C101.567 111.941 100.864 111.238 99.9968 111.238Z" fill="white"/>
<path d="M99.9968 128.546H88.8983C88.0311 128.546 87.3281 129.249 87.3281 130.117C87.3281 130.984 88.0311 131.687 88.8983 131.687H99.9968C100.864 131.687 101.567 130.984 101.567 130.117C101.567 129.249 100.864 128.546 99.9968 128.546Z" fill="white"/>
<path d="M50.0789 107.842C49.8259 107.594 49.5688 107.39 49.3086 107.229C49.3086 107.229 49.5929 107.503 50.0789 107.842Z" fill="white"/>
<path fill-rule="evenodd" clip-rule="evenodd" d="M89.3006 115.475H99.5861C100.08 115.475 100.482 115.874 100.483 116.368V126.556C100.482 127.05 100.082 127.45 99.5876 127.452H89.3021C88.8084 127.45 88.4088 127.05 88.408 126.556V123.444L81.6944 122.707L48.8789 123.459V119.458L66.451 119.859V114.123C64.3683 113.965 62.3139 113.544 60.3369 112.87C58.6793 112.302 56.9253 111.204 55.1931 110.12C53.4235 109.012 51.6767 107.919 50.0793 107.42C51.7953 107.813 56.0433 108.472 59.0642 106.389C60.7828 105.202 61.7658 104.221 62.5809 103.408C63.5996 102.391 64.3561 101.636 65.959 101.069C60.7758 100.628 56.9771 97.4349 55.4732 90.3648C54.0401 83.6305 53.0458 80.9807 50.2104 79.7729C54.3553 79.3708 60.4061 79.3296 67.3289 86.4232C72.5814 91.7965 77.962 91.6624 82.235 87.6826C86.5079 83.7027 89.5054 81.7864 91.8341 84.3964C92.3451 84.9681 92.8864 85.5119 93.4558 86.0255C93.989 83.439 95.5635 81.81 97.1219 80.2148L97.1481 80.1879C97.9958 79.3199 98.8728 78.4218 99.5434 77.3809L100.1 77.7403C99.3829 78.8479 98.48 79.7773 97.5962 80.6773C95.9981 82.3137 94.4456 83.9133 94.0214 86.5175C94.6837 87.0876 95.3972 87.5954 96.1527 88.0346C95.406 87.9859 94.6563 88.0086 93.9139 88.1023C93.9286 89.4457 94.2011 91.0202 94.8389 92.935C94.6106 92.9586 94.394 92.9778 94.1687 92.9895C93.5574 91.1189 93.2908 89.5473 93.2628 88.1966C92.5481 88.3148 91.8463 88.5007 91.1668 88.7519C88.6378 89.7019 86.8777 91.8377 87.0824 97.3391C87.2886 102.74 85.2294 110.547 75.7865 113.21C74.5072 113.57 73.203 113.835 71.8847 114.002V119.996L81.6929 120.22L88.4066 119.483V116.368C88.4074 115.875 88.8074 115.475 89.3006 115.475ZM70.2679 114.16C69.5329 114.21 68.8038 114.232 68.0673 114.22V119.909L70.2679 119.959V114.16Z" fill="white"/>
<path d="M47.9162 122.811C47.9162 123.655 47.3271 124.338 46.6024 124.338H45.8114C45.0867 124.338 44.4961 123.655 44.4961 122.811V120.042C44.4961 119.198 45.0853 118.514 45.8114 118.514H46.6024C47.3271 118.514 47.9162 119.198 47.9162 120.042V122.811Z" fill="white"/>
<path fill-rule="evenodd" clip-rule="evenodd" d="M51.0004 12.9438H48V24.9807H50.0238V20.8962H51.0004C53.0419 20.8962 53.7886 19.8666 53.7886 18.1801V15.6423C53.7886 13.9558 53.0419 12.9438 51.0004 12.9438ZM50.0234 19.3349V14.595H50.7701C51.4624 14.595 51.7644 14.9147 51.7644 15.5716V18.3407C51.7644 18.9976 51.4624 19.3349 50.7701 19.3349H50.0234Z" fill="white"/>
<path d="M54.6758 12.9438H59.5055V14.595H56.6996V18.0387H58.7057V19.6722H56.6996V23.3295H59.5055V24.9807H54.6758V12.9438Z" fill="white"/>
<path fill-rule="evenodd" clip-rule="evenodd" d="M62.5618 12.9438L60.2891 24.9807H62.2068L62.5618 22.7713H64.7093L65.082 24.9807H67.1588L64.8699 12.9438H62.5618ZM64.4457 21.1626H62.8255L63.6297 16.3343H63.6474L64.4457 21.1626Z" fill="white"/>
<path d="M67.8281 21.8731V16.0535C67.8281 14.1711 68.7119 12.8042 70.8462 12.8042C73.0836 12.8042 73.7051 14.0474 73.7051 15.8222V17.2421H71.8595V15.6602C71.8595 14.9149 71.6121 14.4819 70.883 14.4819C70.1539 14.4819 69.8519 14.9974 69.8519 15.725V22.1868C69.8519 22.9144 70.1539 23.4299 70.883 23.4299C71.6121 23.4299 71.8595 22.9689 71.8595 22.2516V20.0451H73.7066V22.122C73.7066 23.8438 72.9967 25.1223 70.8476 25.1223C68.6986 25.1223 67.8281 23.7378 67.8281 21.8731Z" fill="white"/>
<path d="M74.8047 12.9438H79.6345V14.595H76.8359V18.0387H78.842V19.6722H76.8285V23.3295H79.6271V24.9807H74.8047V12.9438Z" fill="white"/>
<path d="M82.8854 23.2045L81.8544 25.9206H80.7188L80.9677 23.0454H82.8825L82.8854 23.2045Z" fill="white"/>
<path d="M91.4616 12.9438V22.2395C91.4616 23.9805 90.6971 25.1162 88.6733 25.1162C86.5788 25.1162 86.0117 23.9629 86.0117 22.4354V20.0449H87.9265V22.4767C87.9265 23.0806 88.1401 23.4355 88.6718 23.4355C89.2036 23.4355 89.4363 23.0806 89.4363 22.459V12.9438H91.4616Z" fill="white"/>
<path d="M98.5606 12.9438V22.051C98.5606 23.9143 97.7608 25.1221 95.7016 25.1221C93.5718 25.1221 92.6836 23.9143 92.6836 22.051V12.9438H94.7074V22.2395C94.7074 22.951 94.9917 23.4297 95.7016 23.4297C96.4116 23.4297 96.6973 22.9568 96.6973 22.2395V12.9438H98.5606Z" fill="white"/>
<path d="M99.6953 22.3867V20.7665H101.578V22.4176C101.578 23.0922 101.88 23.4826 102.572 23.4826C103.211 23.4826 103.495 23.0569 103.495 22.4176V21.9566C103.495 21.2643 103.211 20.8372 102.59 20.2509L101.399 19.0623C100.246 17.9267 99.713 17.2329 99.713 15.8483V15.4403C99.713 13.9497 100.583 12.7891 102.554 12.7891C104.578 12.7891 105.376 13.7833 105.376 15.5228V16.4994H103.531V15.4639C103.531 14.7716 103.211 14.4329 102.572 14.4329C102.003 14.4329 101.613 14.7525 101.613 15.4271V15.676C101.613 16.3506 101.986 16.7409 102.572 17.3095L103.868 18.5865C104.968 19.706 105.502 20.3806 105.502 21.7121V22.3013C105.502 23.9509 104.618 25.1234 102.556 25.1234C100.494 25.1234 99.6953 23.9686 99.6953 22.3867Z" fill="white"/>
<path d="M106.418 12.9438H111.799V14.595H110.136V24.9807H108.094V14.595H106.418V12.9438Z" fill="white"/>
<path d="M112.836 12.9438H114.86V24.9807H112.836V12.9438Z" fill="white"/>
<path d="M116.121 21.8731V16.0535C116.121 14.1711 117.005 12.8042 119.139 12.8042C121.377 12.8042 121.998 14.0474 121.998 15.8222V17.2421H120.151V15.6602C120.151 14.9149 119.904 14.4819 119.175 14.4819C118.445 14.4819 118.143 14.9974 118.143 15.725V22.1868C118.143 22.9144 118.438 23.4299 119.175 23.4299C119.911 23.4299 120.151 22.9689 120.151 22.2516V20.0451H121.998V22.122C121.998 23.8438 121.288 25.1223 119.139 25.1223C116.99 25.1223 116.121 23.7378 116.121 21.8731Z" fill="white"/>
<path d="M123.184 12.9438H128.013V14.595H125.207V18.0387H127.214V19.6722H125.207V23.3295H128.013V24.9807H123.184V12.9438Z" fill="white"/>
<path fill-rule="evenodd" clip-rule="evenodd" d="M50.0188 30.5967L47.7461 42.6335H49.6639L50.0188 40.4329H52.1664L52.539 42.6335H54.6159L52.3269 30.5967H50.0188ZM51.9075 38.8172H50.2873L51.0915 33.9889H51.1092L51.9075 38.8172Z" fill="white"/>
<path d="M57.3331 35.071V42.633H55.6289V30.5962H57.6174L59.8017 37.5028V30.5962H61.4897V42.633H59.7134L57.3331 35.071Z" fill="white"/>
<path fill-rule="evenodd" clip-rule="evenodd" d="M68.8785 39.4033V33.8283C68.8785 31.9606 68.1229 30.5967 65.9444 30.5967H62.8203V42.6335H65.9488C68.1155 42.6335 68.8785 41.2489 68.8785 39.4033ZM66.8546 39.7583C66.8546 40.486 66.535 40.9823 65.6998 40.9823H64.8485V32.2479H65.6998C66.535 32.2479 66.8546 32.7457 66.8546 33.4557V39.7583Z" fill="white"/>
<path d="M72.1445 40.0424V38.4222H74.0255V40.0733C74.0255 40.7479 74.3274 41.1383 75.0197 41.1383C75.659 41.1383 75.9432 40.7126 75.9432 40.0733V39.6197C75.9432 38.9274 75.659 38.5017 75.0374 37.9155L73.8487 36.7268C72.6939 35.5897 72.1622 34.8975 72.1622 33.5129V33.1049C72.1622 31.6128 73.0312 30.4536 75.002 30.4536C77.0258 30.4536 77.8256 31.4478 77.8256 33.1874V34.1698H75.9786V33.1226C75.9786 32.4303 75.659 32.0915 75.0197 32.0915C74.4526 32.0915 74.0608 32.4111 74.0608 33.0857V33.3347C74.0608 34.0093 74.4335 34.3996 75.0197 34.9667L76.3159 36.2452C77.4162 37.3646 77.9494 38.0392 77.9494 39.3707V39.9599C77.9494 41.6111 77.0656 42.7835 75.0035 42.7835C72.9414 42.7835 72.1445 41.6214 72.1445 40.0424Z" fill="white"/>
<path d="M78.6914 30.5962H84.0706V32.2547H82.4062V42.6404H80.3602V32.2547H78.6914V30.5962Z" fill="white"/>
<path fill-rule="evenodd" clip-rule="evenodd" d="M87.2113 42.6364V37.1159L89.1099 42.6335H91.2412L89.3014 37.166C90.4591 36.9023 90.9216 36.1364 90.9216 34.8402V33.2951C90.9216 31.6086 90.1748 30.5967 88.1333 30.5967H85.1875V42.6364H87.2113ZM87.2109 36.0009V32.2552L87.8855 32.2479C88.5837 32.2479 88.8782 32.5675 88.8782 33.2244V35.0081C88.8782 35.6459 88.5778 36.0009 87.8855 36.0009H87.2109Z" fill="white"/>
<path fill-rule="evenodd" clip-rule="evenodd" d="M92.1992 33.7039V39.5264C92.1992 41.3867 93.1065 42.7757 95.2541 42.7757C97.4016 42.7757 98.3252 41.3911 98.3252 39.5264V33.7039C98.3252 31.8215 97.3854 30.4546 95.2541 30.4546C93.1227 30.4546 92.1992 31.8215 92.1992 33.7039ZM96.3008 33.3843V39.846C96.3008 40.5737 95.9665 41.0892 95.2536 41.0892C94.5407 41.0892 94.2226 40.5737 94.2226 39.846V33.3843C94.2226 32.6567 94.526 32.1411 95.2536 32.1411C95.9812 32.1411 96.3008 32.6567 96.3008 33.3843Z" fill="white"/>
<path d="M101.364 35.071V42.633H99.6602V30.5962H101.649L103.831 37.5028V30.5962H105.518V42.633H103.75L101.364 35.071Z" fill="white"/>
<path d="M109.901 36.2064H112.778V42.6328H111.321V41.3189C111.056 42.2248 110.487 42.7757 109.387 42.7757C107.647 42.7757 106.848 41.3911 106.848 39.5264V33.7039C106.848 31.8215 107.754 30.4546 109.883 30.4546C112.121 30.4546 112.778 31.6977 112.778 33.4726V34.5376H110.931V33.3136C110.931 32.5668 110.646 32.1352 109.919 32.1352C109.191 32.1352 108.871 32.6507 108.871 33.3784V39.8401C108.871 40.5677 109.173 41.0833 109.866 41.0833C110.523 41.0833 110.86 40.7106 110.86 39.9285V37.8045H109.901V36.2064Z" fill="white"/>
<path d="M48.0898 48.4429H50.1137V60.4797H48.0898V48.4429Z" fill="white"/>
<path d="M53.1612 52.9162V60.4797H51.457V48.4429H53.4455L55.6284 55.348V48.4429H57.3164V60.4797H55.54L53.1612 52.9162Z" fill="white"/>
<path d="M58.5469 57.8838V56.2635H60.4293V57.9147C60.4293 58.5893 60.7312 58.9796 61.4235 58.9796C62.0628 58.9796 62.3456 58.5539 62.3456 57.9147V57.4537C62.3456 56.7614 62.0628 56.3342 61.4412 55.7495L60.2511 54.5594C59.0978 53.4237 58.5646 52.7314 58.5646 51.3454V50.9374C58.5646 49.4468 59.4351 48.2861 61.4058 48.2861C63.4297 48.2861 64.228 49.2804 64.228 51.0199V51.9965H62.3765V50.961C62.3765 50.2687 62.0569 49.9299 61.4176 49.9299C60.8491 49.9299 60.4587 50.2496 60.4587 50.9242V51.1731C60.4587 51.8477 60.8314 52.238 61.4176 52.8066L62.7138 54.0851C63.8141 55.203 64.3458 55.8776 64.3458 57.2092V57.7983C64.3458 59.4495 63.4621 60.6205 61.3999 60.6205C59.3378 60.6205 58.5469 59.4672 58.5469 57.8838Z" fill="white"/>
<path d="M65.0938 48.4429H70.4758V50.094H68.8041V60.4797H66.7626V50.094H65.0938V48.4429Z" fill="white"/>
<path d="M71.5898 48.4429H73.6137V60.4797H71.5898V48.4429Z" fill="white"/>
<path d="M74.7305 48.4429H80.1096V50.094H78.4408V60.4797H76.3993V50.094H74.7305V48.4429Z" fill="white"/>
<path d="M87.1099 48.4429V57.55C87.1099 59.4133 86.3116 60.6211 84.2524 60.6211C82.1211 60.6211 81.2344 59.4133 81.2344 57.55V48.4429H83.2582V57.7444C83.2582 58.4559 83.5425 58.9346 84.2524 58.9346C84.9624 58.9346 85.2466 58.4559 85.2466 57.7444V48.4429H87.1099Z" fill="white"/>
<path d="M88.2109 48.4429H93.5901V50.094H91.9213V60.4797H89.8798V50.094H88.2109V48.4429Z" fill="white"/>
<path d="M94.707 48.4429H96.7308V60.4797H94.707V48.4429Z" fill="white"/>
<path fill-rule="evenodd" clip-rule="evenodd" d="M98.0781 51.5506V57.3716C98.0781 59.2363 98.9869 60.6224 101.134 60.6224C103.282 60.6224 104.206 59.2378 104.206 57.3731V51.5506C104.206 49.6667 103.261 48.3013 101.132 48.3013C99.0017 48.3013 98.0781 49.6682 98.0781 51.5506ZM102.18 51.2298V57.6915C102.18 58.4192 101.844 58.9347 101.133 58.9347C100.421 58.9347 100.101 58.4192 100.101 57.6915V51.2298C100.101 50.5021 100.405 49.9866 101.133 49.9866C101.86 49.9866 102.18 50.5021 102.18 51.2298Z" fill="white"/>
<path d="M107.242 52.9162V60.4797H105.535V48.4429H107.524L109.708 55.348V48.4429H111.397V60.4797H109.621L107.242 52.9162Z" fill="white"/>
<path d="M112.621 57.8838V56.2635H114.504V57.9147C114.504 58.5893 114.805 58.9796 115.498 58.9796C116.137 58.9796 116.421 58.5539 116.421 57.9147V57.4537C116.421 56.7614 116.137 56.3342 115.515 55.7495L114.325 54.5594C113.172 53.4237 112.639 52.7314 112.639 51.3454V50.9374C112.639 49.4468 113.509 48.2861 115.48 48.2861C117.504 48.2861 118.302 49.2804 118.302 51.0199V51.9965H116.457V50.961C116.457 50.2687 116.137 49.9299 115.498 49.9299C114.929 49.9299 114.539 50.2496 114.539 50.9242V51.1731C114.539 51.8477 114.912 52.238 115.498 52.8066L116.794 54.0851C117.894 55.203 118.427 55.8776 118.427 57.2092V57.7983C118.427 59.4495 117.544 60.6205 115.482 60.6205C113.419 60.6205 112.621 59.4672 112.621 57.8838Z" fill="white"/>
</svg>
