<svg width="149" height="148" viewBox="0 0 149 148" fill="none" xmlns="http://www.w3.org/2000/svg">
<rect x="0.957031" y="-0.000244141" width="147.293" height="147.293" fill="#C5192D"/>
<path fill-rule="evenodd" clip-rule="evenodd" d="M45.3222 25.1869V24.3694C43.7079 24.0851 43.0156 22.8935 43.0156 21.2601V15.4331C43.0156 13.5507 43.9244 12.1838 46.0705 12.1838C48.2165 12.1838 49.1401 13.5522 49.1401 15.4331V21.2601C49.1401 22.5754 48.679 23.605 47.648 24.1013L49.1401 24.3871V25.8983L45.3222 25.1869ZM46.07 13.8734C45.3571 13.8734 45.039 14.3874 45.039 15.1151V21.6873C45.039 22.3972 45.3424 22.9319 46.07 22.9319C46.7977 22.9319 47.1158 22.3972 47.1158 21.6873V15.1151C47.1158 14.3874 46.7829 13.8734 46.07 13.8734Z" fill="white"/>
<path d="M53.4922 24.5123C55.5543 24.5123 56.3526 23.303 56.3526 21.4382V12.3252H54.4864V21.6341C54.4864 22.3441 54.2021 22.8243 53.4922 22.8243C52.7822 22.8243 52.4979 22.3441 52.4979 21.6341V12.3252H50.4727V21.4382C50.4727 23.303 51.3564 24.5123 53.4922 24.5123Z" fill="white"/>
<path fill-rule="evenodd" clip-rule="evenodd" d="M61.493 22.1659H59.3514L58.989 24.3694H57.0742L59.3514 12.3252H61.6595L63.9455 24.3753H61.8671L61.493 22.1659ZM60.4374 15.7189H60.4167L59.6155 20.5501H61.2357L60.4374 15.7189Z" fill="white"/>
<path d="M69.4028 22.7167H66.9901V12.3252H64.9648V24.3694H69.4028V22.7167Z" fill="white"/>
<rect x="70.3398" y="12.3252" width="2.02378" height="12.0427" fill="white"/>
<path d="M74.9877 24.3694H77.0277V13.9778H78.698V12.3252H73.3203V13.9778H74.9877V24.3694Z" fill="white"/>
<path d="M81.5715 24.3694H83.5967V19.7856L85.8326 12.3252H83.8972L82.6717 16.8913H82.6541L81.4301 12.3252H79.3164L81.5715 19.7856V24.3694Z" fill="white"/>
<path d="M47.84 40.3774H45.0355V36.7157H47.0402V35.0837H45.0355V31.637H47.84V29.9844H43.0117V42.0271H47.84V40.3774Z" fill="white"/>
<path fill-rule="evenodd" clip-rule="evenodd" d="M55.1373 33.2173V38.7938L55.1417 38.7805C55.1417 40.6349 54.3802 42.021 52.2135 42.021H49.082V29.9768H52.2091C54.3758 29.9768 55.1373 31.3525 55.1373 33.2173ZM51.1102 31.6355V40.3626L51.963 40.3759C52.7967 40.3759 53.1148 39.878 53.1148 39.1504V32.8433C53.1148 32.1333 52.7967 31.6355 51.963 31.6355H51.1102Z" fill="white"/>
<path d="M56.4688 29.9844V39.0974C56.4688 40.9636 57.3525 42.17 59.4868 42.17C61.5489 42.17 62.3458 40.9636 62.3458 39.0974V29.9844H60.4825V39.2919C60.4825 40.0033 60.1967 40.482 59.4868 40.482C58.7768 40.482 58.4926 40.0033 58.4926 39.2919V29.9844H56.4688Z" fill="white"/>
<path d="M63.6797 38.919C63.6797 40.7837 64.5635 42.1698 66.6992 42.1698C68.835 42.1698 69.5567 40.8913 69.5567 39.1665V37.0896H67.7111V39.3093C67.7111 40.0208 67.4622 40.4877 66.7346 40.4877C66.0069 40.4877 65.7035 39.9736 65.7035 39.243V32.7739C65.7035 32.0448 65.9981 31.5293 66.7346 31.5293C67.471 31.5293 67.7111 31.955 67.7111 32.7076V34.2881H69.5567V32.8608C69.5567 31.0933 68.9351 29.8413 66.6992 29.8413C64.5679 29.8413 63.6797 31.2097 63.6797 33.0921V38.919Z" fill="white"/>
<path fill-rule="evenodd" clip-rule="evenodd" d="M74.6034 39.8233H72.45L72.0906 42.0327H70.1758L72.45 29.99H74.7581L77.0485 42.0327H74.9761L74.6034 39.8233ZM73.5326 33.3763H73.5149L72.7122 38.2075H74.3324L73.5326 33.3763Z" fill="white"/>
<path d="M76.793 31.637H78.4603V42.0271H80.5033V31.637H82.1707V29.9844H76.793V31.637Z" fill="white"/>
<rect x="83.293" y="29.9844" width="2.02529" height="12.0442" fill="white"/>
<path fill-rule="evenodd" clip-rule="evenodd" d="M92.7934 38.9178C92.7934 40.7854 91.8714 42.17 89.7253 42.17C87.5939 42.17 86.6719 40.7854 86.6719 38.9178V33.0923C86.6719 31.2099 87.5792 29.843 89.7253 29.843C91.8714 29.843 92.7934 31.2099 92.7934 33.0923V38.9178ZM89.7264 31.5309C89.015 31.5309 88.6954 32.045 88.6954 32.7726V39.2373C88.6954 39.9679 88.9988 40.482 89.7264 40.482C90.454 40.482 90.7737 39.9738 90.7737 39.2373V32.7726C90.7737 32.045 90.4378 31.5309 89.7264 31.5309Z" fill="white"/>
<path d="M95.8316 34.4592L98.2119 42.03H99.9883V29.9829H98.3003V36.8939L96.1159 29.9829H94.1289V42.03H95.8316V34.4592Z" fill="white"/>
<path fill-rule="evenodd" clip-rule="evenodd" d="M28.7614 42.0415H24.0318V37.2236H15.2266V34.1569L23.855 12.3428H28.7614V33.3262H30.7778V37.2236H28.7614V42.0415ZM24.0811 21.1009L19.6137 33.3263H24.1253V21.1009H24.0811Z" fill="white"/>
<path d="M65.5172 78.9769L39.1016 63.7231V113.066L65.5172 121.036V78.9769Z" fill="white"/>
<path d="M68.4219 79.077V121.054L95.0083 113.061V63.7246L68.4219 79.077Z" fill="white"/>
<path d="M115.75 62.4742C115.775 61.3416 115.185 60.2844 114.208 59.7109C113.231 59.1374 112.02 59.1374 111.043 59.7109C110.066 60.2844 109.476 61.3416 109.501 62.4742V65.8398H115.75V62.4742Z" fill="white"/>
<path d="M110.274 112.191H109.498L112.625 123.115L115.746 112.191H114.97H115.746V68.2905H114.97H114.193H113.371H111.816H111.049H110.274H109.496V112.191H110.274Z" fill="white"/>
<path d="M100.687 65.8426L97.8542 63.6052V114.405L68.503 123.889H67.145H66.8754H65.5188L36.2988 115.725V63.6052L33.4648 65.8426V117.712L65.3848 126.55H66.8754H67.145H68.6356L98.0854 117.199L100.687 116.433V65.8426Z" fill="white"/>
</svg>
