<svg width="149" height="148" viewBox="0 0 149 148" fill="none" xmlns="http://www.w3.org/2000/svg">
<rect x="0.957031" y="0.293457" width="147.293" height="147.293" fill="#DD1367"/>
<path fill-rule="evenodd" clip-rule="evenodd" d="M51.9574 24.8338L50.0264 19.2234L50.0309 24.8279H47.9688V12.6025H50.9706C53.0459 12.6025 53.8045 13.6306 53.8045 15.3451V16.9197C53.8045 18.2306 53.3346 19.0083 52.1637 19.2764L54.1285 24.8338H51.9574ZM50.7106 14.2801H50.0257V18.095H50.7106C51.4161 18.095 51.7225 17.7326 51.7225 17.0846V15.2743C51.7225 14.6041 51.4161 14.2801 50.7106 14.2801Z" fill="white"/>
<path d="M60.003 23.1564H57.1514V19.4416H59.19V17.7801H57.1514V14.2805H60.003V12.6028H55.0938V24.834H60.003V23.1564Z" fill="white"/>
<path fill-rule="evenodd" clip-rule="evenodd" d="M61.2891 12.6028H64.4618C66.6623 12.6028 67.4386 13.9918 67.4386 15.8874V21.545C67.4386 23.4215 66.6623 24.8281 64.4618 24.8281H61.2891V12.6028ZM64.2056 23.1562C65.0614 23.1562 65.3839 22.6481 65.3839 21.9116V15.5117C65.3839 14.79 65.0555 14.2862 64.2056 14.2862H63.341V23.1562H64.2056Z" fill="white"/>
<path d="M70.8512 12.6028H68.7891V21.8572C68.7891 23.7514 69.6905 24.9769 71.8557 24.9769C73.9487 24.9769 74.7603 23.7514 74.7603 21.8572V12.6028H72.8691V22.0561C72.8691 22.7763 72.5819 23.2654 71.8601 23.2654C71.1384 23.2654 70.8512 22.7763 70.8512 22.0561V12.6028Z" fill="white"/>
<path d="M76.1133 15.7593V21.6746C76.1133 23.5688 77.0162 24.9755 79.1785 24.9755C81.3407 24.9755 82.0816 23.6778 82.0816 21.928V19.8187H80.208V22.0738C80.208 22.7955 79.9547 23.2625 79.2168 23.2625C78.4788 23.2625 78.168 22.741 78.168 22.0016V15.4353C78.168 14.6988 78.4759 14.1715 79.2168 14.1715C79.9576 14.1715 80.208 14.6046 80.208 15.3631V16.9686H82.0816V15.5266C82.0816 13.7208 81.4527 12.46 79.1785 12.46C77.0162 12.46 76.1133 13.8489 76.1133 15.7608" fill="white"/>
<path d="M83.3867 24.8326H88.2931V23.1564H85.4444V19.4401H87.4815V17.7801H85.4444V14.2805H88.2931V12.6028H83.3867V24.8326Z" fill="white"/>
<path fill-rule="evenodd" clip-rule="evenodd" d="M89.5703 24.8279V12.6025H92.7459C94.9465 12.6025 95.7227 13.9915 95.7227 15.8872V21.5447C95.7227 23.4212 94.9465 24.8279 92.7459 24.8279H89.5703ZM93.6669 21.9115V15.5116C93.6669 14.7913 93.3355 14.2861 92.4885 14.2861H91.6224V23.1561H92.4885C93.3414 23.1561 93.6669 22.6479 93.6669 21.9115Z" fill="white"/>
<rect x="47.9688" y="30.1028" width="2.05621" height="12.2298" fill="white"/>
<path d="M57.3169 30.1013H55.6024V37.1198L53.3827 30.1013H51.3633V42.3325H53.094V34.6483L55.5111 42.3325H57.3169V30.1013Z" fill="white"/>
<path d="M63.3775 31.7805V30.1028H58.4727V42.3325H63.3775V40.6534H60.5289V36.9387H62.5659V35.2801H60.5289V31.7805H63.3775Z" fill="white"/>
<path fill-rule="evenodd" clip-rule="evenodd" d="M64.1367 33.2576C64.1367 31.3458 65.0764 29.9583 67.2402 29.9583C69.4231 29.9583 70.3613 31.3428 70.3613 33.2576V39.17C70.3613 40.5059 69.8915 41.5532 68.8457 42.0569L70.3613 42.3515V43.8878L66.4831 43.166V42.3368C64.8393 42.0451 64.1367 40.8388 64.1367 39.1788V33.2576ZM67.2411 40.8711C67.9805 40.8711 68.3045 40.3306 68.3045 39.6103V32.935C68.3045 32.1941 67.9614 31.6712 67.2411 31.6712C66.5208 31.6712 66.1938 32.1985 66.1938 32.935V39.6103C66.1938 40.3306 66.5017 40.8711 67.2411 40.8711Z" fill="white"/>
<path d="M71.5117 30.1028V39.3572C71.5117 41.2514 72.4146 42.4769 74.5798 42.4769C76.6729 42.4769 77.4845 41.2514 77.4845 39.3572V30.1028H75.5903V39.5546C75.5903 40.2763 75.2957 40.7639 74.5798 40.7639C73.864 40.7639 73.5694 40.2763 73.5694 39.5546V30.1028H71.5117Z" fill="white"/>
<path fill-rule="evenodd" clip-rule="evenodd" d="M78.1445 42.3281L80.4526 30.1028H82.799L85.1248 42.3281H83.0155L82.637 40.0893H80.4526L80.0932 42.3281H78.1445ZM81.5357 33.5481L80.7241 38.4559H82.3649L81.5533 33.5481H81.5357Z" fill="white"/>
<path d="M85.957 30.1028V42.3311H90.4671V40.6549H88.0132V30.1028H85.957Z" fill="white"/>
<rect x="91.3906" y="30.1028" width="2.05621" height="12.2298" fill="white"/>
<path d="M98.1589 42.3325V31.7805H99.8528V30.1028H94.3867V31.7805H96.0835V42.3325H98.1589Z" fill="white"/>
<rect x="100.789" y="30.1028" width="2.05621" height="12.2312" fill="white"/>
<path d="M108.927 40.6549H106.077V36.9387H108.116V35.2801H106.077V31.7805H108.927V30.1028H104.02V42.3311H108.927V40.6549Z" fill="white"/>
<path d="M109.734 38.0579V39.6987C109.734 41.3057 110.546 42.4767 112.639 42.4767C114.732 42.4767 115.633 41.2851 115.633 39.6074V39.0183C115.633 37.6676 115.091 36.9812 113.975 35.8441L112.657 34.545C112.068 33.9661 111.683 33.5714 111.683 32.8864V32.6331C111.683 31.9467 112.079 31.6241 112.657 31.6241C113.308 31.6241 113.63 31.9644 113.63 32.6684V33.729H115.508V32.7347C115.508 30.9672 114.697 29.9583 112.639 29.9583C110.637 29.9583 109.754 31.1366 109.754 32.6449V33.0602C109.754 34.4669 110.293 35.171 111.468 36.3243L112.674 37.535C113.308 38.1242 113.595 38.5661 113.595 39.2672V39.7356C113.595 40.3851 113.3 40.8182 112.657 40.8182C111.954 40.8182 111.646 40.422 111.646 39.7356V38.0579H109.734Z" fill="white"/>
<path d="M15.1697 19.5932V42.3486H20.1673V12.6204H16.1771L11.5742 18.0142V23.2328H11.6169L15.124 19.5932H15.1697Z" fill="white"/>
<path fill-rule="evenodd" clip-rule="evenodd" d="M38.4039 20.2931V34.6763C38.4039 39.2792 36.0811 42.6994 30.9936 42.6994C25.9547 42.6994 23.6289 39.2792 23.6289 34.6763V20.2931C23.6289 15.646 25.9517 12.27 30.9936 12.27C36.0811 12.27 38.4039 15.646 38.4039 20.2931ZM28.625 19.505V35.4657C28.625 37.2642 29.2819 38.5339 30.9935 38.5339C32.7477 38.5339 33.4047 37.2642 33.4047 35.4657V19.505C33.4047 17.7066 32.7477 16.4354 30.9935 16.4354C29.2819 16.4354 28.625 17.7066 28.625 19.505Z" fill="white"/>
<path d="M88.1954 97.1465H61.0021C60.8302 97.1575 60.6991 97.3044 60.7075 97.4764V105.65C60.6983 105.822 60.8296 105.97 61.0021 105.981H88.1954C88.3678 105.97 88.4992 105.822 88.49 105.65V97.4764C88.4984 97.3044 88.3672 97.1575 88.1954 97.1465Z" fill="white"/>
<path d="M88.1955 79.7556H61.0022C60.8303 79.7667 60.6992 79.9136 60.7076 80.0856V88.2589C60.6975 88.4317 60.8293 88.58 61.0022 88.5903H88.1955C88.3683 88.58 88.5001 88.4317 88.4901 88.2589V80.0856C88.4985 79.9136 88.3673 79.7667 88.1955 79.7556Z" fill="white"/>
<path d="M87.8183 67.4022L74.7652 54.3505C74.6769 54.2637 74.5353 54.2637 74.447 54.3505L61.3939 67.4022C61.3296 67.4666 61.3105 67.5634 61.3453 67.6474C61.38 67.7315 61.462 67.7864 61.5529 67.7866H87.6592C87.7502 67.7864 87.8321 67.7315 87.8669 67.6474C87.9017 67.5634 87.8825 67.4666 87.8183 67.4022Z" fill="white"/>
<path d="M100.068 106.082L113.121 93.0284C113.164 92.9861 113.188 92.9285 113.188 92.8685C113.188 92.8086 113.164 92.751 113.121 92.7087L100.068 79.6556C100.004 79.5914 99.9069 79.5722 99.8228 79.607C99.7387 79.6418 99.6838 79.7237 99.6836 79.8147V105.922C99.6838 106.013 99.7387 106.095 99.8228 106.13C99.9069 106.165 100.004 106.146 100.068 106.082Z" fill="white"/>
<path d="M61.3922 118.336L74.4454 131.385C74.4874 131.427 74.5447 131.451 74.6044 131.451C74.6642 131.451 74.7215 131.427 74.7635 131.385L87.8167 118.332C87.8819 118.267 87.9018 118.17 87.8669 118.085C87.832 118.001 87.7492 117.945 87.6576 117.946H61.5513C61.4577 117.944 61.3723 117.999 61.337 118.086C61.3016 118.173 61.3236 118.272 61.3922 118.336Z" fill="white"/>
<path d="M49.1352 79.6556L36.0821 92.7087C36.0395 92.751 36.0156 92.8086 36.0156 92.8685C36.0156 92.9285 36.0395 92.9861 36.0821 93.0284L49.1352 106.082C49.1997 106.146 49.2964 106.165 49.3805 106.13C49.4645 106.095 49.5194 106.013 49.5197 105.922V79.8147C49.5194 79.7237 49.4645 79.6418 49.3805 79.607C49.2964 79.5722 49.1997 79.5914 49.1352 79.6556Z" fill="white"/>
</svg>
