<svg width="148" height="148" viewBox="0 0 148 148" fill="none" xmlns="http://www.w3.org/2000/svg">
<rect x="0.234375" y="0.293945" width="147.293" height="147.293" fill="#BF8B2E"/>
<path d="M14.935 19.6454H14.9807V42.3801H19.9739V12.6799H15.9837L11.3867 18.0694V23.2806H11.4294L14.935 19.6454Z" fill="white"/>
<path d="M22.9541 18.8146V22.4042H27.5084V18.6806C27.5084 16.8866 28.3921 16.3607 29.4365 16.3607C30.4012 16.3607 31.232 16.754 31.232 18.5952V21.0461C31.232 23.5015 31.014 24.4633 29.3908 26.1719L26.5922 29.1517C23.8776 32.043 22.8672 33.9696 22.8672 36.9052V42.3815H35.829V38.3059H27.6395V36.9052C27.6395 34.5824 28.4717 33.7074 29.7413 32.3494L32.9347 28.9764C35.5197 26.2176 36.0897 24.4633 36.0897 21.4851V18.5952C36.0897 14.3443 34.0276 12.3308 29.5617 12.3308C25.1812 12.3308 22.9482 14.6521 22.9482 18.8117" fill="white"/>
<path d="M114.909 79.1958C108.903 74.4515 101.7 73.9404 98.8825 73.9404C97.3963 73.9404 96.0206 74.073 95.0131 74.3131L94.6184 74.4044C90.8138 75.3029 84.4463 76.8068 77.0331 86.0067L76.8151 86.2762C76.6968 86.438 76.6319 86.6326 76.6295 86.833C76.6301 87.0041 76.6753 87.1722 76.7606 87.3205L76.9285 87.596C78.152 89.6433 79.1683 91.4212 79.9775 92.9294C80.1231 93.2124 80.3971 93.407 80.7123 93.4512C81.0274 93.4955 81.3444 93.3838 81.5623 93.1519C81.6139 93.0841 81.6669 93.0119 81.7096 92.9574C88.1051 84.1036 93.1219 82.9253 96.4419 82.1402L96.8587 82.0415C97.5283 81.913 98.2096 81.8552 98.8913 81.8692C100.435 81.8692 105.801 82.1255 109.987 85.4308C113.712 88.3766 115.6 93.0664 115.6 99.3868C115.6 109.98 110.476 114.116 106.174 115.713C104.491 116.333 102.711 116.647 100.918 116.638C98.1887 116.624 95.4957 116.011 93.0291 114.842L92.7212 114.695C89.0227 113.089 83.5007 109.741 78.2792 99.2571C67.5769 77.7524 58.5861 75.7227 52.6325 74.3749L52.3203 74.3057C51.8636 74.2011 50.5763 73.9611 48.4906 73.9611C45.044 73.9611 38.4129 74.6386 32.7303 79.1752C28.8506 82.2684 24.2227 88.2823 24.2227 99.3544C24.2227 106.096 25.6116 110.549 29.1717 115.231C29.8404 116.144 36.0429 124.154 47.9515 124.154C49.777 124.148 51.5978 123.969 53.3896 123.621C55.5636 123.206 58.919 122.13 62.6691 119.382L65.799 122.207C66.1731 122.522 66.7269 122.497 67.0702 122.148C67.2204 121.989 67.3014 121.777 67.2955 121.559L69.717 106.641V106.467C69.7149 106.218 69.6079 105.982 69.4224 105.816C69.2523 105.659 69.0266 105.575 68.795 105.585L54.2631 109.585L53.9861 109.631C53.8078 109.668 53.6461 109.761 53.5251 109.898C53.3626 110.074 53.2776 110.309 53.2892 110.549C53.3009 110.789 53.4081 111.014 53.587 111.175L56.5962 113.897C55.0142 114.867 53.4323 115.517 51.8946 115.811C50.6249 116.058 49.3348 116.184 48.0414 116.188C39.8121 116.188 35.7631 110.787 35.5966 110.559L35.5156 110.447C33.0116 107.158 32.1662 104.358 32.1662 99.3499C32.1662 93.0075 34.0221 88.303 37.6823 85.3866C41.7549 82.1373 46.9956 81.8839 48.5068 81.8839C49.1983 81.8715 49.8892 81.9292 50.5689 82.0563L50.89 82.1284C55.6417 83.2052 62.1491 84.6781 71.1723 102.801C75.9372 112.375 81.9129 118.626 89.4234 121.926C90.2968 122.367 94.9557 124.593 100.927 124.593C103.666 124.602 106.385 124.119 108.954 123.169C113.341 121.532 123.548 115.937 123.548 99.3927C123.544 88.3339 118.848 82.3067 114.909 79.1958Z" fill="white"/>
<path fill-rule="evenodd" clip-rule="evenodd" d="M49.2621 24.6547V19.1327L51.1622 24.6577H53.2832L51.3477 19.1887C52.5055 18.925 52.968 18.1591 52.968 16.8629V15.3178C52.968 13.6269 52.2315 12.615 50.1841 12.615H47.2383V24.6547H49.2621ZM49.2616 18.0134V14.2722L49.9362 14.2751C50.63 14.2751 50.9319 14.5947 50.9319 15.2517V17.0192C50.9319 17.6584 50.63 18.0134 49.9362 18.0134H49.2616Z" fill="white"/>
<path d="M54.0586 12.615H58.8883V14.2676H56.0898V17.7113H58.0959V19.3463H56.0839V23.0036H58.8824V24.6547H54.0586V12.615Z" fill="white"/>
<path d="M59.8438 22.0622V20.442H61.7262V22.0931C61.7262 22.7677 62.0207 23.1595 62.7204 23.1595C63.3596 23.1595 63.6439 22.7324 63.6439 22.0931V21.6365C63.6439 20.9442 63.3596 20.5171 62.7381 19.9309L61.5494 18.7422C60.3946 17.6051 59.8614 16.9128 59.8614 15.5268V15.1188C59.8614 13.6267 60.7319 12.4675 62.7027 12.4675C64.728 12.4675 65.5263 13.4618 65.5263 15.2013V16.1793H63.6793V15.1306C63.6793 14.4383 63.3596 14.0995 62.7204 14.0995C62.1533 14.0995 61.7615 14.4192 61.7615 15.0938V15.3427C61.7615 16.0173 62.1342 16.4076 62.7204 16.9762L64.0136 18.2635C65.1154 19.3829 65.6486 20.0575 65.6486 21.3891V21.9782C65.6486 23.6294 64.7648 24.8018 62.7027 24.8018C60.6406 24.8018 59.8438 23.6426 59.8438 22.0622Z" fill="white"/>
<path fill-rule="evenodd" clip-rule="evenodd" d="M69.6683 12.615H66.668V24.6547H68.6918V20.5703H69.6683C71.7098 20.5703 72.4566 19.5407 72.4566 17.8542V15.3149C72.4566 13.6269 71.7098 12.615 69.6683 12.615ZM68.6913 19.0076V14.2677H69.4366C70.1289 14.2677 70.4309 14.5873 70.4309 15.2442V18.0133C70.4309 18.6703 70.1289 19.0076 69.4366 19.0076H68.6913Z" fill="white"/>
<path fill-rule="evenodd" clip-rule="evenodd" d="M73.4844 15.7229V21.5469C73.4844 23.419 74.3888 24.7976 76.5378 24.7976C78.6868 24.7976 79.6103 23.4116 79.6103 21.5469V15.7229C79.6103 13.8405 78.6676 12.4736 76.5378 12.4736C74.4079 12.4736 73.4844 13.8405 73.4844 15.7229ZM77.5875 15.4033V21.8665C77.5875 22.5956 77.2502 23.1097 76.5388 23.1097C75.8274 23.1097 75.5077 22.5956 75.5077 21.8665V15.4033C75.5077 14.6757 75.8097 14.1602 76.5388 14.1602C77.2679 14.1602 77.5875 14.6757 77.5875 15.4033Z" fill="white"/>
<path d="M82.4503 17.0853V24.6503H80.7461V12.615H82.7346L84.9189 19.523V12.615H86.6054V24.6547H84.8291L82.4503 17.0853Z" fill="white"/>
<path d="M87.6523 22.0622V20.442H89.5347V22.0931C89.5347 22.7677 89.8293 23.1595 90.529 23.1595C91.1682 23.1595 91.4525 22.7324 91.4525 22.0931V21.6365C91.4525 20.9442 91.1682 20.5171 90.5467 19.9309L89.3565 18.7422C88.2032 17.6051 87.67 16.9128 87.67 15.5268V15.1188C87.67 13.6267 88.5405 12.4675 90.5113 12.4675C92.5351 12.4675 93.3349 13.4618 93.3349 15.2013V16.1793H91.4879V15.1306C91.4879 14.4383 91.1682 14.0995 90.529 14.0995C89.9604 14.0995 89.5701 14.4192 89.5701 15.0938V15.3427C89.5701 16.0173 89.9427 16.4076 90.529 16.9762L91.8252 18.2547C92.9269 19.3741 93.4586 20.0487 93.4586 21.3802V21.9694C93.4586 23.6206 92.5749 24.793 90.5128 24.793C88.4507 24.793 87.6523 23.6426 87.6523 22.0622Z" fill="white"/>
<path d="M94.4727 12.615H96.4979V24.6547H94.4727V12.615Z" fill="white"/>
<path fill-rule="evenodd" clip-rule="evenodd" d="M97.6523 12.615H100.583C102.607 12.615 103.282 13.5562 103.282 15.2663V16.4917C103.282 17.5036 102.909 18.1429 102.074 18.4065C103.086 18.6363 103.584 19.3109 103.584 20.4127V22.0108C103.584 23.715 102.821 24.6621 100.796 24.6621H97.6523V12.615ZM99.6757 17.6937H100.386C101.043 17.6937 101.345 17.3564 101.345 16.7171V15.2442C101.345 14.5873 101.05 14.2677 100.368 14.2677H99.6757V17.6937ZM99.6757 23.0037V19.2389H100.542C101.261 19.2389 101.555 19.5762 101.555 20.2154V22.0271C101.555 22.6664 101.236 23.0037 100.559 23.0037H99.6757Z" fill="white"/>
<path d="M104.574 12.615H106.598V23.0036H109.014V24.6547H104.574V12.615Z" fill="white"/>
<path d="M109.922 12.615H114.752V14.2676H111.946V17.7113H113.949V19.3463H111.946V23.0036H114.752V24.6547H109.922V12.615Z" fill="white"/>
<path d="M47.2383 39.2248V33.4009C47.2383 31.5185 48.122 30.1516 50.2563 30.1516C52.4937 30.1516 53.1153 31.3948 53.1153 33.1696V34.591H51.2697V33.0106C51.2697 32.2638 51.0208 31.8322 50.2917 31.8322C49.5626 31.8322 49.2606 32.3477 49.2606 33.0754V39.5386C49.2606 40.2662 49.5626 40.7817 50.2917 40.7817C51.0208 40.7817 51.2697 40.3207 51.2697 39.6034V37.3955H53.1153V39.4738C53.1153 41.1956 52.4053 42.4741 50.2563 42.4741C48.1073 42.4741 47.2383 41.094 47.2383 39.2248Z" fill="white"/>
<path fill-rule="evenodd" clip-rule="evenodd" d="M54.3906 33.4009V39.2248C54.3906 41.094 55.2965 42.4741 57.4455 42.4741C59.5945 42.4741 60.518 41.0896 60.518 39.2248V33.4009C60.518 31.5185 59.5768 30.1516 57.4455 30.1516C55.3142 30.1516 54.3906 31.5185 54.3906 33.4009ZM58.4921 33.0814V39.5446C58.4921 40.2722 58.1563 40.7877 57.4448 40.7877C56.7334 40.7877 56.4138 40.2722 56.4138 39.5446V33.0814C56.4138 32.3538 56.7172 31.8382 57.4448 31.8382C58.1725 31.8382 58.4921 32.3538 58.4921 33.0814Z" fill="white"/>
<path d="M63.5533 34.7677V42.3327H61.8477V30.293H63.8376L66.0219 37.201V30.293H67.7084V42.3327H65.9262L63.5533 34.7677Z" fill="white"/>
<path d="M68.9336 39.7402V38.1199H70.816V39.7711C70.816 40.4457 71.1106 40.836 71.8102 40.836C72.4495 40.836 72.7337 40.4103 72.7337 39.7711V39.3086C72.7337 38.6163 72.4495 38.1906 71.8279 37.6044L70.6392 36.4187C69.4845 35.2831 68.9527 34.5908 68.9527 33.2048V32.7968C68.9527 31.3047 69.8218 30.1455 71.794 30.1455C73.8178 30.1455 74.6176 31.1397 74.6176 32.8793V33.8558H72.7691V32.8086C72.7691 32.1163 72.4495 31.7775 71.8102 31.7775C71.2417 31.7775 70.8513 32.0971 70.8513 32.7717V33.0207C70.8513 33.6953 71.224 34.0856 71.8102 34.6541L73.1064 35.9326C74.2067 37.0506 74.7399 37.7252 74.7399 39.0582V39.6474C74.7399 41.2985 73.8561 42.4695 71.794 42.4695C69.7319 42.4695 68.9336 41.3206 68.9336 39.7402Z" fill="white"/>
<path d="M81.8653 30.293V39.403C81.8653 41.2677 81.0669 42.4741 79.0063 42.4741C76.875 42.4741 75.9883 41.2677 75.9883 39.403V30.293H78.0091V39.5975C78.0091 40.3089 78.2934 40.7876 79.0034 40.7876C79.7133 40.7876 79.9976 40.3089 79.9976 39.5975V30.293H81.8653Z" fill="white"/>
<path d="M88.7718 34.5188H88.7188L87.3504 42.3327H86.4034L84.901 34.5188H84.8641V42.3327H83.1953V30.293H85.552L86.8658 37.0758H86.8835L88.0619 30.293H90.6203V42.3327H88.7718V34.5188Z" fill="white"/>
<path fill-rule="evenodd" clip-rule="evenodd" d="M94.9452 30.293H91.9492V42.3327H93.973V38.2483H94.9452C96.9867 38.2483 97.7334 37.2187 97.7334 35.5322V32.9928C97.7334 31.3049 96.9867 30.293 94.9452 30.293ZM93.9726 36.6855V31.9441H94.7179C95.4175 31.9441 95.7121 32.2638 95.7121 32.9207V35.6913C95.7121 36.3482 95.4116 36.6855 94.7179 36.6855H93.9726Z" fill="white"/>
<path d="M98.3945 30.293H103.782V31.9441H102.105V42.3327H100.063V31.9441H98.3945V30.293Z" fill="white"/>
<path d="M104.73 30.293H106.754V42.3327H104.73V30.293Z" fill="white"/>
<path fill-rule="evenodd" clip-rule="evenodd" d="M107.93 33.4009V39.2248C107.93 41.094 108.836 42.4741 110.985 42.4741C113.134 42.4741 114.057 41.0896 114.057 39.2248V33.4009C114.057 31.5185 113.116 30.1516 110.985 30.1516C108.853 30.1516 107.93 31.5185 107.93 33.4009ZM112.031 33.0813V39.5445C112.031 40.2721 111.696 40.7877 110.984 40.7877C110.273 40.7877 109.953 40.2721 109.953 39.5445V33.0813C109.953 32.3537 110.256 31.8381 110.984 31.8381C111.712 31.8381 112.031 32.3537 112.031 33.0813Z" fill="white"/>
<path d="M116.932 34.7677V42.3327H115.227V30.293H117.215L119.395 37.201V30.293H121.083V42.3327H119.311L116.932 34.7677Z" fill="white"/>
<path fill-rule="evenodd" clip-rule="evenodd" d="M49.1907 47.9727L46.918 60.0124H48.8431L49.1907 57.8104H51.3471L51.7123 60.0124H53.7862L51.4944 47.9727H49.1907ZM51.0794 56.1946H49.4592L50.2619 51.3634H50.2796L51.0794 56.1946Z" fill="white"/>
<path d="M56.3839 52.4474V60.0124H54.6797V47.9727H56.6681L58.8525 54.8792V47.9727H60.5405V60.0124H58.7641L56.3839 52.4474Z" fill="white"/>
<path fill-rule="evenodd" clip-rule="evenodd" d="M67.8013 56.7793V51.2043C67.8013 49.3425 67.0383 47.9727 64.8716 47.9727H61.7461V60.0124H64.8716C67.0383 60.0124 67.8013 58.6264 67.8013 56.7793ZM65.7771 57.1343C65.7771 57.8634 65.4574 58.3598 64.6223 58.3598H63.7695V49.6238H64.6223C65.4574 49.6238 65.7771 50.1202 65.7771 50.8316V57.1343Z" fill="white"/>
<path fill-rule="evenodd" clip-rule="evenodd" d="M73.9261 47.9727H70.9258V60.0124H72.9496V55.9279H73.9261C75.9691 55.9279 76.7144 54.8969 76.7144 53.2104V50.6711C76.7144 48.9846 75.9691 47.9727 73.9261 47.9727ZM72.9491 54.3652V49.6238H73.6944C74.3882 49.6238 74.6901 49.9435 74.6901 50.6004V53.371C74.6901 54.0279 74.3882 54.3652 73.6944 54.3652H72.9491Z" fill="white"/>
<path fill-rule="evenodd" clip-rule="evenodd" d="M79.8378 60.0124V54.4889L81.7379 60.0124H83.8604L81.9249 54.5419C83.0841 54.2783 83.5452 53.5123 83.5452 52.2162V50.6711C83.5452 48.9846 82.7999 47.9727 80.7584 47.9727H77.8125V60.0124H79.8378ZM79.8359 53.3755V49.6283L80.5075 49.6357C81.2072 49.6357 81.5017 49.9553 81.5017 50.6123V52.3798C81.5017 53.0205 81.1998 53.3755 80.5075 53.3755H79.8359Z" fill="white"/>
<path fill-rule="evenodd" clip-rule="evenodd" d="M84.7031 51.0789V56.9043C84.7031 58.769 85.6075 60.1536 87.7565 60.1536C89.9055 60.1536 90.829 58.769 90.829 56.9043V51.0789C90.829 49.1965 89.8864 47.8296 87.7565 47.8296C85.6267 47.8296 84.7031 49.1965 84.7031 51.0789ZM88.8063 50.7593V57.224C88.8063 57.9516 88.469 58.4671 87.7575 58.4671C87.0461 58.4671 86.7265 57.9516 86.7265 57.224V50.7593C86.7265 50.0316 87.0284 49.5161 87.7575 49.5161C88.4866 49.5161 88.8063 50.0316 88.8063 50.7593Z" fill="white"/>
<path fill-rule="evenodd" clip-rule="evenodd" d="M98.0943 56.7793V51.2043C98.0943 49.3425 97.3298 47.9727 95.1646 47.9727H92.0391V60.0124H95.1646C97.3298 60.0124 98.0943 58.6264 98.0943 56.7793ZM96.0686 57.1343C96.0686 57.8634 95.7504 58.3598 94.9153 58.3598H94.0624V49.6238H94.9153C95.7504 49.6238 96.0686 50.1202 96.0686 50.8316V57.1343Z" fill="white"/>
<path d="M105.175 47.9727V57.0813C105.175 58.946 104.376 60.1538 102.316 60.1538C100.185 60.1538 99.2969 58.946 99.2969 57.0813V47.9727H101.322V57.2772C101.322 57.9871 101.606 58.4673 102.316 58.4673C103.026 58.4673 103.311 57.9871 103.311 57.2772V47.9727H105.175Z" fill="white"/>
<path d="M106.387 56.9043V51.0789C106.387 49.1965 107.27 47.8296 109.405 47.8296C111.642 47.8296 112.264 49.0727 112.264 50.8491V52.269H110.412V50.6885C110.412 49.9432 110.165 49.5102 109.436 49.5102C108.707 49.5102 108.405 50.0257 108.405 50.7534V57.218C108.405 57.9457 108.707 58.4612 109.436 58.4612C110.165 58.4612 110.412 57.9987 110.412 57.2829V55.0749H112.259V57.1488C112.259 58.8707 111.549 60.1492 109.4 60.1492C107.251 60.1492 106.387 58.769 106.387 56.9043Z" fill="white"/>
<path d="M113.188 47.9727H118.568V49.6238H116.893V60.0124H114.856V49.6238H113.188V47.9727Z" fill="white"/>
<path d="M119.527 47.9727H121.551V60.0124H119.527V47.9727Z" fill="white"/>
<path fill-rule="evenodd" clip-rule="evenodd" d="M122.723 51.0789V56.9043C122.723 58.769 123.627 60.1536 125.776 60.1536C127.925 60.1536 128.849 58.769 128.849 56.9043V51.0789C128.849 49.1965 127.907 47.8296 125.776 47.8296C123.645 47.8296 122.723 49.1965 122.723 51.0789ZM126.824 50.7593V57.224C126.824 57.9516 126.489 58.4671 125.777 58.4671C125.066 58.4671 124.746 57.9516 124.746 57.224V50.7593C124.746 50.0316 125.049 49.5161 125.777 49.5161C126.505 49.5161 126.824 50.0316 126.824 50.7593Z" fill="white"/>
<path d="M131.725 52.4474V60.0124H130.02V47.9727H132.009L134.194 54.8792V47.9727H135.88V60.0124H134.104L131.725 52.4474Z" fill="white"/>
</svg>
