<svg width="38" height="38" viewBox="0 0 38 38" fill="none" xmlns="http://www.w3.org/2000/svg">
<circle cx="19.3065" cy="19.0853" r="18.4276" fill="#00676D"/>
<path d="M18.4117 10.5472C18.7798 9.80871 19.8334 9.80871 20.2016 10.5472L22.1296 14.4147C22.2752 14.7067 22.5541 14.9094 22.8768 14.9576L27.1509 15.5961C27.9669 15.7181 28.2925 16.7201 27.704 17.2984L24.6215 20.3273C24.3888 20.556 24.2823 20.8838 24.3361 21.2056L25.0496 25.4678C25.1858 26.2817 24.3334 26.901 23.6015 26.5199L19.7684 24.5243C19.479 24.3736 19.1342 24.3736 18.8448 24.5243L15.0117 26.5199C14.2798 26.901 13.4274 26.2817 13.5636 25.4678L14.2771 21.2056C14.331 20.8838 14.2244 20.556 13.9917 20.3273L10.9092 17.2984C10.3207 16.7201 10.6463 15.7181 11.4623 15.5961L15.7364 14.9576C16.0591 14.9094 16.338 14.7067 16.4836 14.4147L18.4117 10.5472Z" fill="white"/>
</svg>
