<svg width="148" height="148" viewBox="0 0 148 148" fill="none" xmlns="http://www.w3.org/2000/svg">
<rect x="0.628906" y="0.293457" width="147.293" height="147.293" fill="#FD9D24"/>
<path d="M43.7154 24.8028C45.7775 24.8028 46.6612 23.6245 46.6612 21.9792V21.39C46.6612 20.0644 46.128 19.3839 45.0278 18.2645L43.7316 16.986C43.1424 16.4174 42.7742 16.0271 42.7742 15.3495V15.1036C42.7742 14.4275 43.1645 14.1078 43.7316 14.1078C44.3694 14.1078 44.6905 14.4452 44.6905 15.1389V16.1847H46.536V15.2096C46.536 13.4701 45.7392 12.4744 43.7139 12.4744C41.7417 12.4744 40.8726 13.6291 40.8726 15.1256V15.5366C40.8726 16.9197 41.4058 17.6134 42.5591 18.7491L43.7478 19.9421C44.3694 20.5313 44.6536 20.9526 44.6536 21.6449V22.1059C44.6536 22.7466 44.3694 23.1723 43.7316 23.1723C43.0393 23.1723 42.7374 22.782 42.7374 22.1059V20.4562H40.8594V22.0764C40.8594 23.6569 41.6562 24.8117 43.7154 24.8117" fill="white"/>
<path d="M53.4293 21.7307V12.6177H51.5645V21.9251C51.5645 22.6366 51.2802 23.1138 50.5688 23.1138C49.8574 23.1138 49.5761 22.6366 49.5761 21.9251V12.6177H47.5508V21.7307C47.5508 23.5954 48.4345 24.8033 50.5688 24.8033C52.6309 24.8033 53.4293 23.5954 53.4293 21.7307Z" fill="white"/>
<path d="M60.2658 21.9797V21.3905C60.2658 20.0649 59.7311 19.3844 58.6338 18.2649L57.3376 16.9864C56.7484 16.4194 56.3772 16.0276 56.3772 15.3544V15.1055C56.3772 14.4294 56.7705 14.1098 57.3376 14.1098C57.9768 14.1098 58.295 14.4456 58.295 15.1409V16.1866H60.1362V15.2116C60.1362 13.4691 59.3393 12.4763 57.314 12.4763C55.3432 12.4763 54.4727 13.6311 54.4727 15.1276V15.5356C54.4727 16.9202 55.0074 17.6139 56.1622 18.751L57.3494 19.9426C57.971 20.5318 58.2538 20.9531 58.2538 21.6453V22.1093C58.2538 22.7456 57.971 23.1742 57.3317 23.1742C56.6394 23.1742 56.3375 22.7824 56.3375 22.1093V20.4508H54.4609V22.071C54.4609 23.6515 55.2578 24.8048 57.3184 24.8048C59.3791 24.8048 60.2643 23.6264 60.2643 21.9812" fill="white"/>
<path d="M66.1331 12.6177H60.7539V14.2703H62.4213V24.6619H64.4642V14.2703H66.1331V12.6177Z" fill="white"/>
<path fill-rule="evenodd" clip-rule="evenodd" d="M68.0227 12.6177H70.3308L72.6198 24.6604H70.5415L70.1673 22.4598H68.0198L67.6648 24.6604H65.75L68.0227 12.6177ZM69.0881 16.0111L68.2912 20.8424H69.907L69.1072 16.0111H69.0881Z" fill="white"/>
<rect x="73.4414" y="12.6189" width="2.02382" height="12.0442" fill="white"/>
<path d="M82.4819 24.6619V12.6177H80.7954V19.5257L78.6096 12.6177H76.6211V24.6619H78.3268V17.0939L80.7041 24.6619H82.4819Z" fill="white"/>
<path fill-rule="evenodd" clip-rule="evenodd" d="M87.5585 22.4583H85.4095L85.0515 24.6604H83.1367L85.4095 12.6177H87.7175L90.0065 24.6677H87.9296L87.5585 22.4583ZM86.4921 16.0099H86.4729L85.6731 20.8426H87.2934L86.4921 16.0099Z" fill="white"/>
<path fill-rule="evenodd" clip-rule="evenodd" d="M96.2819 16.4944V15.2719C96.2819 13.5662 95.6088 12.6206 93.5835 12.6206H90.6523V24.6648H93.7956C95.8209 24.6648 96.5824 23.7236 96.5824 22.0135V20.4168C96.5824 19.3151 96.0875 18.639 95.0741 18.4092C95.9092 18.1426 96.2819 17.5034 96.2819 16.4944ZM92.6853 14.2706H93.379C94.0522 14.2706 94.3556 14.5887 94.3556 15.2471V16.7201C94.3556 17.3608 94.0522 17.6981 93.3953 17.6981H92.6853V14.2706ZM93.5739 23.0108C94.2485 23.0108 94.5666 22.672 94.5666 22.0328L94.571 20.2196C94.571 19.5818 94.2691 19.2445 93.5591 19.2445H92.6901V23.0108H93.5739Z" fill="white"/>
<path d="M99.4418 12.6177H97.418V24.6619H101.854V23.0092H99.4418V12.6177Z" fill="white"/>
<path d="M107.427 14.2703V12.6177H102.598V24.6619H107.427V23.0092H104.621V19.349H106.628V17.717H104.621V14.2703H107.427Z" fill="white"/>
<path d="M113.854 24.803C116.003 24.803 116.714 23.5245 116.714 21.8012V19.7229H114.866V21.9455C114.866 22.6526 114.617 23.1151 113.889 23.1151C113.162 23.1151 112.858 22.601 112.858 21.8719V15.4072C112.858 14.6707 113.153 14.1626 113.889 14.1626C114.626 14.1626 114.866 14.5882 114.866 15.3409V16.9228H116.714V15.5015C116.714 13.7236 116.091 12.4805 113.854 12.4805C111.724 12.4805 110.836 13.8474 110.836 15.7298V21.5582C110.836 23.4229 111.72 24.8075 113.854 24.8075" fill="white"/>
<rect x="117.664" y="12.6189" width="2.02235" height="12.0442" fill="white"/>
<path d="M124.169 24.6619V14.2703H125.835V12.6177H120.457V14.2703H122.124V24.6619H124.169Z" fill="white"/>
<rect x="126.629" y="12.6189" width="2.02232" height="12.0442" fill="white"/>
<path d="M129.691 24.6619H134.52V23.0092H131.715V19.349H133.718V17.717H131.715V14.2703H134.52V12.6177H129.691V24.6619Z" fill="white"/>
<path d="M137.953 16.9879C137.364 16.4179 136.997 16.029 136.997 15.3515V15.1055C136.997 14.4294 137.386 14.1098 137.953 14.1098C138.595 14.1098 138.912 14.4471 138.912 15.1409V16.1881H140.761V15.2116C140.761 13.4691 139.961 12.4763 137.936 12.4763C135.965 12.4763 135.097 13.6311 135.097 15.1276V15.5385C135.097 16.9216 135.628 17.6154 136.782 18.751L137.971 19.9441C138.595 20.5333 138.878 20.9545 138.878 21.6468V22.1078C138.878 22.7486 138.595 23.1742 137.953 23.1742C137.261 23.1742 136.959 22.7839 136.959 22.1078V20.4581H135.078V22.0784C135.078 23.6588 135.876 24.8136 137.936 24.8136C139.995 24.8136 140.881 23.6353 140.881 21.99V21.4008C140.881 20.0752 140.344 19.3947 139.247 18.2753L137.953 16.9879Z" fill="white"/>
<path fill-rule="evenodd" clip-rule="evenodd" d="M40.8945 42.3369L43.1673 30.2957H45.4739L47.7643 42.3369H45.686L45.3119 40.1349H43.1643L42.8093 42.3369H40.8945ZM44.2341 33.6879L43.4357 38.5191H45.0501L44.2532 33.6879H44.2341Z" fill="white"/>
<path d="M52.9502 37.2037L50.7658 30.2957H48.7773V42.3384H50.483V34.769L52.8603 42.3384H54.6367V30.2957H52.9502V37.2037Z" fill="white"/>
<path fill-rule="evenodd" clip-rule="evenodd" d="M55.9688 30.2928H59.0943V30.2869C61.261 30.2869 62.0225 31.6626 62.0225 33.5273V39.1053C62.0225 40.9538 61.261 42.3384 59.0943 42.3384H55.9688V30.2928ZM58.8464 40.68C59.6801 40.68 59.9997 40.1822 59.9997 39.4546V33.1534C59.9997 32.4434 59.6801 31.947 58.8464 31.947H57.9921V40.68H58.8464Z" fill="white"/>
<path d="M68.4219 30.1526C66.2905 30.1526 65.4023 31.5195 65.4023 33.4034V39.2303C65.4023 41.0935 66.2861 42.4796 68.4219 42.4796C70.5576 42.4796 71.2794 41.1996 71.2794 39.4763V37.3994H69.4323V39.6206C69.4323 40.332 69.1848 40.799 68.4587 40.799C67.7325 40.799 67.4276 40.2849 67.4276 39.5558V33.0896C67.4276 32.362 67.7311 31.8465 68.4587 31.8465C69.1863 31.8465 69.4323 32.2721 69.4323 33.0248V34.6053H71.2794V33.1839C71.2794 31.4075 70.6593 30.1658 68.4219 30.1658" fill="white"/>
<path fill-rule="evenodd" clip-rule="evenodd" d="M72.5547 33.4034C72.5547 31.5195 73.4767 30.1526 75.6096 30.1526C77.7571 30.1526 78.6791 31.5195 78.6791 33.4034V39.2303C78.6791 41.0935 77.7424 42.4796 75.6096 42.4796C73.4767 42.4796 72.5547 41.0935 72.5547 39.2303V33.4034ZM75.6091 40.7916C76.3353 40.7916 76.6549 40.2776 76.6549 39.5485V33.0823C76.6549 32.3547 76.3235 31.8391 75.6091 31.8391C74.8947 31.8391 74.5781 32.3547 74.5781 33.0823V39.5485C74.5781 40.2776 74.883 40.7916 75.6091 40.7916Z" fill="white"/>
<path d="M83.7068 37.08H83.6891L82.3767 30.2927H80.0156V42.3369H81.683V34.5215H81.7183L83.2281 42.3369H84.1678L85.5362 34.5215H85.5892V42.3369H87.4363V30.2927H84.8792L83.7068 37.08Z" fill="white"/>
<path d="M92.4636 37.08H92.446L91.1321 30.2927H88.7695V42.3369H90.4398V34.5215H90.4737L91.982 42.3369H92.9247L94.2901 34.5215H94.3446V42.3369H96.1902V30.2927H93.6346L92.4636 37.08Z" fill="white"/>
<path d="M101.536 39.6016C101.536 40.3131 101.254 40.7947 100.543 40.7947C99.8315 40.7947 99.5487 40.3131 99.5487 39.6016V30.2957H97.5234V39.4043C97.5234 41.272 98.4072 42.4798 100.543 42.4798C102.605 42.4798 103.4 41.272 103.4 39.4043V30.2957H101.536V39.6016Z" fill="white"/>
<path d="M108.913 37.2037L106.725 30.2957H104.738V42.3384H106.444V34.769L108.821 42.3384H110.596V30.2957H108.913V37.2037Z" fill="white"/>
<path d="M11.1836 18.0262V23.2374H11.2263L14.7304 19.6022H14.7761V42.3355H19.7693V12.6367H15.7821L11.1836 18.0262Z" fill="white"/>
<path d="M22.5703 18.0262V23.2374H22.6145L26.1186 19.6022H26.1613V42.3355H31.1561V12.6367H27.1718L22.5703 18.0262Z" fill="white"/>
<rect x="111.93" y="30.2927" width="2.02383" height="12.0442" fill="white"/>
<path d="M115.055 31.9454H116.724V42.3369H118.765V31.9454H120.434V30.2927H115.055V31.9454Z" fill="white"/>
<rect x="121.555" y="30.2927" width="2.02533" height="12.0442" fill="white"/>
<path d="M124.934 42.3369H129.763V40.6857H126.956V37.027H128.964V35.392H126.956V31.9454H129.763V30.2927H124.934V42.3369Z" fill="white"/>
<path d="M133.681 34.6644C133.092 34.0944 132.722 33.7041 132.722 33.0309V32.7805C132.722 32.1045 133.113 31.7863 133.681 31.7863C134.321 31.7863 134.639 32.1236 134.639 32.8174V33.8661H136.487V32.8881C136.487 31.1471 135.687 30.1543 133.664 30.1543C131.691 30.1543 130.822 31.3091 130.822 32.8056V33.2136C130.822 34.5981 131.356 35.2919 132.51 36.4275L133.7 37.6191C134.321 38.2083 134.605 38.631 134.605 39.3233V39.7858C134.605 40.4251 134.321 40.8522 133.681 40.8522C132.989 40.8522 132.687 40.4619 132.687 39.7858V38.1288H130.805V39.749C130.805 41.3294 131.603 42.4842 133.664 42.4842C135.724 42.4842 136.61 41.3059 136.61 39.6621V39.0729C136.61 37.7473 136.076 37.0682 134.976 35.9473L133.681 34.6644Z" fill="white"/>
<path d="M24.9283 112.43H47.0783C47.2937 112.432 47.4893 112.305 47.5763 112.108C47.6633 111.911 47.6251 111.681 47.4789 111.523L47.448 111.491L36.4246 97.2297L36.317 97.1103C36.2144 96.9976 36.0689 96.9334 35.9164 96.9336C35.7847 96.9362 35.6583 96.9859 35.5599 97.0735L35.4937 97.1501L35.3891 97.2665L24.6367 111.379L24.4717 111.58C24.4109 111.67 24.3785 111.776 24.3789 111.884C24.3789 112.029 24.4369 112.169 24.54 112.271C24.6431 112.374 24.7829 112.431 24.9283 112.43Z" fill="white"/>
<path d="M47.0131 114.447H24.813C24.6689 114.447 24.5307 114.504 24.4287 114.606C24.3268 114.708 24.2695 114.846 24.2695 114.99V132.356C24.2691 132.501 24.3262 132.639 24.4281 132.742C24.53 132.844 24.6685 132.902 24.813 132.903H31.9582V121.972C31.9579 121.828 32.015 121.689 32.117 121.587C32.219 121.485 32.3575 121.428 32.5018 121.428H39.13C39.2742 121.428 39.4127 121.485 39.5147 121.587C39.6167 121.689 39.6739 121.828 39.6735 121.972V132.903H47.0087C47.1532 132.902 47.2917 132.844 47.3936 132.742C47.4955 132.639 47.5526 132.501 47.5522 132.356V114.984C47.549 114.688 47.3093 114.449 47.0131 114.447Z" fill="white"/>
<path fill-rule="evenodd" clip-rule="evenodd" d="M123.74 109.891H101.768C101.627 109.889 101.491 109.943 101.391 110.041C101.29 110.139 101.232 110.273 101.23 110.414V132.601C101.235 132.893 101.476 133.126 101.768 133.122H123.74C123.88 133.125 124.016 133.071 124.117 132.973C124.218 132.875 124.277 132.742 124.279 132.601V110.414C124.277 110.273 124.22 110.139 124.118 110.04C124.017 109.942 123.881 109.888 123.74 109.891ZM111.719 124.376C111.717 124.517 111.66 124.651 111.559 124.749C111.459 124.848 111.323 124.902 111.182 124.9H104.618C104.477 124.902 104.341 124.848 104.239 124.75C104.138 124.652 104.08 124.517 104.079 124.376V120.387C104.08 120.246 104.138 120.111 104.239 120.013C104.34 119.915 104.476 119.861 104.618 119.863H111.182C111.323 119.861 111.459 119.915 111.56 120.014C111.66 120.112 111.717 120.247 111.719 120.387V124.376ZM111.559 117.376C111.66 117.277 111.717 117.143 111.719 117.002V113.011C111.717 112.87 111.659 112.737 111.559 112.639C111.458 112.541 111.323 112.487 111.182 112.489H104.618C104.325 112.485 104.084 112.718 104.079 113.011V117.002C104.08 117.143 104.138 117.278 104.239 117.376C104.341 117.475 104.477 117.529 104.618 117.527H111.182C111.323 117.528 111.459 117.474 111.559 117.376ZM121.749 124.376C121.748 124.517 121.69 124.652 121.589 124.75C121.487 124.849 121.351 124.903 121.21 124.9H114.648C114.507 124.903 114.371 124.849 114.27 124.75C114.168 124.652 114.111 124.517 114.109 124.376V120.387C114.111 120.246 114.168 120.111 114.27 120.013C114.371 119.915 114.507 119.861 114.648 119.863H121.21C121.351 119.861 121.487 119.915 121.589 120.013C121.69 120.111 121.748 120.246 121.749 120.387V124.376ZM121.589 117.377C121.69 117.278 121.748 117.144 121.749 117.002V113.011C121.747 112.87 121.689 112.736 121.588 112.638C121.487 112.541 121.351 112.487 121.21 112.489H114.648C114.508 112.487 114.372 112.541 114.271 112.638C114.169 112.736 114.111 112.87 114.109 113.011V117.002C114.111 117.144 114.168 117.278 114.27 117.377C114.371 117.475 114.507 117.529 114.648 117.527H121.21C121.351 117.529 121.487 117.475 121.589 117.377Z" fill="white"/>
<path fill-rule="evenodd" clip-rule="evenodd" d="M72.662 58.3921H51.1572C51.0177 58.3925 50.8841 58.4483 50.7858 58.5472C50.6874 58.6461 50.6324 58.78 50.6328 58.9194V132.404C50.6336 132.694 50.8677 132.928 51.1572 132.93H72.662C72.9526 132.929 73.1884 132.695 73.1908 132.404V58.9165C73.19 58.625 72.9535 58.3892 72.662 58.3892V58.3921ZM59.8705 124.558C59.8705 124.633 59.8407 124.704 59.7877 124.758C59.7346 124.811 59.6627 124.84 59.5877 124.84H54.6652C54.509 124.84 54.3824 124.714 54.3824 124.558V119.072C54.3824 118.997 54.4122 118.926 54.4653 118.873C54.5184 118.82 54.5903 118.791 54.6652 118.791H59.5877C59.6626 118.791 59.7345 118.82 59.7876 118.873C59.8407 118.926 59.8705 118.997 59.8705 119.072V124.558ZM59.786 112.156C59.839 112.103 59.869 112.032 59.8694 111.957V106.473C59.8698 106.398 59.8401 106.326 59.787 106.273C59.7339 106.22 59.6617 106.19 59.5866 106.191H54.67C54.5948 106.19 54.5227 106.22 54.4696 106.273C54.4164 106.326 54.3868 106.398 54.3872 106.473V111.957C54.3879 112.11 54.511 112.235 54.6641 112.237H59.5866C59.6612 112.237 59.7329 112.208 59.786 112.156ZM59.8705 99.359C59.8705 99.434 59.8407 99.5059 59.7877 99.5589C59.7346 99.612 59.6627 99.6418 59.5877 99.6418H54.6652C54.509 99.6418 54.3824 99.5151 54.3824 99.359V93.8708C54.3832 93.7152 54.5095 93.5895 54.6652 93.5895H59.5877C59.7433 93.5895 59.8697 93.7152 59.8705 93.8708V99.359ZM59.5866 87.0407C59.7428 87.0407 59.8694 86.9141 59.8694 86.7579V81.2698C59.8691 81.1953 59.839 81.124 59.7859 81.0718C59.7328 81.0195 59.6611 80.9906 59.5866 80.9914H54.67C54.5955 80.9906 54.5238 81.0195 54.4707 81.0718C54.4176 81.124 54.3876 81.1953 54.3872 81.2698V86.755C54.3855 86.91 54.509 87.0375 54.6641 87.0407H59.5866ZM59.8705 74.16C59.8697 74.3157 59.7433 74.4414 59.5877 74.4414H54.6652C54.5095 74.4414 54.3832 74.3157 54.3824 74.16V68.6719C54.3824 68.5157 54.509 68.3891 54.6652 68.3891H59.5877C59.6627 68.3891 59.7346 68.4189 59.7877 68.4719C59.8407 68.5249 59.8705 68.5969 59.8705 68.6719V74.16ZM69.4437 124.758C69.4971 124.705 69.5271 124.633 69.5271 124.558V119.072C69.5271 118.997 69.497 118.925 69.4436 118.872C69.3902 118.82 69.3179 118.79 69.2428 118.791H64.3217C64.2468 118.791 64.1749 118.82 64.1218 118.873C64.0687 118.926 64.0389 118.998 64.0389 119.072V124.558C64.0385 124.633 64.0682 124.705 64.1213 124.758C64.1744 124.811 64.2466 124.841 64.3217 124.84H69.2428C69.318 124.841 69.3904 124.811 69.4437 124.758ZM69.5271 111.957C69.5275 112.032 69.4976 112.105 69.4441 112.158C69.3907 112.211 69.3182 112.241 69.2428 112.24H64.3217C64.2465 112.241 64.1741 112.211 64.1209 112.158C64.0677 112.105 64.0381 112.032 64.0389 111.957V106.473C64.0381 106.398 64.0677 106.326 64.1209 106.273C64.1741 106.219 64.2465 106.19 64.3217 106.191H69.2428C69.3182 106.19 69.3907 106.219 69.4441 106.272C69.4976 106.326 69.5275 106.398 69.5271 106.473V111.957ZM69.4437 99.5594C69.4971 99.5064 69.5271 99.4342 69.5271 99.3589V93.8708C69.5267 93.7958 69.4965 93.724 69.4432 93.6712C69.3899 93.6185 69.3178 93.5891 69.2428 93.5895H64.3217C64.2468 93.5891 64.1749 93.6185 64.1218 93.6713C64.0687 93.7241 64.0389 93.7959 64.0389 93.8708V99.3589C64.0385 99.4341 64.0682 99.5062 64.1213 99.5593C64.1744 99.6125 64.2466 99.6421 64.3217 99.6417H69.2428C69.318 99.6421 69.3904 99.6125 69.4437 99.5594ZM69.5271 86.7579C69.5271 86.8332 69.4971 86.9053 69.4437 86.9584C69.3904 87.0115 69.318 87.0411 69.2428 87.0407H64.3217C64.2466 87.0411 64.1744 87.0114 64.1213 86.9583C64.0682 86.9052 64.0385 86.833 64.0389 86.7579V81.2698C64.0393 81.1953 64.0694 81.1241 64.1224 81.0718C64.1755 81.0196 64.2472 80.9906 64.3217 80.9914H69.2428C69.3175 80.9902 69.3896 81.019 69.443 81.0713C69.4964 81.1236 69.5267 81.195 69.5271 81.2698V86.7579ZM69.4432 74.3596C69.4965 74.3068 69.5267 74.235 69.5271 74.16V68.6719C69.5271 68.5966 69.4971 68.5245 69.4437 68.4714C69.3904 68.4183 69.318 68.3887 69.2428 68.3891H64.3217C64.2466 68.3887 64.1744 68.4184 64.1213 68.4715C64.0682 68.5246 64.0385 68.5968 64.0389 68.6719V74.16C64.0389 74.2349 64.0687 74.3067 64.1218 74.3595C64.1749 74.4123 64.2468 74.4417 64.3217 74.4414H69.2428C69.3178 74.4417 69.3899 74.4123 69.4432 74.3596Z" fill="white"/>
<path d="M124.254 107.659C124.254 107.903 124.056 108.101 123.812 108.101H101.696C101.452 108.101 101.254 107.903 101.254 107.659V103.24C101.254 102.996 101.452 102.798 101.696 102.798H123.812C124.056 102.798 124.254 102.996 124.254 103.24V107.659Z" fill="white"/>
<path fill-rule="evenodd" clip-rule="evenodd" d="M98.6367 72.2684C98.5675 72.0267 98.3475 71.8595 98.0961 71.8574C97.9857 71.8603 97.8787 71.8956 97.7883 71.9591L97.7485 71.9856L97.5673 72.2153L76.4337 99.0227L76.3365 99.1538C76.223 99.264 76.157 99.4141 76.1523 99.5721V132.514C76.1527 132.654 76.2085 132.787 76.3074 132.886C76.4063 132.984 76.5402 133.039 76.6797 133.039H98.1609C98.3003 133.039 98.434 132.984 98.5327 132.886C98.6313 132.787 98.6868 132.654 98.6868 132.514V72.4893C98.6857 72.413 98.6686 72.3377 98.6367 72.2684ZM89.7411 86.8271L89.8884 86.6386C91.3333 84.7827 93.771 81.7779 94.9582 80.3256L95.1143 80.14C95.2307 79.9986 95.404 79.9166 95.5871 79.9161C95.8761 79.9176 96.1233 80.124 96.1763 80.4081V87.1968C96.1749 87.5241 95.9142 87.7912 95.5871 87.8007H95.5606H95.5326H90.2581H90.2316H90.2051C89.8783 87.7905 89.6181 87.5237 89.6159 87.1968C89.6163 87.0633 89.6603 86.9335 89.7411 86.8271ZM86.2416 124.744C86.3403 124.646 86.3956 124.512 86.3952 124.372L86.3937 120.361C86.3937 120.222 86.3382 120.088 86.2396 119.99C86.1409 119.892 86.0072 119.836 85.8679 119.837H79.4591C79.3198 119.836 79.186 119.892 79.0874 119.99C78.9887 120.088 78.9333 120.222 78.9333 120.361V124.372C78.9329 124.512 78.9882 124.646 79.0869 124.744C79.1856 124.843 79.3195 124.898 79.4591 124.898H85.8693C86.0089 124.898 86.1429 124.843 86.2416 124.744ZM86.3952 116.96C86.3956 117.1 86.3403 117.234 86.2416 117.333C86.1429 117.431 86.0089 117.486 85.8693 117.486H79.4591C79.3195 117.486 79.1856 117.431 79.0869 117.333C78.9882 117.234 78.9329 117.1 78.9333 116.96V112.949C78.9325 112.81 78.9876 112.676 79.0864 112.577C79.1852 112.478 79.3194 112.423 79.4591 112.424H85.8679C86.0076 112.423 86.1418 112.478 86.2406 112.577C86.3393 112.676 86.3945 112.81 86.3937 112.949L86.3952 116.96ZM86.2411 109.92C86.3397 109.821 86.3952 109.688 86.3952 109.549L86.3937 105.536C86.3941 105.397 86.3388 105.263 86.2401 105.164C86.1414 105.065 86.0074 105.01 85.8679 105.01H79.4591C79.3195 105.01 79.1856 105.065 79.0869 105.164C78.9882 105.263 78.9329 105.397 78.9333 105.536V109.549C78.9333 109.688 78.9887 109.821 79.0874 109.92C79.186 110.018 79.3198 110.073 79.4591 110.073H85.8693C86.0087 110.073 86.1424 110.018 86.2411 109.92ZM86.4144 93.3066V102.144C86.4135 102.434 86.1786 102.669 85.8885 102.67H79.4812C79.3413 102.671 79.2068 102.616 79.1075 102.517C79.0083 102.418 78.9525 102.284 78.9525 102.144V101.032C78.9548 100.965 78.9683 100.899 78.9922 100.836C79.0013 100.815 79.0122 100.794 79.0246 100.774C79.0381 100.75 79.0539 100.727 79.0718 100.705C79.0813 100.689 79.0952 100.67 79.109 100.65C79.1165 100.64 79.124 100.63 79.1307 100.62C79.9496 99.4413 83.6467 94.8929 85.1992 92.9899L85.3553 92.8014C85.4717 92.6602 85.6452 92.5786 85.8281 92.5789C86.1164 92.5808 86.3632 92.7863 86.4173 93.0694L86.4144 93.3066ZM96.0368 124.744C96.1354 124.645 96.1908 124.511 96.1908 124.372V120.361C96.19 120.071 95.9548 119.837 95.6649 119.837H89.2576C89.1179 119.836 88.9836 119.891 88.8844 119.989C88.7852 120.088 88.7292 120.222 88.7289 120.361V124.372C88.7289 124.512 88.7847 124.646 88.8839 124.745C88.9832 124.844 89.1177 124.899 89.2576 124.898H95.6649C95.8044 124.898 95.9381 124.842 96.0368 124.744ZM96.1908 116.96C96.1908 117.251 95.9553 117.486 95.6649 117.486H89.2576C89.1177 117.487 88.9832 117.432 88.8839 117.333C88.7847 117.234 88.7289 117.1 88.7289 116.96V112.949C88.7285 112.809 88.7841 112.675 88.8835 112.576C88.9828 112.477 89.1176 112.422 89.2576 112.424H95.6649C95.9553 112.424 96.1908 112.659 96.1908 112.949V116.96ZM95.6649 110.073C95.9544 110.072 96.1892 109.838 96.1908 109.549V105.536C96.1908 105.246 95.9553 105.01 95.6649 105.01H89.2576C89.1177 105.01 88.9832 105.065 88.8839 105.163C88.7847 105.262 88.7289 105.396 88.7289 105.536V109.549C88.7292 109.688 88.7852 109.822 88.8844 109.92C88.9836 110.019 89.1179 110.074 89.2576 110.073H95.6649ZM96.1908 102.135C96.19 102.425 95.9548 102.659 95.6649 102.659H89.2576C89.1179 102.66 88.9836 102.605 88.8844 102.507C88.7852 102.409 88.7292 102.275 88.7289 102.135V98.1242C88.7289 97.9843 88.7847 97.8501 88.8839 97.7514C88.9832 97.6527 89.1177 97.5976 89.2576 97.5984H95.6649C95.9553 97.5984 96.1908 97.8338 96.1908 98.1242V102.135ZM96.0367 95.0933C96.1354 94.9947 96.1908 94.8609 96.1908 94.7215V90.7107C96.1912 90.571 96.1359 90.4369 96.0373 90.3379C95.9386 90.239 95.8046 90.1834 95.6649 90.1834H89.2576C89.1174 90.1826 88.9827 90.2379 88.8834 90.3369C88.7841 90.4359 88.7285 90.5705 88.7289 90.7107V94.7215C88.7289 94.8615 88.7847 94.9957 88.8839 95.0944C88.9832 95.1931 89.1177 95.2481 89.2576 95.2473H95.6649C95.8044 95.2473 95.9381 95.1919 96.0367 95.0933Z" fill="white"/>
</svg>
