<svg width="148" height="148" viewBox="0 0 148 148" fill="none" xmlns="http://www.w3.org/2000/svg">
<rect x="0.371094" y="-0.000244141" width="147.293" height="147.293" fill="#DDA63A"/>
<path d="M27.9149 37.9662H19.7269V36.5639C19.7269 34.244 20.5591 33.3677 21.8288 32.0096L25.025 28.6366C27.61 25.8778 28.1801 24.125 28.1801 21.1452V18.2554C28.1801 14.0074 26.118 11.991 21.6535 11.991C17.2745 11.991 15.0386 14.3123 15.0386 18.4719V22.0644H19.5958V18.3408C19.5958 16.5468 20.4707 16.0194 21.5239 16.0194C22.4857 16.0194 23.3179 16.4157 23.3179 18.2554V20.7078C23.3179 23.1617 23.0985 24.125 21.4782 25.8321L18.6796 28.8104C15.9606 31.7032 14.9531 33.6313 14.9531 36.5639V42.0403H27.9149V37.9662Z" fill="white"/>
<path d="M61.2225 125.158V127.23C61.2185 127.245 61.216 127.26 61.2151 127.276C61.2159 127.292 61.2184 127.309 61.2225 127.325C61.2442 127.838 61.6626 128.247 62.177 128.255C62.177 128.255 62.1887 128.255 62.1961 128.255H62.2197H86.5231C86.5231 128.255 86.5363 128.255 86.5437 128.255H86.5658C87.0959 128.245 87.5209 127.814 87.5232 127.283C87.5223 127.281 87.5223 127.278 87.5232 127.276V124.925C101.201 120.442 111.448 109.356 113.702 95.8464C113.702 95.817 113.71 95.7905 113.715 95.7654C113.723 95.7207 113.727 95.6754 113.728 95.6299C113.729 95.3692 113.625 95.1191 113.441 94.9348C113.257 94.7505 113.006 94.6471 112.746 94.6475H35.3018C35.0407 94.6467 34.7901 94.7498 34.6052 94.9342C34.4203 95.1185 34.3164 95.3688 34.3164 95.6299L34.368 96.0718C36.735 109.71 47.262 120.857 61.2225 125.158Z" fill="white"/>
<path d="M87.4944 61.5979C87.1748 62.0516 79.6879 72.8232 87.6609 81.5326C91.3152 85.5302 90.9985 89.0564 89.9557 91.4381H95.0668C96.0978 87.9222 95.6736 83.5108 91.5317 78.9771C85.6606 72.558 91.6069 63.8839 91.6967 63.7499C92.3978 62.7601 92.0222 61.4845 90.8674 60.8894C89.7127 60.2944 88.2058 60.614 87.5018 61.5979" fill="white"/>
<path d="M74.5498 91.4379H79.6623C80.6934 87.9205 80.2677 83.5106 76.1184 78.9769C70.2444 72.5578 76.1862 63.8866 76.2805 63.7452C76.9772 62.7598 76.6089 61.4858 75.4497 60.8892C74.2905 60.2927 72.7896 60.6123 72.0885 61.5977C71.7674 62.0499 64.282 72.8229 72.2549 81.5324C75.9093 85.5299 75.5897 89.0576 74.5498 91.4379Z" fill="white"/>
<path d="M56.6795 61.598C56.3554 62.0517 48.8729 72.8233 56.8444 81.5327C60.5002 85.5317 60.1836 89.0579 59.1422 91.4382H64.2533C65.2843 87.9238 64.8601 83.5123 60.7065 78.9772C54.8339 72.5581 60.7801 63.884 60.8744 63.747C61.5681 62.7602 61.1984 61.4846 60.0392 60.8895C58.88 60.2945 57.3806 60.6126 56.6795 61.598Z" fill="white"/>
<path d="M44.4183 22.7287H47.4894V24.3798H42.3047V22.7287L45.4833 13.9927H42.6243V12.3416H47.6146V13.9927L44.4183 22.7287Z" fill="white"/>
<path d="M48.8594 12.3416H53.6906V13.9927H50.8832V17.4379H52.8893V19.0714H50.8832V22.7287H53.6906V24.3798H48.8594V12.3416Z" fill="white"/>
<path fill-rule="evenodd" clip-rule="evenodd" d="M56.9745 24.3754V18.8534L58.8746 24.3798H61L59.0631 18.9108C60.2209 18.6472 60.6834 17.8813 60.6834 16.5851V15.04C60.6834 13.3535 59.9366 12.3416 57.8951 12.3416H54.9492V24.3754H56.9745ZM56.9726 17.7399V13.9928H57.6472C58.3395 13.9928 58.6414 14.3124 58.6414 14.9693V16.7442C58.6414 17.3834 58.3395 17.7399 57.6472 17.7399H56.9726Z" fill="white"/>
<path fill-rule="evenodd" clip-rule="evenodd" d="M61.9609 15.4478V21.2732C61.9609 23.138 62.8668 24.5225 65.0158 24.5225C67.1648 24.5225 68.0884 23.138 68.0884 21.2732V15.4478C68.0884 13.5654 67.1471 12.1985 65.0158 12.1985C62.8845 12.1985 61.9609 13.5654 61.9609 15.4478ZM66.0626 15.1282V21.5929C66.0626 22.3205 65.7268 22.836 65.0154 22.836C64.3039 22.836 63.9843 22.3205 63.9843 21.5929V15.1282C63.9843 14.4006 64.2877 13.885 65.0154 13.885C65.743 13.885 66.0626 14.4006 66.0626 15.1282Z" fill="white"/>
<path d="M46.4003 36.7096H44.4457V42.0121H42.4219V29.9797H44.4457V35.0761H46.4003V29.9797H48.4418V42.0195H46.4003V36.7096Z" fill="white"/>
<path d="M55.6543 29.9797V39.0884C55.6543 40.9531 54.856 42.1609 52.7954 42.1609C50.6655 42.1609 49.7773 40.9531 49.7773 39.0884V29.9797H51.8012V39.2843C51.8012 39.9942 52.0854 40.4744 52.7954 40.4744C53.5053 40.4744 53.7911 39.9942 53.7911 39.2843V29.9797H55.6543Z" fill="white"/>
<path d="M58.69 34.4545V42.0195H56.9844V29.9797H58.9743L61.1587 36.8878V29.9797H62.8452V42.0195H61.0688L58.69 34.4545Z" fill="white"/>
<path d="M67.2292 35.5902H70.1073V42.0196H68.6506V40.7057C68.384 41.6101 67.8154 42.161 66.7151 42.161C64.9741 42.161 64.1758 40.7764 64.1758 38.9117V33.0877C64.1758 31.2053 65.0816 29.8369 67.2115 29.8369C69.4489 29.8369 70.1073 31.0801 70.1073 32.8564V33.9214H68.2602V32.6988C68.2602 31.9535 67.976 31.5278 67.2483 31.5278C66.5207 31.5278 66.1996 32.0419 66.1996 32.771V39.2342C66.1996 39.9619 66.5016 40.4774 67.1938 40.4774C67.8508 40.4774 68.1895 40.1047 68.1895 39.3226V37.1898H67.2292V35.5902Z" fill="white"/>
<path d="M71.4375 29.9797H76.2687V31.6309H73.4628V35.0761H75.4689V36.7096H73.4628V40.3684H76.2687V42.0195H71.4375V29.9797Z" fill="white"/>
<path fill-rule="evenodd" clip-rule="evenodd" d="M79.5526 42.0195V36.496L81.4527 42.0195H83.5752L81.6398 36.549C82.799 36.2854 83.26 35.5194 83.26 34.2233V32.6782C83.26 30.9916 82.5147 29.9797 80.4732 29.9797H77.5273V42.0195H79.5526ZM79.5509 35.3826V31.6355L80.2255 31.631C80.9252 31.631 81.2197 31.9507 81.2197 32.6076V34.3884C81.2197 35.0276 80.9178 35.3826 80.2255 35.3826H79.5509Z" fill="white"/>
</svg>
